<svg xmlns="http://www.w3.org/2000/svg" version="1.1" viewBox="-5.0 -10.0 110.0 135.0">
 <path d="m100 1.5625v6.25c0 0.86328-0.69922 1.5625-1.5625 1.5625h-96.875c-0.86328 0-1.5625-0.69922-1.5625-1.5625v-6.25c0-0.85938 0.70312-1.5625 1.5625-1.5625h96.875c0.85938 0 1.5625 0.70312 1.5625 1.5625zm-76.562 18.75h53.125v-7.8125h-53.125zm18.844 36.484c0.23438 0.625 0.84375 1.0156 1.4688 1.0156 0.1875 0 0.375-0.03125 0.54688-0.09375l4.1406-1.5625v9.4688h3.125v-10.641l5.2344-1.9531c0.8125-0.3125 1.2188-1.2031 0.92188-2.0156-0.3125-0.8125-1.2031-1.2188-2.0156-0.92188l-12.5 4.6875c-0.8125 0.3125-1.2188 1.2031-0.92188 2.0156zm-37.594-0.80469 12.586-7.5547-12.586-7.5547zm15.625-43.234-12.586 7.5547 12.586 7.5547zm0 33.855v-15.105l-12.586 7.5547 12.586 7.5547zm-15.625-9.375 12.586-7.5547-12.586-7.5508zm0 28.383h9.9844l-9.9844-5.9922zm15.625-0.25781v-15.105l-12.586 7.5547 12.586 7.5547zm-15.625-46.871 9.9844-5.9922h-9.9844zm75 28.125 12.586-7.5547-12.586-7.5547zm15.625-9.375v-15.105l-12.586 7.5547 12.586 7.5547zm-15.625-9.375 12.586-7.5547-12.586-7.5547zm15.625 28.125v-15.105l-12.586 7.5547 12.586 7.5547zm-15.625 9.375 12.586-7.5547-12.586-7.5547zm15.625 0.25781v-5.9922l-9.9844 5.9922zm0-53.125h-9.9844l9.9844 5.9922zm-28.125 10.938v4.9688c-1.8125 0.65625-3.125 2.375-3.125 4.4062 0 2.5781 2.1094 4.6875 4.6875 4.6875s4.6875-2.1094 4.6875-4.6875c0-2.0312-1.3125-3.75-3.125-4.4062v-4.9688zm-18.75 0v4.9688c-1.8125 0.65625-3.125 2.375-3.125 4.4062 0 2.5781 2.1094 4.6875 4.6875 4.6875s4.6875-2.1094 4.6875-4.6875c0-2.0312-1.3125-3.75-3.125-4.4062v-4.9688zm-18.75 0v4.9688c-1.8125 0.65625-3.125 2.375-3.125 4.4062 0 2.5781 2.1094 4.6875 4.6875 4.6875s4.6875-2.1094 4.6875-4.6875c0-2.0312-1.3125-3.75-3.125-4.4062v-4.9688zm-4.6875 51.562h50v-6.25h-50zm0 25h50v-21.875h-50zm75-29.688v28.125c0 0.85938-0.70312 1.5625-1.5625 1.5625h-20.312v-31.25h20.312c0.86328 0 1.5625 0.69922 1.5625 1.5625zm-9.375 21.875c0-0.86328-0.69922-1.5625-1.5625-1.5625s-1.5625 0.69922-1.5625 1.5625 0.69922 1.5625 1.5625 1.5625 1.5625-0.69922 1.5625-1.5625zm4.6875-12.5c0-3.4453-2.8047-6.25-6.25-6.25s-6.25 2.8047-6.25 6.25 2.8047 6.25 6.25 6.25 6.25-2.8047 6.25-6.25zm-6.25-3.125c-1.7227 0-3.125 1.4023-3.125 3.125s1.4023 3.125 3.125 3.125 3.125-1.4023 3.125-3.125-1.4023-3.125-3.125-3.125zm-78.125 6.25c1.7227 0 3.125-1.4023 3.125-3.125s-1.4023-3.125-3.125-3.125-3.125 1.4023-3.125 3.125 1.4023 3.125 3.125 3.125zm-9.375-14.062h20.312v31.25h-20.312c-0.85938 0-1.5625-0.70312-1.5625-1.5625v-28.125c0-0.86328 0.69922-1.5625 1.5625-1.5625zm10.938 23.438c0-0.86328-0.69922-1.5625-1.5625-1.5625s-1.5625 0.69922-1.5625 1.5625 0.69922 1.5625 1.5625 1.5625 1.5625-0.69922 1.5625-1.5625zm-7.8125-12.5c0 3.4453 2.8047 6.25 6.25 6.25s6.25-2.8047 6.25-6.25-2.8047-6.25-6.25-6.25-6.25 2.8047-6.25 6.25z"/></svg>