<svg xmlns="http://www.w3.org/2000/svg" version="1.1" viewBox="-5.0 -10.0 110.0 135.0">
 <g fill-rule="evenodd">
  <path d="m7.2266 91.402h85.551v-3.2148h-85.551zm86.527 1.9531h-87.504c-0.53906 0-0.97656-0.4375-0.97656-0.97656v-5.1719c0-0.53906 0.4375-0.97656 0.97656-0.97656h87.504c0.53906 0 0.97656 0.4375 0.97656 0.97656v5.168c0 0.53906-0.4375 0.97656-0.97656 0.97656z"/>
  <path d="m89.625 88.188c-0.53906 0-0.97656-0.4375-0.97656-0.97656v-66.129h-39v66.129c0 0.53906-0.4375 0.97656-0.97656 0.97656s-0.97656-0.4375-0.97656-0.97656v-67.105c0-0.53906 0.43359-0.97656 0.97656-0.97656h40.953c0.53906 0 0.97656 0.4375 0.97656 0.97656v67.105c0 0.53906-0.4375 0.97656-0.97656 0.97656z"/>
  <path d="m87.434 21.082c-0.53906 0-0.97656-0.4375-0.97656-0.97656v-11.508h-34.613v11.508c0 0.53906-0.4375 0.97656-0.97656 0.97656-0.54297 0-0.97656-0.4375-0.97656-0.97656v-12.484c0-0.53906 0.43359-0.97656 0.97656-0.97656h36.566c0.53906 0 0.97656 0.4375 0.97656 0.97656v12.484c0 0.53906-0.4375 0.97656-0.97656 0.97656z"/>
  <path d="m76.312 88.188c-0.53906 0-0.97656-0.4375-0.97656-0.97656v-15.59h-12.367v15.59c0 0.53906-0.4375 0.97656-0.97656 0.97656-0.53906 0-0.97656-0.4375-0.97656-0.97656v-16.566c0-0.53906 0.4375-0.97656 0.97656-0.97656h14.32c0.53906 0 0.97656 0.4375 0.97656 0.97656v16.566c0 0.53906-0.4375 0.97656-0.97656 0.97656z"/>
  <path d="m73.82 65.195h10.465v-7.5586h-10.465zm11.441 1.9531h-12.418c-0.53906 0-0.97656-0.4375-0.97656-0.97656v-9.5117c0-0.53906 0.4375-0.97656 0.97656-0.97656h12.418c0.53906 0 0.97656 0.4375 0.97656 0.97656v9.5117c0 0.53906-0.4375 0.97656-0.97656 0.97656z"/>
  <path d="m73.82 34.168h10.465v-7.5586h-10.465zm11.441 1.9531h-12.418c-0.53906 0-0.97656-0.4375-0.97656-0.97656v-9.5117c0-0.53906 0.4375-0.97656 0.97656-0.97656h12.418c0.53906 0 0.97656 0.4375 0.97656 0.97656v9.5117c0 0.53906-0.4375 0.97656-0.97656 0.97656z"/>
  <path d="m54.965 65.195h10.465v-7.5586h-10.465zm11.441 1.9531h-12.418c-0.53906 0-0.97656-0.4375-0.97656-0.97656v-9.5117c0-0.53906 0.4375-0.97656 0.97656-0.97656h12.418c0.53906 0 0.97656 0.4375 0.97656 0.97656v9.5117c0 0.53906-0.4375 0.97656-0.97656 0.97656z"/>
  <path d="m54.965 49.684h10.465v-7.5625h-10.465zm11.441 1.9531h-12.418c-0.53906 0-0.97656-0.4375-0.97656-0.97656v-9.5156c0-0.53906 0.4375-0.97656 0.97656-0.97656h12.418c0.53906 0 0.97656 0.4375 0.97656 0.97656v9.5156c0 0.53906-0.4375 0.97656-0.97656 0.97656z"/>
  <path d="m54.965 34.168h10.465v-7.5586h-10.465zm11.441 1.9531h-12.418c-0.53906 0-0.97656-0.4375-0.97656-0.97656v-9.5117c0-0.53906 0.4375-0.97656 0.97656-0.97656h12.418c0.53906 0 0.97656 0.4375 0.97656 0.97656v9.5117c0 0.53906-0.4375 0.97656-0.97656 0.97656z"/>
  <path d="m85.262 32.402h-12.418c-0.53906 0-0.97656-0.4375-0.97656-0.97656 0-0.53906 0.4375-0.97656 0.97656-0.97656h12.418c0.53906 0 0.97656 0.4375 0.97656 0.97656 0 0.53906-0.4375 0.97656-0.97656 0.97656z"/>
  <path d="m85.262 47.914h-12.418c-0.53906 0-0.97656-0.4375-0.97656-0.97656s0.4375-0.97656 0.97656-0.97656h12.418c0.53906 0 0.97656 0.4375 0.97656 0.97656s-0.4375 0.97656-0.97656 0.97656z"/>
  <path d="m85.262 63.43h-12.418c-0.53906 0-0.97656-0.4375-0.97656-0.97656 0-0.54297 0.4375-0.97656 0.97656-0.97656h12.418c0.53906 0 0.97656 0.43359 0.97656 0.97656 0 0.53906-0.4375 0.97656-0.97656 0.97656z"/>
  <path d="m54.965 65.195h10.465v-7.5586h-10.465zm11.441 1.9531h-12.418c-0.53906 0-0.97656-0.4375-0.97656-0.97656v-9.5117c0-0.53906 0.4375-0.97656 0.97656-0.97656h12.418c0.53906 0 0.97656 0.4375 0.97656 0.97656v9.5117c0 0.53906-0.4375 0.97656-0.97656 0.97656z"/>
  <path d="m73.82 49.684h10.465v-7.5625h-10.465zm11.441 1.9531h-12.418c-0.53906 0-0.97656-0.4375-0.97656-0.97656v-9.5156c0-0.53906 0.4375-0.97656 0.97656-0.97656h12.418c0.53906 0 0.97656 0.4375 0.97656 0.97656v9.5156c0 0.53906-0.4375 0.97656-0.97656 0.97656z"/>
  <path d="m54.965 49.684h10.465v-7.5625h-10.465zm11.441 1.9531h-12.418c-0.53906 0-0.97656-0.4375-0.97656-0.97656v-9.5156c0-0.53906 0.4375-0.97656 0.97656-0.97656h12.418c0.53906 0 0.97656 0.4375 0.97656 0.97656v9.5156c0 0.53906-0.4375 0.97656-0.97656 0.97656z"/>
  <path d="m66.41 32.402h-12.418c-0.53906 0-0.97656-0.4375-0.97656-0.97656 0-0.53906 0.4375-0.97656 0.97656-0.97656h12.418c0.53906 0 0.97656 0.4375 0.97656 0.97656 0 0.53906-0.4375 0.97656-0.97656 0.97656z"/>
  <path d="m66.41 47.914h-12.418c-0.53906 0-0.97656-0.4375-0.97656-0.97656s0.4375-0.97656 0.97656-0.97656h12.418c0.53906 0 0.97656 0.4375 0.97656 0.97656s-0.4375 0.97656-0.97656 0.97656z"/>
  <path d="m66.41 63.43h-12.418c-0.53906 0-0.97656-0.4375-0.97656-0.97656 0-0.54297 0.4375-0.97656 0.97656-0.97656h12.418c0.53906 0 0.97656 0.43359 0.97656 0.97656 0 0.53906-0.4375 0.97656-0.97656 0.97656z"/>
  <path d="m37.715 52.316c-2.4492 0.20312-4.4102 1.0195-5.8438 2.4297-1.9258 1.8945-3.0195 4.957-3.2656 9.1211zm-10.129 15.395c-0.10156 0-0.20703-0.015626-0.30859-0.046876-0.39062-0.12891-0.65625-0.49219-0.66797-0.90234-0.15625-6.1953 1.1523-10.707 3.8945-13.406 2.207-2.1719 5.332-3.1914 9.2969-3.0234 0.36719 0.015625 0.69531 0.23438 0.84766 0.56641 0.15625 0.33203 0.10937 0.72266-0.12109 1.0117l-12.172 15.434c-0.1875 0.23828-0.47266 0.37109-0.76562 0.37109z"/>
  <path d="m27.586 67.711c-0.40625 0-0.78516-0.25781-0.92578-0.66406-0.17188-0.51172 0.10156-1.0664 0.60938-1.2383l14.84-5.043c-2.9258-1.918-5.4453-2.3516-7.668-1.3242-0.48828 0.22656-1.0703 0.015625-1.2969-0.47656-0.22656-0.49219-0.011719-1.0703 0.47656-1.2969 3.2773-1.5156 7.043-0.62109 11.191 2.6484 0.28125 0.22266 0.41797 0.57812 0.35938 0.93359-0.0625 0.35547-0.30859 0.64453-0.64844 0.76172l-16.625 5.6484c-0.10156 0.035156-0.21094 0.054688-0.31641 0.054688z"/>
  <path d="m25.871 88.188c-0.0625 0-0.12891-0.007812-0.19141-0.019531-0.52734-0.10547-0.87109-0.61719-0.76563-1.1484 1.2852-6.4414 1.1641-13.199-0.35547-20.074-0.11719-0.52734 0.21484-1.0469 0.74219-1.1641 0.52734-0.11719 1.0469 0.21484 1.1641 0.74219 1.5781 7.1445 1.6992 14.168 0.36328 20.879-0.089844 0.46484-0.5 0.78516-0.95703 0.78516zm4.8867 0c-0.0625 0-0.125-0.007812-0.19141-0.019531-0.52734-0.10547-0.87109-0.61719-0.76562-1.1484 1.3398-6.7148 1.1523-13.762-0.55078-20.945-0.125-0.52344 0.19922-1.0508 0.72266-1.1758 0.52344-0.125 1.0508 0.19922 1.1758 0.72266 1.7695 7.457 1.9609 14.785 0.56641 21.781-0.09375 0.46484-0.5 0.78516-0.95703 0.78516z"/>
  <path d="m25.254 60.57c-0.47656 0-0.89844-0.35156-0.96484-0.83984-0.84766-6.0586 1.5781-11.066 7.207-14.883 0.33203-0.22266 0.76172-0.22656 1.0938-0.003906 0.32812 0.22266 0.49219 0.625 0.41016 1.0117l-2.0938 9.9102c-0.11328 0.52734-0.63281 0.86328-1.1562 0.75391-0.52734-0.11328-0.86328-0.62891-0.75391-1.1562l1.5469-7.3203c-3.5391 3.1211-4.9531 6.875-4.3203 11.418 0.074219 0.53125-0.29688 1.0273-0.83203 1.1016-0.042969 0.007812-0.089844 0.007812-0.13672 0.007812z"/>
  <path d="m27.586 67.711h-17.211c-0.37109 0-0.70703-0.20703-0.875-0.53516s-0.13281-0.72266 0.085938-1.0195c3.3125-4.4805 6.75-6.5586 10.211-6.1719 0.53906 0.058594 0.92188 0.54297 0.86328 1.0781s-0.54297 0.92188-1.0781 0.86328c-2.3281-0.26172-4.7344 1.0312-7.1758 3.832h15.184c0.53906 0 0.97656 0.4375 0.97656 0.97656s-0.4375 0.97656-0.97656 0.97656z"/>
  <path d="m14.793 56.16 11.281 8.2578c-1.0586-3.9688-2.6992-6.5977-4.8945-7.8242-1.7109-0.96094-3.8516-1.1055-6.3828-0.42969zm12.797 11.551c-0.20312 0-0.40625-0.0625-0.57812-0.1875l-14.906-10.914c-0.28906-0.21094-0.44141-0.5625-0.39453-0.91797 0.046874-0.35547 0.28516-0.65234 0.61719-0.78125 3.8789-1.4922 7.1758-1.5 9.8008-0.027344 3.1562 1.7695 5.3164 5.6953 6.4141 11.672 0.074219 0.39453-0.10156 0.79297-0.44141 1.0039-0.16016 0.097656-0.33984 0.14844-0.51953 0.14844z"/>
  <path d="m23.027 57.695c-0.37109 0.003907-0.72656-0.21094-0.89062-0.57031l-4.0469-8.8867c-0.16016-0.34766-0.10156-0.75781 0.15234-1.043 0.25-0.28906 0.64844-0.40625 1.0117-0.29687 3.3633 0.99609 5.9297 2.6523 7.625 4.9258 0.32031 0.42969 0.23438 1.043-0.19922 1.3633-0.42969 0.32422-1.043 0.23438-1.3672-0.19922-1.0664-1.4336-2.5703-2.582-4.4805-3.4375l3.082 6.7617c0.22266 0.49219 0.003907 1.0703-0.48437 1.293-0.12891 0.0625-0.26953 0.085937-0.40234 0.085937z"/>
  <path d="m22.09 18.199c-2.7266 0-4.9453 2.2188-4.9453 4.9453 0 2.7266 2.2188 4.9453 4.9453 4.9453 2.7266 0 4.9453-2.2188 4.9453-4.9453 0-2.7266-2.2188-4.9453-4.9453-4.9453zm0 11.84c-3.8008 0-6.8984-3.0938-6.8984-6.8984 0-3.8008 3.0938-6.8984 6.8984-6.8984 3.8047 0 6.8984 3.0938 6.8984 6.8984 0 3.8008-3.0938 6.8984-6.8984 6.8984z"/>
  <path d="m22.09 14.738c-0.53906 0-0.97656-0.4375-0.97656-0.97656v-1.8789c0-0.53906 0.4375-0.97656 0.97656-0.97656 0.53906 0 0.97656 0.4375 0.97656 0.97656v1.8789c0 0.53906-0.4375 0.97656-0.97656 0.97656z"/>
  <path d="m40.23 37.445c-0.44922 0-0.84375-0.30859-0.94922-0.75-0.33203-1.3711-1.2266-2.1992-2.8203-2.6094-0.52344-0.13281-0.83594-0.66797-0.70313-1.1875 0.13281-0.52344 0.66406-0.83984 1.1875-0.70313 1.4258 0.36719 2.5312 1.0547 3.2812 2.0234 0.75-0.96875 1.8555-1.6562 3.2852-2.0234 0.52344-0.13281 1.0547 0.17969 1.1875 0.70313 0.13672 0.52344-0.17969 1.0547-0.70312 1.1914-1.5938 0.41016-2.4922 1.2383-2.8203 2.6094-0.10547 0.4375-0.5 0.75-0.94922 0.75z"/>
  <path d="m29.324 42.766c-0.45312 0-0.84375-0.30859-0.94922-0.74609-0.32812-1.3711-1.2266-2.1992-2.8203-2.6094-0.52344-0.13281-0.83594-0.66406-0.70313-1.1875 0.13672-0.52344 0.66406-0.83594 1.1875-0.70312 1.4258 0.36719 2.5312 1.0547 3.2852 2.0234 0.75-0.96875 1.8555-1.6562 3.2812-2.0234 0.52344-0.13281 1.0547 0.17969 1.1914 0.70312 0.13672 0.52344-0.17969 1.0547-0.70312 1.1875-1.5938 0.41016-2.4883 1.2383-2.8203 2.6094-0.10547 0.4375-0.49609 0.74609-0.94531 0.74609z"/>
  <path d="m28.727 17.488c-0.25 0-0.5-0.09375-0.69141-0.28516-0.37891-0.38281-0.37891-1 0-1.3828l1.3281-1.3281c0.38281-0.37891 1-0.37891 1.3789 0 0.38281 0.38281 0.38281 1 0 1.3828l-1.3281 1.3281c-0.19141 0.19141-0.44141 0.28516-0.6875 0.28516z"/>
  <path d="m33.352 24.121h-1.8789c-0.53906 0-0.97656-0.4375-0.97656-0.97656 0-0.53906 0.4375-0.97656 0.97656-0.97656h1.8789c0.53906 0 0.97656 0.4375 0.97656 0.97656 0 0.53906-0.4375 0.97656-0.97656 0.97656z"/>
  <path d="m30.055 32.082c-0.25 0-0.5-0.09375-0.69141-0.28516l-1.3281-1.3281c-0.38281-0.38281-0.38281-1 0-1.3828 0.38281-0.37891 1-0.37891 1.3828 0l1.3281 1.3281c0.38281 0.37891 0.38281 1 0 1.3828-0.19141 0.19141-0.44141 0.28516-0.69141 0.28516z"/>
  <path d="m14.129 32.082c-0.25 0-0.5-0.09375-0.69141-0.28516-0.38281-0.38281-0.38281-1 0-1.3828l1.3281-1.3281c0.38281-0.37891 1-0.37891 1.3828 0 0.38281 0.37891 0.38281 1 0 1.3828l-1.3281 1.3281c-0.1875 0.19141-0.44141 0.28516-0.6875 0.28516z"/>
  <path d="m12.711 24.121h-1.8789c-0.53906 0-0.97656-0.4375-0.97656-0.97656 0-0.53906 0.4375-0.97656 0.97656-0.97656h1.8789c0.54297 0 0.97656 0.4375 0.97656 0.97656 0 0.53906-0.43359 0.97656-0.97656 0.97656z"/>
  <path d="m15.457 17.488c-0.25 0-0.5-0.09375-0.69141-0.28516l-1.3281-1.3281c-0.38281-0.37891-0.38281-1-0.003906-1.3828 0.38281-0.37891 1-0.37891 1.3828 0l1.3281 1.3281c0.38281 0.38281 0.38281 1 0 1.3828-0.1875 0.19141-0.4375 0.28516-0.6875 0.28516z"/>
  <path d="m22.09 35.379c-0.53906 0-0.97656-0.4375-0.97656-0.97656v-1.8789c0-0.53906 0.4375-0.97656 0.97656-0.97656 0.53906 0 0.97656 0.4375 0.97656 0.97656v1.8789c0 0.53906-0.4375 0.97656-0.97656 0.97656z"/>
  <path d="m80.508 15.312c0.125 0 0.25 0.023438 0.37109 0.074219l0.6875 0.28516-0.058594-0.74219c-0.019531-0.25781 0.0625-0.51172 0.23047-0.70703l0.48047-0.56641-0.72266-0.17188c-0.25-0.0625-0.46875-0.21875-0.60547-0.4375l-0.38672-0.63281-0.39062 0.63281c-0.13281 0.21875-0.35156 0.37891-0.60156 0.44141l-0.72266 0.17188 0.48438 0.56641c0.16797 0.19531 0.25 0.45313 0.23047 0.70703l-0.058594 0.74219 0.6875-0.28516c0.11719-0.046875 0.24219-0.074219 0.37109-0.074219zm2.1562 2.8438c-0.125 0-0.25391-0.023438-0.37109-0.074219l-1.7852-0.73828-1.7852 0.73828c-0.3125 0.12891-0.67578 0.085938-0.94922-0.11328-0.27344-0.19922-0.42578-0.52734-0.39844-0.86328l0.14844-1.9258-1.25-1.4727c-0.21875-0.25781-0.28906-0.61328-0.18359-0.93359 0.10547-0.32422 0.36719-0.56641 0.69922-0.64844l1.875-0.45312 1.0117-1.6445c0.17578-0.28906 0.49219-0.46484 0.83203-0.46484 0.33984 0 0.65234 0.17578 0.83203 0.46484l1.0117 1.6445 1.875 0.45312c0.32813 0.082031 0.59375 0.32422 0.69922 0.64844 0.10547 0.32031 0.035157 0.67578-0.18359 0.93359l-1.2539 1.4727 0.15234 1.9258c0.027344 0.33594-0.125 0.66406-0.40234 0.86328-0.16797 0.125-0.37109 0.1875-0.57422 0.1875z"/>
  <path d="m67.434 13.652 0.48438 0.56641c0.16797 0.19531 0.25 0.45312 0.23047 0.70703l-0.054688 0.74219 0.6875-0.28516c0.23828-0.097656 0.50781-0.097656 0.74609 0l0.6875 0.28516-0.058594-0.74219c-0.019531-0.25781 0.0625-0.51172 0.23047-0.70703l0.48438-0.56641-0.72266-0.17188c-0.25-0.0625-0.46875-0.21875-0.60156-0.4375l-0.39062-0.63281-0.39062 0.63281c-0.13672 0.21875-0.35156 0.37891-0.60547 0.44141l-0.72266 0.17188zm-0.44141 4.5039c-0.20313 0-0.40625-0.0625-0.57422-0.1875-0.27344-0.19922-0.42578-0.52734-0.40234-0.86328l0.15234-1.9258-1.2539-1.4727c-0.21875-0.25781-0.28906-0.61328-0.18359-0.93359 0.10547-0.32422 0.37109-0.56641 0.69922-0.64844l1.8789-0.45312 1.0117-1.6445c0.17969-0.28906 0.49219-0.46484 0.83203-0.46484s0.65625 0.17578 0.83203 0.46484l1.0117 1.6445 1.8789 0.45312c0.32812 0.082031 0.59375 0.32422 0.69922 0.64844 0.10547 0.32031 0.035156 0.67578-0.1875 0.93359l-1.25 1.4727 0.14844 1.9258c0.027344 0.33594-0.125 0.66406-0.39844 0.86328-0.27344 0.19922-0.63281 0.24219-0.94922 0.11328l-1.7852-0.73828-1.7852 0.73828c-0.12109 0.046875-0.24609 0.074219-0.37109 0.074219z"/>
  <path d="m56.078 13.652 0.48438 0.56641c0.16797 0.19531 0.25 0.45312 0.23047 0.70703l-0.058594 0.74219 0.6875-0.28516c0.23828-0.097656 0.50391-0.097656 0.74219 0l0.6875 0.28516-0.058593-0.74219c-0.019531-0.25781 0.0625-0.51172 0.23047-0.70703l0.48437-0.56641-0.72266-0.17188c-0.25391-0.0625-0.46875-0.21875-0.60547-0.4375l-0.38672-0.63281-0.39062 0.63281c-0.13281 0.21875-0.35156 0.37891-0.60156 0.44141l-0.72266 0.17188zm-0.44141 4.5039c-0.20312 0-0.40625-0.0625-0.57812-0.1875-0.27344-0.19922-0.42578-0.52734-0.39844-0.86328l0.14844-1.9258-1.25-1.4727c-0.21875-0.25781-0.29297-0.61328-0.1875-0.93359 0.10547-0.32422 0.36719-0.56641 0.69922-0.64844l1.875-0.45312 1.0117-1.6445c0.17578-0.28906 0.49219-0.46484 0.83203-0.46484 0.33984 0 0.65625 0.17578 0.83203 0.46484l1.0117 1.6445 1.875 0.45312c0.32813 0.082031 0.59766 0.32422 0.69922 0.64844 0.10547 0.32031 0.035157 0.67578-0.18359 0.93359l-1.2539 1.4727 0.14844 1.9258c0.027343 0.33594-0.125 0.66406-0.40234 0.86328-0.27344 0.19922-0.63281 0.24219-0.94531 0.11328l-1.7852-0.73828-1.7852 0.73828c-0.12109 0.046875-0.25 0.074219-0.37109 0.074219z"/>
 </g></svg>