<svg xmlns="http://www.w3.org/2000/svg" version="1.1" viewBox="-5.0 -10.0 110.0 135.0">
 <g>
  <path d="m83.465 89.48c-0.089844-0.011719-0.18359-0.019531-0.27734-0.027344-0.37891-0.03125-0.76172-0.046875-1.1484-0.042969-0.078124 0-0.15625 0.003906-0.23437 0.007813-0.40625 0.011719-0.80859 0.039062-1.1953 0.09375-0.046875 0.007812-0.089844 0.015625-0.13281 0.019531-0.41406 0.0625-0.8125 0.14062-1.1758 0.24609-0.45312 0.125-0.83984 0.27344-1.168 0.44922-0.28906 0.15625-0.63672 0.16016-0.92969 0.011719-0.375-0.19141-0.76953-0.34766-1.168-0.45703-1.7266-0.50781-4.1016-0.5-5.793-0.003906-0.57813 0.16406-1.0742 0.37891-1.4453 0.61719-0.089844 0.058594-0.1875 0.097657-0.28906 0.125-0.035156 0.007813-0.070312 0.007813-0.10156 0.015625-0.050781 0.007813-0.10156 0.023438-0.15234 0.023438-0.015625 0-0.027344-0.007813-0.039062-0.007813-0.082032-0.003906-0.15625-0.023437-0.23438-0.046875-0.035157-0.011718-0.074219-0.015625-0.10938-0.027344-0.10938-0.046874-0.21484-0.10937-0.30859-0.19922-0.19922-0.19531-0.49609-0.38672-0.85938-0.55469-1.1719-0.57422-2.8516-0.89453-4.6172-0.89453-1.7656 0-3.4531 0.32422-4.6094 0.89062-0.15625 0.070312-0.27344 0.12891-0.37891 0.20312-0.27734 0.19141-0.62891 0.23047-0.94141 0.10547-0.21875-0.085938-0.45312-0.17578-0.70312-0.24219-1.6758-0.50781-3.9492-0.5-5.5508-0.007812-0.29688 0.085937-0.56641 0.19141-0.8125 0.30469-0.027344 0.011719-0.046875 0.027344-0.070313 0.039063v2.7812h35.629v-3.2266c-0.03125-0.007812-0.058594-0.015625-0.089844-0.023437-0.34375-0.074219-0.70703-0.13281-1.0859-0.17188z"/>
  <path d="m43.961 86.363v6.5391h3.0508v-6.7305h-3.0508z"/>
  <path d="m49.012 87.957c0.10156-0.035156 0.20312-0.066406 0.3125-0.097656 1.9492-0.59766 4.6797-0.60156 6.6797 0.003906 0.14453 0.039063 0.28906 0.085938 0.42969 0.13672 0.0625-0.03125 0.12891-0.0625 0.19531-0.09375 1.4062-0.6875 3.3555-1.0742 5.4531-1.0742 2.0977 0 4.0352 0.38672 5.4805 1.0938 0.28516 0.13281 0.54688 0.28125 0.78516 0.4375 0.40234-0.19531 0.85156-0.36328 1.3438-0.50391 2.0312-0.59766 4.8438-0.60156 6.8945 0.003906 0.35937 0.097657 0.71875 0.22656 1.0742 0.38281 0.33984-0.14844 0.71094-0.27734 1.1016-0.38672 0.38281-0.11328 0.79688-0.19531 1.2227-0.26562 0.089844-0.015625 0.17188-0.03125 0.26172-0.042969 0.39844-0.054687 0.80859-0.09375 1.2227-0.11328 0.13281-0.007812 0.26172-0.007812 0.39844-0.011719 0.38281-0.007812 0.76172-0.007812 1.1406 0.015625 0.14063 0.007813 0.27344 0.023438 0.41016 0.035156 0.34375 0.03125 0.67969 0.070313 1.0078 0.12891 0.070313 0.011719 0.14844 0.015625 0.21875 0.027343v-1.4531l-35.633-0.007813z"/>
  <path d="m91.68 92.902h3.3203v-1.75c0-0.32031-0.64453-0.96094-2.082-1.3672-0.38672-0.11328-0.80078-0.20312-1.2383-0.26953z"/>
  <path d="m86.641 88.82v4.082h3.0391v-6.7305h-3.0391z"/>
  <path d="m18.359 64.391c0.44141 0 0.875 0.019531 1.3086 0.039063 0.03125 0 0.0625 0 0.09375 0.003906 0.36719 0.019531 0.72656 0.050781 1.0859 0.085937 0.18359 0.015625 0.37109 0.03125 0.55078 0.050781 0.066406 0.007813 0.13281 0.011719 0.19922 0.019532v-7.7734h-3.9102v7.5898c0.22266-0.007812 0.44531-0.007812 0.67188-0.007812z"/>
  <path d="m5.0391 73.641v10.848c0.45313-0.38281 0.97266-0.72656 1.5508-1.0352 0.050781-0.027344 0.10156-0.054687 0.15234-0.078125 0.23437-0.12109 0.48047-0.23828 0.73437-0.34375 0.0625-0.027344 0.125-0.054688 0.1875-0.082031 0.29688-0.12109 0.60547-0.23438 0.92188-0.33984 0.011718-0.003906 0.019531-0.007813 0.027343-0.011719 0.32812-0.10547 0.66797-0.19531 1.0156-0.28125 0.085938-0.019531 0.17578-0.035156 0.26172-0.054687 0.25781-0.054688 0.51953-0.10547 0.78906-0.15234 0.11719-0.019531 0.23828-0.035156 0.35937-0.054687 0.25781-0.035157 0.51563-0.0625 0.77734-0.089844 0.11328-0.011719 0.22656-0.023438 0.34375-0.03125 0.375-0.027344 0.75391-0.042969 1.1406-0.042969 4.168 0 7.7969 1.5039 9.4141 3.8164 1.1836-0.39844 2.5117-0.60938 3.8945-0.60938 2.9805 0 5.5898 0.94922 6.9609 2.4766 0.14844-0.16406 0.31641-0.32031 0.49219-0.47266 0.054688-0.046874 0.10938-0.089843 0.16406-0.13281 0.13281-0.10547 0.26953-0.20703 0.41797-0.30469 0.066407-0.046874 0.13672-0.089843 0.20312-0.13281 0.16016-0.097656 0.32812-0.19141 0.5-0.28125 0.058594-0.03125 0.11328-0.0625 0.17188-0.09375 0.23438-0.11328 0.47656-0.21875 0.73047-0.31641 0.054688-0.023438 0.11719-0.039063 0.17188-0.058594 0.20312-0.074219 0.41016-0.14062 0.625-0.20312 0.09375-0.027344 0.1875-0.050781 0.28125-0.074219 0.19141-0.050781 0.39062-0.097656 0.58984-0.13672 0.09375-0.019532 0.19141-0.039063 0.28516-0.058594 0.050781-0.007813 0.097656-0.019532 0.14453-0.027344-0.14844-0.11328-0.28516-0.23438-0.41797-0.36719-0.027344-0.027343-0.050782-0.054687-0.074219-0.078124-0.16406-0.17188-0.31641-0.35156-0.45312-0.54688-0.011719-0.019531-0.027344-0.035156-0.039063-0.050781-0.13672-0.20312-0.25391-0.42188-0.35156-0.64844-0.019531-0.042969-0.039063-0.085938-0.058594-0.12891-0.09375-0.22656-0.16406-0.46094-0.21875-0.70313-0.007813-0.042968-0.015625-0.085937-0.023437-0.12891-0.046876-0.25781-0.078126-0.51953-0.078126-0.78906 0-0.28906 0.027344-0.57812 0.085938-0.85547 0.015625-0.085937 0.054688-0.16406 0.074219-0.25 0.050781-0.1875 0.09375-0.37891 0.17188-0.55859 0.035156-0.085937 0.089844-0.16406 0.13281-0.24609 0.082032-0.16797 0.16016-0.33984 0.26562-0.49609 0.050781-0.070313 0.11328-0.13281 0.16797-0.20312 0.11719-0.15625 0.23438-0.3125 0.375-0.45312l0.003906-0.003906v-0.003907c0.59766-0.60938 1.3633-1.0195 2.1953-1.1836 0.27734-0.054688 0.5625-0.085938 0.85547-0.085938h2.1211v-4.8281h-5.4492c-0.55469 0-1-0.44922-1-1v-2.3984c-1.8711 0.17187-3.3008 1.0742-4.0195 1.8906-0.20312 0.23438-0.49219 0.35547-0.82031 0.33594-0.3125-0.019531-0.59375-0.1875-0.76562-0.44531-1.3594-2.0508-4.5742-3.6719-8.5977-4.3359-0.41797-0.070312-0.84766-0.12891-1.2773-0.17578-0.035156-0.003907-0.070313-0.011719-0.10547-0.015625-0.12109-0.011719-0.24609-0.015625-0.36719-0.027344-1.293-0.11719-2.6328-0.14062-3.9414-0.070312-6.582 0.41406-11.742 3.3477-11.742 6.6719 0 0.12109 0.003906 0.24219 0.023437 0.35547 0.011719 0.058594 0.015625 0.11719 0.015625 0.17578z"/>
  <path d="m41.547 87.168c-0.36328-0.03125-0.72656-0.050781-1.0703-0.054688h-0.003906c-0.082031 0-0.16406 0-0.24609 0.007813-0.36719 0.011718-0.72266 0.035156-1.0586 0.078125-2.3555 0.28125-3.8984 1.2461-4.3984 2.1211-0.17969 0.3125-0.51172 0.50391-0.86719 0.50391h-0.66016c-0.35938 0-0.6875-0.19141-0.86719-0.50391-0.62891-1.0977-2.8125-2.207-5.7617-2.207-1.4258 0-2.8164 0.26953-3.9219 0.76172-0.50391 0.22266-1.0898 0-1.3164-0.49609-0.92188-2.0156-4.3164-3.4766-8.0703-3.4766-4.2188 0-7.9297 1.8633-8.2695 4.1562-0.011718 0.21875-0.023437 2.7812-0.027344 4.8438h36.953v-5.6797c-0.10156-0.011718-0.19922-0.035156-0.30469-0.046875-0.035156-0.003906-0.070312-0.007812-0.10938-0.011719z"/>
  <path d="m48.84 26.316c0.35156 0.14844 0.58984 0.48438 0.60938 0.86328 0.023437 0.38281-0.17578 0.74219-0.50781 0.92969-1.6719 0.94531-2.7109 2.7344-2.7109 4.668 0 2.9062 2.3711 5.3242 5.2812 5.3906 0.53125 0.011719 0.96094 0.4375 0.97656 0.97266 0.085938 2.9531 2.4727 5.2695 5.4375 5.2695 1.293 0 2.5508-0.46875 3.5391-1.3203 0.21094-0.17969 0.48438-0.26562 0.76953-0.23438 0.0625 0.007812 0.125 0.019531 0.18359 0.039062 0-0.050781-0.003907-0.097656-0.003907-0.14844-0.007812-0.24609-0.023437-0.49219-0.046874-0.73828-0.007813-0.074218-0.011719-0.14453-0.023438-0.21875-0.039062-0.30469-0.09375-0.60937-0.16016-0.91016-0.015625-0.066406-0.035156-0.13281-0.050782-0.19922-0.0625-0.24219-0.13281-0.48438-0.21094-0.72266-0.027344-0.085937-0.054687-0.16797-0.085937-0.25-0.10938-0.29688-0.22656-0.58984-0.36328-0.87109-0.23828-0.47656-0.51953-0.9375-0.84375-1.3945l-4.3398-6.0273c-0.09375-0.13281-0.17187-0.26953-0.23437-0.41016-0.29688-0.65234-0.28906-1.3906-0.019532-2.0312 0.14062-0.33203 0.34766-0.64062 0.62891-0.89844 0.027344-0.027344 0.058594-0.050781 0.089844-0.070313 0.35547-0.25391 0.71484-0.42188 1.0625-0.50391 0.070313-0.023438 0.13672-0.039062 0.20312-0.042969 0.078125-0.011719 0.15625-0.015625 0.23047-0.019531 0.0625-0.007812 0.16406-0.007812 0.22266-0.003906 0.21094 0.015625 0.48828 0.042968 0.77734 0.16016 0.003906 0 0.003906 0.003906 0.007812 0.003906 0.066407 0.023438 0.13281 0.054688 0.17188 0.074219 0.039062 0.019531 0.10547 0.058594 0.14453 0.085937 0.007812 0.003907 0.57422 0.41797 0.85938 0.76563l0.003906-0.003907c0.023438 0.03125 1.8906 2.3359 3.3516 4.0234v-11.938c0-0.039063 0-0.11328 0.011719-0.19922 0.003907-0.046875 0.007813-0.097656 0.019531-0.16016 0.003907-0.03125 0.023438-0.058594 0.027344-0.089844 0.003906-0.019531 0.003906-0.035156 0.011719-0.054688 0.015625-0.09375 0.070313-0.27344 0.14062-0.44922v-0.003906c0.003906-0.011719 0.003906-0.023438 0.011719-0.03125 0.003906-0.011719 0.015625-0.023438 0.019531-0.035157 0.003906-0.007812 0.007812-0.015625 0.011719-0.023437 0.070312-0.13672 0.14062-0.26562 0.22266-0.38281 0.003906-0.003906 0.007813-0.007812 0.007813-0.011719 0.007812-0.007812 0.007812-0.015624 0.011718-0.023437 0.046875-0.070313 0.097656-0.14062 0.14453-0.1875l0.12891-0.12891c0.003906-0.007813 0.011718-0.011719 0.019531-0.015625 0.058594-0.070313 0.12891-0.13672 0.20703-0.19141 0.003906-0.003907 0.023438-0.019532 0.054688-0.042969 0.050781-0.039063 0.10156-0.078125 0.14453-0.10547 0.035156-0.023438 0.066406-0.042969 0.10547-0.0625 0.0625-0.03125 0.125-0.0625 0.20312-0.09375l0.046875-0.027344c0.23438-0.097656 0.37891-0.13281 0.54297-0.16797 0.78906-0.12109 1.5352 0.089843 2.1016 0.57031 0.5625 0.48047 0.88281 1.1797 0.88281 1.918v11.945c1.4336-1.6602 3.2578-3.918 3.3516-4.0352 0.0625-0.097656 0.13672-0.1875 0.21484-0.26953 0.007812-0.007813 0.011718-0.011719 0.019531-0.019532l0.003906-0.003906c0.050781-0.054687 0.10547-0.10156 0.15625-0.14844 0.003907-0.003907 0.007813-0.011719 0.011719-0.015625 0.007812-0.007813 0.015625-0.011719 0.019531-0.015625 0.011719-0.007813 0.019531-0.019531 0.03125-0.027344 0.089844-0.085937 0.20312-0.16797 0.33594-0.24609 0.13281-0.074219 0.27734-0.14453 0.42969-0.19922 0.37891-0.13281 0.81641-0.17187 1.2305-0.11719 0.14062 0.011719 0.32812 0.058594 0.53125 0.13281 0.10547 0.042968 0.20703 0.085937 0.3125 0.14453 0.089844 0.042969 0.17969 0.09375 0.26172 0.15625 0.074218 0.046875 0.15625 0.12109 0.23438 0.20312 0.011719 0.011718 0.023437 0.015625 0.035156 0.027344 0.18359 0.17578 0.32422 0.37109 0.44531 0.57812 0.47656 0.82813 0.46484 1.8633-0.10156 2.6914l-4.3711 6.0664c-0.32031 0.44922-0.58984 0.90234-0.82031 1.3789-0.83594 1.6875-1.1445 3.5547-0.89844 5.4062 0.019531 0.14062 0.042969 0.26562 0.070313 0.39453l0.12109 0.64453c1.1758-0.48828 2.1992-1.3398 2.8945-2.4258 0.17188-0.26562 0.45312-0.4375 0.76953-0.45703 0.32422-0.027343 0.62109 0.10156 0.82812 0.33984 0.92188 1.0586 2.2734 1.668 3.707 1.668 2.7461 0 4.9805-2.2383 4.9805-4.9883 0-0.89844-0.23828-1.7695-0.6875-2.5273-0.17188-0.28516-0.1875-0.64062-0.042969-0.94141 0.14453-0.30078 0.42969-0.51172 0.75781-0.55859 3.1211-0.45312 5.4727-3.1641 5.4727-6.3086 0-3.5195-2.8633-6.3789-6.3789-6.3789-0.21094 0-0.41016 0.007812-0.60156 0.027343-0.40234 0.03125-0.78516-0.17187-0.97656-0.52734-0.1875-0.35547-0.14453-0.79297 0.10938-1.1016 0.65234-0.79688 1.0117-1.8125 1.0117-2.8633 0-2.5469-2.0703-4.6211-4.6211-4.6211-1.0078 0-1.9648 0.32031-2.7695 0.92969-0.29297 0.21875-0.6875 0.26172-1.0156 0.11328-0.33594-0.15234-0.55859-0.47656-0.58203-0.83984-0.26562-3.7617-3.4297-6.7109-7.2031-6.7109-3.9844 0-7.2305 3.2383-7.2305 7.2188 0 0.074219-0.003906 0.14453 0.003907 0.21484 0.042969 0.4375-0.20312 0.85156-0.61328 1.0195-0.40234 0.16797-0.875 0.050781-1.1523-0.28906-1.3828-1.6758-3.3984-2.6367-5.5391-2.6367-3.9258 0-7.1211 3.1992-7.1211 7.1289 0 2.8711 1.707 5.4453 4.3477 6.5586z"/>
  <path d="m6.1836 54.809h26.922l-8.0938-9.3906c-0.25391-0.29688-0.3125-0.71484-0.15234-1.0703 0.16406-0.35547 0.51953-0.58203 0.91016-0.58203h5.9297l-7.4102-9.1719c-0.24219-0.30078-0.28906-0.71094-0.125-1.0586 0.16406-0.34766 0.51563-0.57031 0.90234-0.57031h4.6328l-6.7383-8.4609c-0.23828-0.30078-0.28516-0.71094-0.11719-1.0586 0.16406-0.34766 0.51562-0.56641 0.89844-0.56641h3.0352l-7.125-8.4609-7.125 8.4609h3.0312c0.38281 0 0.73438 0.21875 0.89844 0.56641 0.16797 0.34766 0.12109 0.75781-0.11719 1.0586l-6.7383 8.4609h4.6406c0.38672 0 0.73437 0.22266 0.90234 0.57031 0.16406 0.34766 0.11719 0.76172-0.125 1.0586l-7.4102 9.1719h5.9219c0.39062 0 0.74609 0.22656 0.91016 0.58203 0.16406 0.35547 0.10547 0.77344-0.15234 1.0703l-8.0938 9.3906z"/>
  <path d="m64.238 45.02c-0.003906 0.019531-0.003906 0.035157-0.007812 0.054688l-0.019531 0.10547c-0.003907 0.011718-0.003907 0.027343-0.007813 0.039062-1.0469 5.6211-2.582 10.934-3.3125 13.316h10.867c-0.66016-2.1641-1.9883-6.7422-3.0273-11.758l-0.33203-1.7578c-0.03125-0.16016-0.066407-0.33594-0.089844-0.51953-0.074219-0.5625-0.10547-1.1211-0.097656-1.6836 0.003906-0.14453 0.015624-0.28516 0.023437-0.42969 0.007813-0.13672 0.011719-0.27344 0.023437-0.40625 0.125-1.3906 0.50781-2.75 1.1367-4.0234 0.27344-0.57422 0.60156-1.1211 0.99219-1.668l4.3594-6.0547c0.070312-0.10156 0.097656-0.22656 0.078125-0.35156-0.015625-0.12109-0.078125-0.23828-0.17578-0.33203l-0.0625-0.050781c-0.027344-0.015625-0.058594-0.03125-0.085938-0.050781-0.027344-0.007813-0.066406-0.023438-0.066406-0.023438l-0.13281-0.015625c-0.058593 0-0.12109 0.011719-0.17969 0.03125-0.066406 0.03125-0.12109 0.058594-0.16406 0.09375-0.027343 0.03125-0.058593 0.066406-0.09375 0.097656-0.015625 0.023438-0.035156 0.050782-0.054687 0.070313-0.15625 0.19531-2.8516 3.5273-4.3125 5.1328l-0.35156 0.36328c-0.027343 0.027343-0.058593 0.054687-0.089843 0.078125-0.35156 0.36328-0.97656 0.98047-1.7148 0.54297-0.30078-0.17969-0.48438-0.50781-0.48438-0.85937v-14.371c0-0.21094-0.11328-0.33984-0.18359-0.39844-0.070313-0.0625-0.22656-0.15625-0.44922-0.12109 0.003906 0-0.03125 0.003907-0.070312 0.019532l-0.046875 0.027344c-0.046875 0.046874-0.085938 0.070312-0.12891 0.089843l-0.042968 0.042969c-0.015625 0.019531-0.027344 0.039062-0.042969 0.0625-0.027344 0.039062-0.046875 0.082031-0.066406 0.125 0.003906 0-0.015625 0.058594-0.03125 0.12891l-0.007813 0.054688v14.344c0 0.35156-0.18359 0.67969-0.48438 0.85938-0.73828 0.44141-1.3594-0.17969-1.6602-0.48047-0.027344-0.027344-0.054687-0.054688-0.074219-0.085938-0.03125-0.027343-0.050781-0.039062-0.078125-0.070312-1.3125-1.3633-4.2617-4.9961-4.5781-5.3906-0.074218-0.070313-0.26172-0.23828-0.40625-0.35547-0.042968-0.011718-0.085937-0.019531-0.13281-0.023437-0.019532 0-0.039063 0.003906-0.058594 0.003906-0.011719 0.003906-0.019531 0.003906-0.027344 0.007813-0.027344 0.007812-0.066406 0.019531-0.11719 0.042968-0.054688 0.023438-0.12109 0.058594-0.20312 0.11328-0.10938 0.11719-0.14844 0.27344-0.12891 0.42578 0.011718 0.078125 0.035156 0.16016 0.082031 0.23047l4.3359 6.0234c0.38672 0.53906 0.72656 1.1016 1.0117 1.6758 1.0703 2.207 1.4141 4.7031 0.98047 7.0391-0.003906 0.011719-0.003906 0.019531-0.007813 0.03125z"/>
  <path d="m38.641 60.543v10.141h56.359v-10.141z"/>
  <path d="m87.762 72.684h0.80078v4.8281h-0.80078z"/>
  <path d="m45.09 72.684h0.78906v4.8281h-0.78906z"/>
  <path d="m47.879 72.684h37.879v4.8281h-37.879z"/>
  <path d="m92.672 79.512h-51.703c-0.62109 0-1.2031 0.24219-1.6367 0.67969-0.44922 0.44531-0.69141 1.0234-0.69141 1.6484 0 1.2852 1.0469 2.3281 2.3281 2.3281h51.699c0.62109 0 1.207-0.23828 1.6445-0.67578 0.44141-0.44141 0.6875-1.0312 0.6875-1.6523 0-1.2852-1.0469-2.3281-2.3281-2.3281z"/>
 </g></svg>