<svg xmlns="http://www.w3.org/2000/svg" xmlns:xlink="http://www.w3.org/1999/xlink" xmlns:serif="http://www.serif.com/" viewBox="0 0 2134 2667.5" version="1.1" xml:space="preserve" style="" x="0px" y="0px" fill-rule="evenodd" clip-rule="evenodd" stroke-linejoin="round" stroke-miterlimit="2"><path d="M2000,2008.33l-1866.67,0c-22.996,0 -41.666,-18.67 -41.666,-41.666c-0,-22.997 18.67,-41.667 41.666,-41.667l91.667,0l0,-758.333c-0,-23.012 18.655,-41.667 41.667,-41.667l225,0l-0,-225c-0,-23.012 18.654,-41.667 41.666,-41.667l26.683,0c20.081,-247.513 217.471,-444.903 464.984,-464.983l0,-226.683c-0,-23.005 18.663,-41.667 41.667,-41.667l195.438,-0c23.012,-0 41.667,18.655 41.667,41.667l0,133.333c0,23.012 -18.655,41.667 -41.667,41.667l-153.772,-0l0,51.683c247.514,20.08 444.904,217.47 464.984,464.983l26.683,0c23.012,0 41.667,18.655 41.667,41.667l-0,225l225,0c23.012,0 41.666,18.655 41.666,41.667l0,758.333l91.667,0c22.996,0 41.667,18.67 41.667,41.667c-0,22.996 -18.671,41.666 -41.667,41.666Zm-175,-83.333l0,-716.667c0,0 -89.492,0 -225,0l-1066.67,0c-135.507,0 -225,0 -225,0c0,158.729 0,716.667 0,716.667l583.334,0l-0,-291.675c-0,-46.411 18.436,-90.92 51.253,-123.738c32.818,-32.817 77.328,-51.254 123.738,-51.254l0.017,0c46.411,0 90.921,18.437 123.738,51.254c32.817,32.818 51.254,77.327 51.254,123.738l-0,291.675l583.333,-0Zm-850,0l183.333,-0l0,-291.675c0,-24.309 -9.656,-47.623 -26.846,-64.812c-17.189,-17.189 -40.503,-26.846 -64.812,-26.846l-0.017,-0c-24.309,-0 -47.623,9.657 -64.812,26.846c-17.189,17.189 -26.846,40.503 -26.846,64.812l-0,291.675Zm733.333,-491.667l0,266.667c0,23.012 -18.654,41.667 -41.666,41.667l-266.667,-0c-23.012,-0 -41.667,-18.655 -41.667,-41.667l0,-266.667c0,-23.012 18.655,-41.666 41.667,-41.666l266.667,-0c23.012,-0 41.666,18.654 41.666,41.666Zm-83.333,41.667l-183.333,0l-0,183.333l183.333,0l0,-183.333Zm-850,-41.667l0,266.667c0,23.012 -18.655,41.667 -41.667,41.667l-266.666,-0c-23.012,-0 -41.667,-18.655 -41.667,-41.667l0,-266.667c-0,-23.012 18.655,-41.666 41.667,-41.666l266.666,-0c23.012,-0 41.667,18.654 41.667,41.666Zm-83.333,41.667l-183.334,0l0,183.333l183.334,0l-0,-183.333Zm375,-1000c-220.663,-0 -402.047,168.168 -422.984,383.333l845.967,0c-20.937,-215.165 -202.321,-383.333 -422.983,-383.333Zm466.666,466.667l-958.333,-0l-0,183.333l983.333,0l0,-183.333l-25,-0Zm-425,-733.334l0,50c0,0 112.106,0 112.106,0l-0,-50c-0,0 -112.106,0 -112.106,0Z"/></svg>