<?xml version="1.0" encoding="UTF-8" standalone="no"?>
<svg
   data-name="Layer 1"
   viewBox="0 0 80 80"
   x="0px"
   y="0px"
   version="1.1"
   id="svg16"
   sodipodi:docname="noun-city-5579760.svg"
   inkscape:version="1.3 (0e150ed6c4, 2023-07-21)"
   width="80"
   height="80"
   xmlns:inkscape="http://www.inkscape.org/namespaces/inkscape"
   xmlns:sodipodi="http://sodipodi.sourceforge.net/DTD/sodipodi-0.dtd"
   xmlns="http://www.w3.org/2000/svg"
   xmlns:svg="http://www.w3.org/2000/svg">
  <defs
     id="defs16" />
  <sodipodi:namedview
     id="namedview16"
     pagecolor="#ffffff"
     bordercolor="#000000"
     borderopacity="0.25"
     inkscape:showpageshadow="2"
     inkscape:pageopacity="0.0"
     inkscape:pagecheckerboard="0"
     inkscape:deskcolor="#d1d1d1"
     showgrid="false"
     showguides="true"
     inkscape:zoom="14.2125"
     inkscape:cx="32.014072"
     inkscape:cy="41.688654"
     inkscape:window-width="2560"
     inkscape:window-height="1351"
     inkscape:window-x="3831"
     inkscape:window-y="1115"
     inkscape:window-maximized="1"
     inkscape:current-layer="svg16">
    <inkscape:grid
       id="grid16"
       units="px"
       originx="0"
       originy="0"
       spacingx="1"
       spacingy="1"
       empcolor="#0099e5"
       empopacity="0.30196078"
       color="#0099e5"
       opacity="0.14901961"
       empspacing="12"
       dotted="true"
       gridanglex="30"
       gridanglez="30"
       visible="false" />
  </sodipodi:namedview>
  <path
     d="m 46,40 c 0,-3.31 -2.69,-6 -6,-6 -3.31,0 -6,2.69 -6,6 0,3.31 2.69,6 6,6 3.31,0 6,-2.69 6,-6 z m -6,4 c -2.21,0 -4,-1.79 -4,-4 0,-2.21 1.79,-4 4,-4 2.21,0 4,1.79 4,4 0,2.21 -1.79,4 -4,4 z"
     id="path1" />
  <path
     d="M 71,42 H 49.54 c -0.44,0 -0.82,0.28 -0.95,0.7 -0.88,2.8 -3.08,5 -5.89,5.89 -0.42,0.13 -0.7,0.52 -0.7,0.95 V 71 h 2 V 50.25 C 46.86,49.13 49.13,46.86 50.25,44 H 71 Z"
     id="path2" />
  <path
     d="M 36,50.25 V 71 h 2 V 49.54 C 38,49.1 37.72,48.72 37.3,48.59 34.5,47.71 32.3,45.51 31.41,42.7 31.28,42.28 30.89,42 30.46,42 H 9 v 2 h 20.75 c 1.12,2.86 3.39,5.13 6.25,6.25 z"
     id="path3" />
  <path
     d="m 31.41,37.3 c 0.88,-2.8 3.08,-5 5.89,-5.89 0.42,-0.13 0.7,-0.52 0.7,-0.95 V 9 H 36 V 29.75 C 33.14,30.87 30.87,33.14 29.75,36 H 9 v 2 h 21.46 c 0.44,0 0.82,-0.28 0.95,-0.7 z"
     id="path4" />
  <path
     d="M 71,36 H 50.25 C 49.13,33.14 46.86,30.87 44,29.75 V 9 h -2 v 21.46 c 0,0.44 0.28,0.82 0.7,0.95 2.8,0.88 5,3.08 5.89,5.89 0.13,0.42 0.52,0.7 0.95,0.7 H 71 Z"
     id="path5" />
  <rect
     x="11.999999"
     y="39"
     width="3"
     height="2"
     id="rect5" />
  <rect
     x="22"
     y="39"
     width="3"
     height="2"
     id="rect6" />
  <rect
     x="55"
     y="39"
     width="3"
     height="2"
     id="rect7" />
  <rect
     x="65"
     y="39"
     width="3"
     height="2"
     id="rect8" />
  <rect
     x="39"
     y="12"
     width="2"
     height="3"
     id="rect9" />
  <rect
     x="39"
     y="22"
     width="2"
     height="3"
     id="rect10" />
  <rect
     x="39"
     y="55"
     width="2"
     height="3"
     id="rect11" />
  <rect
     x="39"
     y="65"
     width="2"
     height="3"
     id="rect12" />
  <path
     d="m 15,28 h 12 c 0.55,0 1,-0.45 1,-1 v -9 h 1 c 0.32,0 0.62,-0.15 0.81,-0.41 C 30,17.33 30.05,17 29.95,16.7 l -1.6,-5 C 28.22,11.29 27.83,11 27.4,11 H 14.6 c -0.43,0 -0.82,0.28 -0.95,0.7 l -1.6,5 c -0.1,0.3 -0.04,0.64 0.14,0.89 C 12.38,17.85 12.68,18 13,18 h 1 v 9 c 0,0.55 0.45,1 1,1 z m 7,-2 h -2 v -2 h 2 z m 4,0 h -2 v -3 c 0,-0.55 -0.45,-1 -1,-1 h -4 c -0.55,0 -1,0.45 -1,1 v 3 H 16 V 18 H 26 Z M 15.33,13 h 11.34 l 0.96,3 H 14.37 Z"
     id="path12" />
  <path
     d="m 27.5,69 v -4.04 c 1.03,-0.09 1.97,-0.53 2.63,-1.28 0.66,-0.75 0.96,-1.7 0.84,-2.66 -0.42,-3.38 -1.63,-6.57 -3.58,-9.48 L 27.33,51.45 C 27.15,51.17 26.83,51.01 26.5,51 v 0 c -0.33,0 -0.64,0.16 -0.83,0.44 l -0.07,0.1 c -0.72,1.07 -1.34,2.2 -1.86,3.36 -0.51,-1.15 -1.12,-2.28 -1.84,-3.34 l -0.06,-0.09 c -0.37,-0.58 -1.32,-0.58 -1.69,0 l -0.04,0.07 c -0.73,1.08 -1.34,2.22 -1.86,3.38 -0.52,-1.16 -1.13,-2.29 -1.85,-3.36 l -0.06,-0.09 c -0.18,-0.29 -0.5,-0.46 -0.84,-0.46 v 0 c -0.34,0 -0.66,0.18 -0.84,0.47 l -0.04,0.07 c -1.96,2.9 -3.16,6.09 -3.58,9.49 -0.12,0.97 0.18,1.91 0.84,2.66 0.66,0.74 1.6,1.18 2.63,1.28 v 4.04 h 2 v -4.04 c 0.63,-0.06 1.23,-0.24 1.75,-0.56 0.52,0.32 1.12,0.5 1.75,0.56 v 4.04 h 2 v -4.04 c 0.63,-0.06 1.24,-0.25 1.76,-0.57 0.52,0.31 1.11,0.51 1.74,0.56 v 4.04 h 2 z M 16.85,62.87 C 16.62,62.95 16.37,63 16.12,63 h -1.24 c -0.6,0 -1.15,-0.23 -1.51,-0.64 -0.28,-0.31 -0.4,-0.7 -0.36,-1.09 0.32,-2.6 1.16,-5.07 2.49,-7.38 0.72,1.25 1.29,2.55 1.71,3.89 -0.31,1.09 -0.55,2.18 -0.68,3.24 -0.08,0.64 0.05,1.28 0.33,1.85 z m 5.49,0 C 22.11,62.95 21.87,63 21.61,63 h -1.24 c -0.55,0 -1.07,-0.2 -1.43,-0.55 -0.2,-0.19 -0.51,-0.6 -0.44,-1.18 0.13,-1.06 0.36,-2.15 0.7,-3.24 0.42,-1.42 1.02,-2.81 1.79,-4.14 0.72,1.25 1.29,2.55 1.71,3.88 -0.31,1.07 -0.54,2.16 -0.68,3.25 -0.08,0.65 0.04,1.28 0.32,1.85 z m 2.02,-0.51 c -0.28,-0.32 -0.41,-0.7 -0.36,-1.09 0.32,-2.6 1.16,-5.08 2.49,-7.39 1.33,2.31 2.17,4.79 2.49,7.39 0.05,0.39 -0.08,0.77 -0.36,1.09 C 28.26,62.77 27.71,63 27.11,63 h -1.24 c -0.6,0 -1.15,-0.23 -1.51,-0.64 z"
     id="path13" />
  <path
     d="m 55,52 h -4 c -0.55,0 -1,0.45 -1,1 v 15 c 0,0.55 0.45,1 1,1 h 18 c 0.55,0 1,-0.45 1,-1 v -9 c 0,-0.55 -0.45,-1 -1,-1 H 67.5 L 64.8,54.4 C 64.54,54.06 64.09,53.91 63.68,54.05 63.27,54.19 63,54.57 63,55 v 3 H 62.5 L 59.8,54.4 C 59.54,54.06 59.09,53.91 58.68,54.05 58.27,54.19 58,54.57 58,55 v 3 h -2 v -5 c 0,-0.55 -0.45,-1 -1,-1 z m 4,8 c 0.55,0 1,-0.45 1,-1 v -1 l 1.2,1.6 c 0.19,0.25 0.49,0.4 0.8,0.4 h 2 c 0.55,0 1,-0.45 1,-1 v -1 l 1.2,1.6 c 0.19,0.25 0.49,0.4 0.8,0.4 h 1 v 7 H 52 V 54 h 2 v 5 c 0,0.55 0.45,1 1,1 z"
     id="path14" />
  <path
     d="m 60,51 h 4 v -2 h -4 c -1.65,0 -3,1.35 -3,3 h 2 c 0,-0.55 0.45,-1 1,-1 z"
     id="path15" />
  <rect
     x="57"
     y="63"
     width="9"
     height="2"
     id="rect15" />
  <path
     d="m 50,27 h 18 c 0.35,0 0.67,-0.18 0.85,-0.47 0.18,-0.29 0.2,-0.66 0.04,-0.97 l -6,-12 c -0.34,-0.68 -1.45,-0.68 -1.79,0 l -2.11,4.21 -2.11,-4.21 c -0.34,-0.68 -1.45,-0.68 -1.79,0 l -6,12 c -0.16,0.31 -0.14,0.68 0.04,0.97 0.18,0.29 0.5,0.47 0.85,0.47 z M 62,16.24 66.38,25 h -3.76 l -2.5,-5 z m -6,0 4.38,8.76 h -8.76 z"
     id="path16" />
</svg>
