<svg xmlns="http://www.w3.org/2000/svg" data-name="Layer 54" viewBox="0 0 50 62.5" x="0px" y="0px"><path d="m47.5517607,18.2734375c-.59277344-.34277344-1.30175781-.33789062-1.89257812.00683594l-5.04766846,2.95410156h-2.72869873v-.67285156c0-2.27148438-1.84765625-4.12011719-4.11914062-4.12011719h-.77349854c1.96368408-1.53143311,3.23345947-3.91265869,3.23345947-6.58984375,0-4.61132812-3.75097656-8.36230469-8.36230469-8.36230469-3.7711792,0-6.96429443,2.51098633-8.00286865,5.94842529-1.15777588-1.19830322-2.77758789-1.94744873-4.5713501-1.94744873-3.5078125,0-6.36132812,2.85351562-6.36132812,6.36132812,0,1.82055664.77282715,3.46032715,2.00262451,4.62097168-1.87976074.14215088-3.4083252,1.53515625-3.73730469,3.35754395H2.50000289c-.55273438,0-1,.44726562-1,1v2.91992188c0,.24414062.08886719.47949219.25097656.66210938l1.93945312,2.19628906v1.37695312c0,1.07714844.87695312,1.95410156,1.95410156,1.95410156h1.47265625v1.82397461l-2.06738281.36450195c-.26074219.04589844-.4921875.19824219-.64453125.41601562-.15234375.21679688-.2109375.49023438-.1640625.75195312.22558594,1.28125-.6328125,2.5078125-1.91503906,2.734375-.26074219.04589844-.49316406.19335938-.64550781.41113281-.15234375.21679688-.21191406.48535156-.16503906.74707031l1.37011719,7.77050781c.09570312.54394531.61328125.90917969,1.15820312.81054688.61621094-.10449219,1.24414062.03125,1.76171875.39355469.51757812.36328125.86328125.90332031.97265625,1.52148438.04589844.26074219.19335938.49316406.41113281.64550781.16894531.11816406.36914062.18066406.57324219.18066406.05761719,0,.11621094-.00488281.17382812-.015625l19.73535156-3.48046875c.26074219-.04589844.49316406-.19335938.64550781-.41113281.15234375-.21679688.21191406-.48535156.16503906-.74707031-.10839844-.61816406.03125-1.24316406.39355469-1.76171875.36328125-.51757812.90332031-.86328125,1.52148438-.97265625.26074219-.04589844.49316406-.19335938.64550781-.41113281.15234375-.21679688.21191406-.48535156.16503906-.74707031l-.25140381-1.42578125h2.80706787c2.27148438,0,4.11914062-1.84863281,4.11914062-4.12011719v-.67285156h2.72869873l5.04766846,2.95410156c.29785156.17382812.625.26074219.95214844.26074219.32324219,0,.64550781-.08398438.94042969-.25292969.59375-.34082031.94824219-.953125.94824219-1.63769531v-15.16015625c0-.68359375-.35449219-1.29589844-.94824219-1.63574219Zm-26.54693604-3.65014648c.48175049.69006348,1.0657959,1.30126953,1.72845459,1.81811523h-3.05273438c.54315186-.52001953.99157715-1.13500977,1.32427979-1.81811523Zm6.85650635-11.1340332c3.5078125,0,6.36230469,2.85449219,6.36230469,6.36230469s-2.85449219,6.36132812-6.36230469,6.36132812-6.36132812-2.85351562-6.36132812-6.36132812,2.85351562-6.36230469,6.36132812-6.36230469Zm-12.57421875,4.00097656c2.40527344,0,4.36230469,1.95605469,4.36230469,4.36132812s-1.95703125,4.36132812-4.36230469,4.36132812-4.36132812-1.95605469-4.36132812-4.36132812,1.95605469-4.36132812,4.36132812-4.36132812ZM5.69043258,27.98535156v-1.75585938c0-.24414062-.08886719-.47949219-.25097656-.66210938l-1.93945312-2.19628906v-1.54101562h3.6171875v6.12255859l-1.42675781.03271484Zm21.54785156,12.96289062c-.47363281.67480469-.74023438,1.45019531-.78515625,2.25097656l-11.59204102,2.04418945-.12182617-.68969727c-.015625-.09472656-.10449219-.15625-.20214844-.14160156-.09570312.01660156-.15917969.10742188-.14160156.20214844l.12182617.68981934-6.05639648,1.06799316c-.31640625-.73730469-.83300781-1.37402344-1.5078125-1.84667969-.67578125-.47363281-1.45117188-.74023438-2.25195312-.78515625l-1.0625-6.02734375c.73730469-.31640625,1.37402344-.83300781,1.84667969-1.5078125s.74023438-1.45019531.78320312-2.26171875l6.05700684-1.06787109.1217041.68994141c.01464844.08496094.08789062.14453125.171875.14453125.00976562,0,.02050781-.00097656.03027344-.00292969.09570312-.01660156.15917969-.10742188.14160156-.20214844l-.1217041-.69000244,11.5904541-2.043396c.6484375,1.51757812,2.11523438,2.54785156,3.76269531,2.64160156l1.0625,6.02734375c-.73730469.31542969-1.37402344.83203125-1.84667969,1.5078125Zm-3.31835938-12.18164062c-.01959229.0112915-.0302124.03057861-.04870605.04296875l-4.6348877.81713867v-6.11889648l6.89453125,3.98242188-2.2109375,1.27636719Zm11.96289062,5.65136719c0,1.16894531-.95019531,2.12011719-2.11914062,2.12011719h-3.15979004l-.76599121-4.34375c-.09570312-.54394531-.6171875-.91210938-1.15820312-.81054688-1.13635254.19592285-2.23510742-.46343994-2.62567139-1.53985596l1.26824951-.73260498c.5859375-.33886719.93652344-.94433594.93652344-1.62109375,0-.67773438-.35058594-1.28320312-.93652344-1.62207031l-7.27636719-4.20214844c-.5859375-.33789062-1.28710938-.33789062-1.87304688,0-.58691406.33886719-.93652344.9453125-.93652344,1.62207031v6.69128418l-8.11914062,1.43145752v-10.8493042c0-1.16894531.95019531-2.12011719,2.11914062-2.12011719h22.52734375c1.16894531,0,2.11914062.95117188,2.11914062,2.12011719v13.85644531Zm2-11.18359375h2v8.51074219h-2v-8.51074219Zm8.6171875,11.63964844l-4.6171875-2.70214844v-9.36425781l4.6171875-2.70214844v14.76855469ZM27.86133102,14.21289062c2.40527344,0,4.36230469-1.95605469,4.36230469-4.36132812s-1.95703125-4.36230469-4.36230469-4.36230469-4.36132812,1.95703125-4.36132812,4.36230469,1.95605469,4.36132812,4.36132812,4.36132812Zm0-6.72363281c1.30273438,0,2.36230469,1.05957031,2.36230469,2.36230469,0,1.30175781-1.05957031,2.36132812-2.36230469,2.36132812-1.30175781,0-2.36132812-1.05957031-2.36132812-2.36132812,0-1.30273438,1.05957031-2.36230469,2.36132812-2.36230469Zm-13.95996094,4.36230469c0-.76367188.62207031-1.38574219,1.38574219-1.38574219s1.38574219.62207031,1.38574219,1.38574219-.62207031,1.38574219-1.38574219,1.38574219-1.38574219-.62207031-1.38574219-1.38574219Zm.08886719,28.453125l.29980469,1.69921875c.01757812.09472656-.04589844.18554688-.14160156.20214844-.00976562.00195312-.02050781.00292969-.03027344.00292969-.08398438,0-.15722656-.05957031-.171875-.14453125l-.29980469-1.69921875c-.01757812-.09472656.04589844-.18554688.14160156-.20214844.09667969-.01757812.18652344.046875.20214844.14160156Zm-.74902344-4.25l.29980469,1.70019531c.01757812.09472656-.04589844.18554688-.14160156.20214844-.00976562.00195312-.02050781.00292969-.03027344.00292969-.08398438,0-.15722656-.05957031-.171875-.14453125l-.29980469-1.70019531c-.01757812-.09472656.04589844-.18554688.14160156-.20214844.09570312-.01953125.18554688.046875.20214844.14160156Zm3.26171875,1.4609375c-.4765625,0-.8984375-.34082031-.98339844-.82617188-.09667969-.54394531.26660156-1.0625.81054688-1.15820312l8.31738281-1.46679688c.54003906-.10253906,1.0625.26660156,1.15820312.81054688.09667969.54394531-.26660156,1.0625-.81054688,1.15820312l-8.31738281,1.46679688c-.05859375.01074219-.1171875.015625-.17480469.015625Zm4.22949219,2.31542969c.09667969.54394531-.26660156,1.0625-.81054688,1.15820312l-2.54980469.45019531c-.05859375.01074219-.1171875.015625-.17480469.015625-.4765625,0-.8984375-.34082031-.98339844-.82617188-.09667969-.54394531.26660156-1.0625.81054688-1.15820312l2.54980469-.45019531c.54296875-.1015625,1.0625.265625,1.15820312.81054688Zm5.76953125-1.0078125c.09082031.54492188-.27734375,1.06054688-.82128906,1.15136719l-2.50488281.41796875c-.05566406.00976562-.11132812.01367188-.16601562.01367188-.48046875,0-.90332031-.34667969-.98535156-.83496094-.09082031-.54492188.27734375-1.06054688.82128906-1.15136719l2.50488281-.41796875c.546875-.09375,1.05957031.27734375,1.15136719.82128906Zm-19.05175781.28808594c-.4765625,0-.8984375-.34082031-.98339844-.82617188-.09667969-.54394531.26660156-1.0625.81054688-1.15820312l2.55664062-.45019531c.54101562-.10253906,1.0625.26660156,1.15820312.81054688.09667969.54394531-.26660156,1.0625-.81054688,1.15820312l-2.55664062.45019531c-.05859375.01074219-.1171875.015625-.17480469.015625Zm4.23632812,2.31445312c.09667969.54394531-.26660156,1.0625-.81054688,1.15820312l-2.55664062.45117188c-.05859375.01074219-.1171875.015625-.17480469.015625-.4765625,0-.8984375-.34082031-.98339844-.82617188-.09667969-.54394531.26660156-1.0625.81054688-1.15820312l2.55664062-.45117188c.54394531-.10253906,1.0625.26660156,1.15820312.81054688Z" stroke-width="0"/></svg>