<svg xmlns="http://www.w3.org/2000/svg" version="1.1" viewBox="-5.0 -10.0 110.0 135.0">
 <path d="m68.207 63.629c0-3.875-3.1523-7.0273-7.0273-7.0273s-7.0273 3.1523-7.0273 7.0273 3.1523 7.0273 7.0273 7.0273 7.0273-3.1523 7.0273-7.0273zm2.543 0c0 5.2773-4.293 9.5703-9.5703 9.5703-5.2773 0-9.5703-4.293-9.5703-9.5703s4.293-9.5703 9.5703-9.5703c5.2773 0 9.5703 4.293 9.5703 9.5703zm5.7266 0.69922c0.25 8.9453-4.9648 14.336-11.004 20.582-1.3008 1.3438-2.6484 2.7383-3.957 4.1914-0.15234 0.17188-0.24609 0.25781-0.30078 0.30078-0.046875-0.035156-0.12891-0.11328-0.25781-0.26953-1.4219-1.6953-2.9453-3.332-4.418-4.9141-5.6211-6.0547-10.938-11.77-10.555-20.195 0.14844-3.2617 1.1875-6.2578 2.8633-8.7266 0.0625-0.070313 0.11719-0.14844 0.16406-0.23438 2.7891-3.957 7.2305-6.5 12.219-6.5 4.4297 0 8.3984 1.9688 11.18 5.1445 0.085938 0.16016 0.20312 0.29688 0.34375 0.40625 2.2305 2.7344 3.6133 6.2852 3.7227 10.215zm-31.445 8.4844c-1.1172-2.6719-1.7383-5.6016-1.5898-8.9062 0.16406-3.668 1.3164-7.043 3.1719-9.8477v-7.0039l-23.098-13.336v26.672zm-7.5391-48.633v6.0664h-2.3672c-0.70312 0-1.2734 0.57031-1.2734 1.2734s0.57031 1.2734 1.2734 1.2734h25.512c0.70312 0 1.2734-0.57031 1.2734-1.2734s-0.57031-1.2734-1.2734-1.2734h-2.3672v-6.0664l12.707 7.3359-23.09 13.336-23.102-13.336zm2.543-12.926v18.988h15.695l0.003906-18.988c0-0.36719-0.30859-0.67578-0.67578-0.67578h-14.344c-0.36719 0-0.67969 0.30859-0.67969 0.67578zm32.223 38.809v-16.344l-23.102 13.336v3.9297c3.1758-3.0859 7.418-4.9648 12.066-4.9648 4.0508 0 7.9023 1.4258 11.035 4.043zm-4.957 36.613c-1.2852 1.3281-2.6172 2.7031-3.8945 4.125-0.36719 0.40625-1.0508 1.1641-2.1836 1.1641-1.2031 0-1.9375-0.87109-2.2109-1.1992-1.3828-1.6445-2.8828-3.2578-4.332-4.8164-2.6289-2.8242-5.293-5.6953-7.375-8.8906-0.019532-0.011719-0.039063-0.019532-0.058594-0.027344l-25.641-14.805c-0.39453-0.22656-0.63672-0.64844-0.63672-1.1016v-29.609-0.011719c0-0.050781 0.003906-0.10547 0.011719-0.15625v-0.007812c0.007812-0.046875 0.015625-0.09375 0.027343-0.14062 0.003907-0.011719 0.007813-0.023438 0.011719-0.039063 0.011719-0.039062 0.023438-0.074218 0.039063-0.10938 0.003906-0.011719 0.007812-0.023437 0.015625-0.035156 0.019531-0.046875 0.042969-0.089844 0.066406-0.13672 0.027344-0.042968 0.054687-0.085937 0.085937-0.125 0.007813-0.011718 0.015626-0.019531 0.023438-0.03125 0.023438-0.03125 0.050781-0.0625 0.078125-0.089844 0.007813-0.007812 0.015625-0.019531 0.027344-0.027343 0.035156-0.035157 0.070312-0.066407 0.10938-0.097657l0.003906-0.003906c0.042969-0.03125 0.085938-0.0625 0.13281-0.089844 0.003907 0 0.003907-0.003906 0.007813-0.003906l15.887-9.1719v-9.9883c0-1.7734 1.4453-3.2188 3.2188-3.2188h14.344c1.7734 0 3.2188 1.4453 3.2188 3.2188v9.9883l15.887 9.1719c0.003907 0 0.003907 0.003906 0.007813 0.007813 0.046875 0.027343 0.089844 0.054687 0.12891 0.085937 0.003907 0 0.003907 0.003906 0.007813 0.003906 0.039062 0.027344 0.074218 0.0625 0.10547 0.09375l0.027344 0.027344c0.027344 0.027344 0.050782 0.058594 0.078125 0.085938 0.007813 0.011718 0.015625 0.019531 0.023438 0.03125 0.03125 0.039062 0.058593 0.082031 0.082031 0.125v0.003906c0.023438 0.042969 0.046875 0.089844 0.066406 0.13281 0.003906 0.011719 0.007813 0.023438 0.015625 0.039063 0.015625 0.035156 0.027344 0.074219 0.039063 0.10938 0.003906 0.011719 0.007812 0.023438 0.011718 0.039062 0.011719 0.046876 0.023438 0.09375 0.027344 0.14063v0.007812c0.007813 0.050781 0.011719 0.10547 0.011719 0.15625v0.011719 21.141c2.6133 3.2422 4.1016 7.3008 4.2188 11.602 0.28125 10.016-5.543 16.043-11.715 22.422zm-24.871-63.676 3.3047 3.3047c0.042969 0.046874 0.09375 0.089843 0.14453 0.12891 0.11719 0.089844 0.25 0.15625 0.38281 0.20312 0.12891 0.042969 0.25781 0.0625 0.38672 0.0625 0.054687 0 0.11328-0.003907 0.16797-0.011719 0.18359-0.023438 0.36328-0.089844 0.52344-0.19141 0.12109-0.078125 0.23047-0.17578 0.32031-0.29297 0.039063-0.050781 0.074219-0.10547 0.10547-0.16406l5.7734-10c0.35156-0.60937 0.14453-1.3867-0.46484-1.7383-0.60938-0.35156-1.3867-0.14453-1.7383 0.46484l-4.9609 8.5898-2.1523-2.1523c-0.49609-0.49609-1.3008-0.49609-1.7969 0-0.49219 0.49609-0.49219 1.3008 0.003907 1.7969z" fill-rule="evenodd"/></svg>