<svg xmlns="http://www.w3.org/2000/svg" version="1.1" viewBox="-5.0 -10.0 110.0 135.0">
 <g>
  <path d="m46.875 15.625c0.86328 0 1.5625-0.69922 1.5625-1.5625v-2.4766l0.45703 0.45703c0.60938 0.60938 1.6016 0.60938 2.2109 0l0.45703-0.45703v2.4766c0 0.86328 0.69922 1.5625 1.5625 1.5625s1.5625-0.69922 1.5625-1.5625v-6.25c0-0.63281-0.38281-1.2031-0.96484-1.4453-0.58594-0.24219-1.2578-0.10938-1.7031 0.33594l-2.0195 2.0195-2.0195-2.0195c-0.44531-0.44531-1.1172-0.57812-1.7031-0.33594-0.58594 0.24219-0.96484 0.8125-0.96484 1.4453v6.25c0 0.86328 0.69922 1.5625 1.5625 1.5625z"/>
  <path d="m92.141 44.129 1.2656-5.0664h1.9062c0.86328 0 1.5625-0.69922 1.5625-1.5625v-9.375c0-0.86328-0.69922-1.5625-1.5625-1.5625h-4.3438l-30.031-13.859v-8.0156c0-2.5859-2.1016-4.6875-4.6875-4.6875h-12.5c-2.5859 0-4.6875 2.1016-4.6875 4.6875v8.0156l-30.031 13.859h-4.3438c-0.86328 0-1.5625 0.69922-1.5625 1.5625v9.375c0 0.86328 0.69922 1.5625 1.5625 1.5625h1.9062l1.2656 5.0664c0.17188 0.69531 0.79688 1.1836 1.5156 1.1836v35.938c-0.71875 0-1.3438 0.48828-1.5156 1.1836l-1.2656 5.0664h-1.9062c-0.86328 0-1.5625 0.69922-1.5625 1.5625v9.375c0 0.86328 0.69922 1.5625 1.5625 1.5625h90.625c0.86328 0 1.5625-0.69922 1.5625-1.5625v-9.375c0-0.86328-0.69922-1.5625-1.5625-1.5625h-1.9062l-1.2656-5.0664c-0.17188-0.69531-0.79688-1.1836-1.5156-1.1836v-35.938c0.71875 0 1.3438-0.48828 1.5156-1.1836zm-49.953-39.441c0-0.85938 0.70312-1.5625 1.5625-1.5625h12.5c0.85938 0 1.5625 0.70312 1.5625 1.5625v12.5c0 0.85938-0.70312 1.5625-1.5625 1.5625h-12.5c-0.85938 0-1.5625-0.70312-1.5625-1.5625zm-3.125 11.457v1.043c0 2.5859 2.1016 4.6875 4.6875 4.6875h12.5c2.5859 0 4.6875-2.1016 4.6875-4.6875v-1.043l22.574 10.418h-67.023zm54.688 74.48v6.25h-87.5v-6.25zm-83.156-48.438-0.78125-3.125h11.625l-0.78125 3.125zm8.1562 3.125v35.938h-6.25v-35.938zm-8.1562 39.062h10.062l0.78125 3.125h-11.625zm11.281-3.125v-35.938c0.71875 0 1.3438-0.48828 1.5156-1.1836l1.2656-5.0664h5.375l1.2656 5.0664c0.17188 0.69531 0.79688 1.1836 1.5156 1.1836v35.938c-0.71875 0-1.3438 0.48828-1.5156 1.1836l-1.2656 5.0664h-5.375l-1.2656-5.0664c-0.17188-0.69531-0.79688-1.1836-1.5156-1.1836zm12.156-39.062-0.78125-3.125h11.625l-0.78125 3.125zm8.1562 3.125v35.938h-6.25v-35.938zm-8.1562 39.062h10.062l0.78125 3.125h-11.625zm11.281-3.125v-35.938c0.71875 0 1.3438-0.48828 1.5156-1.1836l1.2656-5.0664h3.8125l1.2656 5.0664c0.17188 0.69531 0.79688 1.1836 1.5156 1.1836v35.938c-0.71875 0-1.3438 0.48828-1.5156 1.1836l-1.2656 5.0664h-3.8125l-1.2656-5.0664c-0.17188-0.69531-0.79688-1.1836-1.5156-1.1836zm10.594-39.062-0.78125-3.125h11.625l-0.78125 3.125zm8.1562 3.125v35.938h-6.25v-35.938zm-8.1562 39.062h10.062l0.78125 3.125h-11.625zm11.281-3.125v-35.938c0.71875 0 1.3438-0.48828 1.5156-1.1836l1.2656-5.0664h5.375l1.2656 5.0664c0.17188 0.69531 0.79688 1.1836 1.5156 1.1836v35.938c-0.71875 0-1.3438 0.48828-1.5156 1.1836l-1.2656 5.0664h-5.375l-1.2656-5.0664c-0.17188-0.69531-0.79688-1.1836-1.5156-1.1836zm12.156-39.062-0.78125-3.125h11.625l-0.78125 3.125zm8.1562 3.125v35.938h-6.25v-35.938zm-8.1562 39.062h10.062l0.78125 3.125h-11.625zm-73.094-48.438v-6.25h87.5v6.25z"/>
 </g></svg>