<svg xmlns="http://www.w3.org/2000/svg" xmlns:xlink="http://www.w3.org/1999/xlink" xmlns:xodm="http://www.corel.com/coreldraw/odm/2003" xml:space="preserve" version="1.1" style="shape-rendering:geometricPrecision;text-rendering:geometricPrecision;image-rendering:optimizeQuality;" viewBox="0 0 846.66 1058.325" x="0px" y="0px" fill-rule="evenodd" clip-rule="evenodd"><defs><style type="text/css">
   
    .fil0 {fill:black;fill-rule:nonzero}
   
  </style></defs><g><path class="fil0" d="M199.58 651.32c-16.05,5.08 -23.78,-19.31 -7.73,-24.4 55.52,-17.71 113.23,-21.08 168.35,-11.4 -72.5,-101.54 -212.12,-130.63 -319.54,-64.61 -14.37,8.83 -27.82,-13.05 -13.45,-21.89 106.55,-65.48 244.24,-47.31 330.3,43.12 89.31,-72.1 144.26,-154.17 161.1,-268.5l-161.37 93.16c-6.1,3.51 -13.94,1.43 -17.47,-4.66 -24.4,-42.26 10.41,-87.64 42.35,-114.04l-63.54 0c-7.09,0 -12.85,-5.75 -12.85,-12.85 1.06,-65.6 89.42,-82.06 140.47,-80.78l-80.49 -80.49c-5.02,-5.02 -5.02,-13.16 0,-18.17 59.72,-59.73 166.19,38.18 193.8,94.59 28.03,-57.27 134.54,-153.85 193.8,-94.59 5.02,5.01 5.02,13.15 0,18.17l-80.49 80.49c51.19,-1.28 139.41,15.11 140.47,80.78 0,7.1 -5.76,12.85 -12.85,12.85l-63.54 0c32.23,26.65 66.42,71.16 42.35,114.04 -3.55,6.12 -11.39,8.21 -17.52,4.66l-167.03 -96.43c-15.81,143.71 -46.74,232.18 -138.82,346.52 13.77,6.82 27.14,14.56 40.01,23.19l104 0c6.36,-47.68 47.2,-83.4 95.4,-83.4 48.19,0 89.03,35.72 95.39,83.4l22.24 0c16.91,0 16.91,25.7 0,25.7l-201.03 0 -82.26 0c10.73,9.25 20.98,19.21 30.68,29.86 11.34,12.46 -7.63,29.73 -18.98,17.26 -86.14,-94.62 -219.84,-130.46 -341.75,-91.58zm426.32 18.76l138.76 0c-6.14,-33.38 -35.35,-57.7 -69.37,-57.7 -34.03,0 -63.24,24.32 -69.39,57.7zm37.3 109.43c-16.9,0 -16.9,-25.7 0,-25.7l64.17 0c16.9,0 16.9,25.7 0,25.7l-64.17 0zm-37.84 -41.87c-16.91,0 -16.91,-25.7 0,-25.7l139.85 0c16.91,0 16.91,25.7 0,25.7l-139.85 0zm-54.93 -451.28l-10.95 -6.32 -12.98 7.5c-14.2,129.56 -71.52,222.56 -172.2,304.05 7.91,10.11 15.1,20.83 21.51,32.1 12.17,3.47 24.16,7.59 35.91,12.34 95.32,-116.68 123.24,-202.48 138.71,-349.67zm-30.47 -24.59c-48.35,-38.57 -190.42,45.9 -182.23,105.21 60.74,-35.07 121.49,-70.14 182.23,-105.21zm-206 -9.37l86.17 0c28.85,-15.84 66.5,-28.97 99.66,-25.05 -50.12,-27.9 -165.99,-23.48 -185.83,25.05zm210.63 -39.44c-12.33,-49.02 -97.65,-138.21 -149.85,-116.29l92.32 92.32c20.06,4.1 41.1,11.52 57.53,23.97zm54.64 14.39c33.16,-3.92 70.81,9.21 99.66,25.05l86.17 0c-21.42,-52.4 -143.25,-48.76 -185.83,-25.05zm32.73 -38.36l92.32 -92.32c-51.81,-21.76 -137.12,65.69 -149.85,116.29 16.43,-12.45 37.47,-19.88 57.53,-23.97zm-52.87 72.76l182.21 105.2c8.13,-59.27 -133.76,-143.78 -182.21,-105.2z"/></g></svg>