<?xml version="1.0" encoding="UTF-8" standalone="no"?>
<svg
   xml:space="preserve"
   version="1.1"
   style="image-rendering:optimizeQuality;shape-rendering:geometricPrecision;text-rendering:geometricPrecision"
   viewBox="0 0 1060 1060"
   x="0px"
   y="0px"
   fill-rule="evenodd"
   clip-rule="evenodd"
   id="svg1"
   sodipodi:docname="noun-beach-4576730.svg"
   width="1060"
   height="1060"
   inkscape:version="1.3 (0e150ed6c4, 2023-07-21)"
   xmlns:inkscape="http://www.inkscape.org/namespaces/inkscape"
   xmlns:sodipodi="http://sodipodi.sourceforge.net/DTD/sodipodi-0.dtd"
   xmlns="http://www.w3.org/2000/svg"
   xmlns:svg="http://www.w3.org/2000/svg"><sodipodi:namedview
     id="namedview1"
     pagecolor="#ffffff"
     bordercolor="#000000"
     borderopacity="0.25"
     inkscape:showpageshadow="2"
     inkscape:pageopacity="0.0"
     inkscape:pagecheckerboard="0"
     inkscape:deskcolor="#d1d1d1"
     inkscape:zoom="1.0743392"
     inkscape:cx="423.51614"
     inkscape:cy="529.16248"
     inkscape:window-width="2560"
     inkscape:window-height="1351"
     inkscape:window-x="3831"
     inkscape:window-y="1115"
     inkscape:window-maximized="1"
     inkscape:current-layer="svg1" /><defs
     id="defs1"><style
       type="text/css"
       id="style1">&#10;   &#10;    .fil0 {fill:black;fill-rule:nonzero}&#10;   &#10;  </style></defs><g
     id="g1"
     transform="translate(106.66789,106.66646)"><path
       class="fil0"
       d="m 199.58,651.32 c -16.05,5.08 -23.78,-19.31 -7.73,-24.4 55.52,-17.71 113.23,-21.08 168.35,-11.4 C 287.7,513.98 148.08,484.89 40.66,550.91 26.29,559.74 12.84,537.86 27.21,529.02 c 106.55,-65.48 244.24,-47.31 330.3,43.12 89.31,-72.1 144.26,-154.17 161.1,-268.5 L 357.24,396.8 c -6.1,3.51 -13.94,1.43 -17.47,-4.66 -24.4,-42.26 10.41,-87.64 42.35,-114.04 h -63.54 c -7.09,0 -12.85,-5.75 -12.85,-12.85 1.06,-65.6 89.42,-82.06 140.47,-80.78 l -80.49,-80.49 c -5.02,-5.02 -5.02,-13.16 0,-18.17 59.72,-59.73 166.19,38.18 193.8,94.59 28.03,-57.27 134.54,-153.85 193.8,-94.59 5.02,5.01 5.02,13.15 0,18.17 l -80.49,80.49 c 51.19,-1.28 139.41,15.11 140.47,80.78 0,7.1 -5.76,12.85 -12.85,12.85 H 736.9 c 32.23,26.65 66.42,71.16 42.35,114.04 -3.55,6.12 -11.39,8.21 -17.52,4.66 L 594.7,300.37 c -15.81,143.71 -46.74,232.18 -138.82,346.52 13.77,6.82 27.14,14.56 40.01,23.19 h 104 c 6.36,-47.68 47.2,-83.4 95.4,-83.4 48.19,0 89.03,35.72 95.39,83.4 h 22.24 c 16.91,0 16.91,25.7 0,25.7 H 611.89 529.63 c 10.73,9.25 20.98,19.21 30.68,29.86 11.34,12.46 -7.63,29.73 -18.98,17.26 C 455.19,648.28 321.49,612.44 199.58,651.32 Z m 426.32,18.76 h 138.76 c -6.14,-33.38 -35.35,-57.7 -69.37,-57.7 -34.03,0 -63.24,24.32 -69.39,57.7 z m 37.3,109.43 c -16.9,0 -16.9,-25.7 0,-25.7 h 64.17 c 16.9,0 16.9,25.7 0,25.7 z m -37.84,-41.87 c -16.91,0 -16.91,-25.7 0,-25.7 h 139.85 c 16.91,0 16.91,25.7 0,25.7 z m -54.93,-451.28 -10.95,-6.32 -12.98,7.5 C 532.3,417.1 474.98,510.1 374.3,591.59 c 7.91,10.11 15.1,20.83 21.51,32.1 12.17,3.47 24.16,7.59 35.91,12.34 C 527.04,519.35 554.96,433.55 570.43,286.36 Z M 539.96,261.77 C 491.61,223.2 349.54,307.67 357.73,366.98 418.47,331.91 479.22,296.84 539.96,261.77 Z m -206,-9.37 h 86.17 c 28.85,-15.84 66.5,-28.97 99.66,-25.05 C 469.67,199.45 353.8,203.87 333.96,252.4 Z M 544.59,212.96 C 532.26,163.94 446.94,74.75 394.74,96.67 l 92.32,92.32 c 20.06,4.1 41.1,11.52 57.53,23.97 z m 54.64,14.39 c 33.16,-3.92 70.81,9.21 99.66,25.05 h 86.17 C 763.64,200 641.81,203.64 599.23,227.35 Z m 32.73,-38.36 92.32,-92.32 c -51.81,-21.76 -137.12,65.69 -149.85,116.29 16.43,-12.45 37.47,-19.88 57.53,-23.97 z m -52.87,72.76 182.21,105.2 C 769.43,307.68 627.54,223.17 579.09,261.75 Z"
       id="path1" /></g></svg>
