<svg xmlns="http://www.w3.org/2000/svg" version="1.1" viewBox="-5.0 -10.0 110.0 135.0">
 <path d="m92.188 84.375c0 7.5742-14.785 15.625-42.188 15.625s-42.188-8.0508-42.188-15.625c0-2.0312 0.98438-5.0781 5.6797-8.0547 0.72656-0.46094 1.6953-0.24609 2.1562 0.48438 0.46094 0.73047 0.24609 1.6953-0.48438 2.1562-1.9297 1.2227-4.2266 3.1523-4.2266 5.4141 0 5.9102 16.043 12.5 39.062 12.5s39.062-6.5898 39.062-12.5c0-2.2617-2.3047-4.1914-4.2383-5.4141-0.73047-0.46094-0.94922-1.4258-0.48828-2.1562 0.46094-0.73047 1.4297-0.94531 2.1562-0.48828 4.707 2.9727 5.6992 6.0195 5.6992 8.0547zm-7.8125-39.027c0 8.1406-17.711 12.531-34.375 12.531s-34.375-4.3906-34.375-12.531 17.711-12.535 34.375-12.535 34.375 4.3945 34.375 12.535zm-32.812-1.5664c5.1133 0.15234 9.8398 1.0469 13.691 2.5078 3.0117-1.668 5.0742-5.5 6.0273-7.625-5.1445-1.5234-11.961-2.5742-19.715-2.7031v7.8164zm-22.84-5.1172c0.95312 2.125 3.0117 5.9531 6.0273 7.625 3.8516-1.4609 8.5742-2.3555 13.691-2.5078v-7.8164c-7.7539 0.12891-14.57 1.1797-19.715 2.7031zm2.7266 9.1367c-2.9102-2.4062-4.7891-6.0234-5.7109-8.1484-4.4102 1.6875-6.9922 3.7383-6.9922 5.6914 0 2.1094 3.043 4.332 8.125 6.0898 1.0977-1.3633 2.6602-2.582 4.5742-3.6328zm38.32 4.6523c-3.2969-2.9766-10.426-5.5781-19.77-5.5781s-16.473 2.6016-19.77 5.5781c5.3047 1.3867 12.117 2.3008 19.77 2.3008s14.465-0.91406 19.77-2.3008zm11.48-7.1055c0-1.9492-2.582-4.0039-6.9883-5.6914-0.92188 2.125-2.8008 5.7422-5.7109 8.1484 1.9102 1.0508 3.4727 2.2695 4.5742 3.6328 5.0859-1.7578 8.125-3.9805 8.125-6.0898zm10.938-26.598v26.594 0.003906 0.003906c0 5.3828-1.0352 10.621-3.0703 15.574l-10.031 24.543c-0.87891 2.1484-2.6641 3.7891-4.8984 4.4922-7.7969 2.5156-15.938 3.793-24.188 3.793-8.2109 0-16.352-1.2773-24.195-3.793-2.2305-0.71094-4.0156-2.3477-4.8906-4.4922l-10.031-24.547c-2.0352-4.9492-3.0703-10.191-3.0703-15.57v-0.003906-0.003906-26.594c0-0.86328 0.69922-1.5625 1.5625-1.5625s1.5625 0.69922 1.5625 1.5625v0.53125l9.9922 4.2812c0.57422 0.24609 0.94531 0.8125 0.94531 1.4375s-0.37109 1.1914-0.94531 1.4375l-9.9922 4.2812v6.8125c4.9102-5.8438 15.227-10.254 28.125-11.863v-3.793h-7.8125c-0.86328 0-1.5625-0.69922-1.5625-1.5625v-18.75c0-0.86328 0.69922-1.5625 1.5625-1.5625h37.5c0.86328 0 1.5625 0.69922 1.5625 1.5625v18.75c0 0.86328-0.69922 1.5625-1.5625 1.5625h-7.8125v3.793c12.898 1.6094 23.215 6.0156 28.125 11.859v-6.8125l-9.9883-4.2812c-0.57422-0.24609-0.94922-0.8125-0.94922-1.4375s0.37109-1.1914 0.94922-1.4375l9.9883-4.2812v-0.53125c0-0.86328 0.69922-1.5625 1.5625-1.5625s1.5625 0.69922 1.5625 1.5625zm-81.25 8.5664 5.4102-2.3164-5.4102-2.3164v4.6367zm56.25-8.5664v-15.625h-34.375v15.625zm-25 3.125v3.4648c2.5273-0.21875 5.1328-0.33984 7.8125-0.33984s5.2852 0.12109 7.8125 0.33984v-3.4648zm6.25 53.125h-6.25c-0.86328 0-1.5625 0.69922-1.5625 1.5625v13.457c2.5938 0.32031 5.2031 0.50391 7.8125 0.55859zm10.938 1.5625c0-0.86328-0.69922-1.5625-1.5625-1.5625h-6.25v15.578c2.6133-0.050781 5.2227-0.23047 7.8125-0.55078zm28.605-22.219c-6.7734 6.7773-21.062 11.348-37.98 11.348s-31.207-4.5703-37.98-11.348c0.44922 1.832 1.0312 3.6289 1.7539 5.3906l3.7461 9.1719c0.082031 0.035156 0.16797 0.046875 0.24609 0.097656 2.5469 1.6484 5.6719 3.0859 9.2812 4.2656 0.82031 0.26953 1.2656 1.1523 1 1.9727-0.21484 0.66016-0.82812 1.0781-1.4844 1.0781-0.16016 0-0.32422-0.023437-0.48438-0.078124-2.4414-0.80078-4.6602-1.7266-6.6797-2.7422l4.4102 10.789c0.52344 1.2812 1.6016 2.2656 2.9492 2.6953 3.5234 1.1289 7.1172 1.9844 10.746 2.5859v-13.004c0-2.5859 2.1016-4.6875 4.6875-4.6875h15.625c2.5859 0 4.6875 2.1016 4.6875 4.6875v13.012c3.6367-0.60156 7.2305-1.4609 10.738-2.5938 1.3555-0.42969 2.4297-1.4102 2.957-2.6992l4.4102-10.789c-2.0195 1.0156-4.2383 1.9414-6.6797 2.7422-0.16016 0.050781-0.32422 0.078125-0.48438 0.078125-0.65625 0-1.2695-0.41797-1.4844-1.0781-0.26953-0.82031 0.17969-1.7031 1-1.9727 3.6094-1.1797 6.7344-2.6172 9.2812-4.2656 0.078124-0.050781 0.16406-0.0625 0.24609-0.097656l3.7461-9.168c0.72266-1.7617 1.3086-3.5625 1.7578-5.3945zm1.082-9c0-9.3359-17.887-17.219-39.062-17.219-21.172 0-39.062 7.8867-39.062 17.219v0.003906c0 9.3359 17.891 17.219 39.062 17.219s39.059-7.8828 39.062-17.219v-0.003906zm0-22.66-5.4062 2.3164 5.4062 2.3164v-4.6367zm-39.062-16.434c-0.86328 0-1.5625 0.69922-1.5625 1.5625s0.69922 1.5625 1.5625 1.5625 1.5625-0.69922 1.5625-1.5625-0.69922-1.5625-1.5625-1.5625zm0 6.25c-0.86328 0-1.5625 0.69922-1.5625 1.5625s0.69922 1.5625 1.5625 1.5625 1.5625-0.69922 1.5625-1.5625-0.69922-1.5625-1.5625-1.5625zm-4.6875-4.6875v6.25c0 0.86328-0.69922 1.5625-1.5625 1.5625h-6.25c-0.86328 0-1.5625-0.69922-1.5625-1.5625v-6.25c0-0.86328 0.69922-1.5625 1.5625-1.5625h6.25c0.86328 0 1.5625 0.69922 1.5625 1.5625zm-3.125 1.5625h-3.125v3.125h3.125zm21.875-1.5625v6.25c0 0.86328-0.69922 1.5625-1.5625 1.5625h-6.25c-0.86328 0-1.5625-0.69922-1.5625-1.5625v-6.25c0-0.86328 0.69922-1.5625 1.5625-1.5625h6.25c0.86328 0 1.5625 0.69922 1.5625 1.5625zm-3.125 1.5625h-3.125v3.125h3.125z"/></svg>