<svg xmlns="http://www.w3.org/2000/svg" data-name="Layer 1" viewBox="0 0 64 80" x="0px" y="0px"><path d="M38,32c0-3.31-2.69-6-6-6s-6,2.69-6,6,2.69,6,6,6,6-2.69,6-6Zm-6,4c-2.21,0-4-1.79-4-4s1.79-4,4-4,4,1.79,4,4-1.79,4-4,4Z"/><path d="M63,34h-21.46c-.44,0-.82,.28-.95,.7-.88,2.8-3.08,5-5.89,5.89-.42,.13-.7,.52-.7,.95v21.46h2v-20.75c2.86-1.12,5.13-3.39,6.25-6.25h20.75v-2Z"/><path d="M28,42.25v20.75h2v-21.46c0-.44-.28-.82-.7-.95-2.8-.88-5-3.08-5.89-5.89-.13-.42-.52-.7-.95-.7H1v2H21.75c1.12,2.86,3.39,5.13,6.25,6.25Z"/><path d="M23.41,29.3c.88-2.8,3.08-5,5.89-5.89,.42-.13,.7-.52,.7-.95V1h-2V21.75c-2.86,1.12-5.13,3.39-6.25,6.25H1v2H22.46c.44,0,.82-.28,.95-.7Z"/><path d="M63,28h-20.75c-1.12-2.86-3.39-5.13-6.25-6.25V1h-2V22.46c0,.44,.28,.82,.7,.95,2.8,.88,5,3.08,5.89,5.89,.13,.42,.52,.7,.95,.7h21.46v-2Z"/><rect x="4" y="31" width="3" height="2"/><rect x="14" y="31" width="3" height="2"/><rect x="47" y="31" width="3" height="2"/><rect x="57" y="31" width="3" height="2"/><rect x="31" y="4" width="2" height="3"/><rect x="31" y="14" width="2" height="3"/><rect x="31" y="47" width="2" height="3"/><rect x="31" y="57" width="2" height="3"/><path d="M7,20h12c.55,0,1-.45,1-1V10h1c.32,0,.62-.15,.81-.41,.19-.26,.24-.59,.14-.89l-1.6-5c-.13-.41-.52-.7-.95-.7H6.6c-.43,0-.82,.28-.95,.7l-1.6,5c-.1,.3-.04,.64,.14,.89,.19,.26,.49,.41,.81,.41h1v9c0,.55,.45,1,1,1Zm7-2h-2v-2h2v2Zm4,0h-2v-3c0-.55-.45-1-1-1h-4c-.55,0-1,.45-1,1v3h-2V10h10v8ZM7.33,5h11.34l.96,3H6.37l.96-3Z"/><path d="M19.5,61v-4.04c1.03-.09,1.97-.53,2.63-1.28,.66-.75,.96-1.7,.84-2.66-.42-3.38-1.63-6.57-3.58-9.48l-.06-.09c-.18-.28-.5-.44-.83-.45h0c-.33,0-.64,.16-.83,.44l-.07,.1c-.72,1.07-1.34,2.2-1.86,3.36-.51-1.15-1.12-2.28-1.84-3.34l-.06-.09c-.37-.58-1.32-.58-1.69,0l-.04,.07c-.73,1.08-1.34,2.22-1.86,3.38-.52-1.16-1.13-2.29-1.85-3.36l-.06-.09c-.18-.29-.5-.46-.84-.46h0c-.34,0-.66,.18-.84,.47l-.04,.07c-1.96,2.9-3.16,6.09-3.58,9.49-.12,.97,.18,1.91,.84,2.66,.66,.74,1.6,1.18,2.63,1.28v4.04h2v-4.04c.63-.06,1.23-.24,1.75-.56,.52,.32,1.12,.5,1.75,.56v4.04h2v-4.04c.63-.06,1.24-.25,1.76-.57,.52,.31,1.11,.51,1.74,.56v4.04h2Zm-10.65-6.13c-.23,.08-.48,.13-.73,.13h-1.24c-.6,0-1.15-.23-1.51-.64-.28-.31-.4-.7-.36-1.09,.32-2.6,1.16-5.07,2.49-7.38,.72,1.25,1.29,2.55,1.71,3.89-.31,1.09-.55,2.18-.68,3.24-.08,.64,.05,1.28,.33,1.85Zm5.49,0c-.23,.08-.47,.13-.73,.13h-1.24c-.55,0-1.07-.2-1.43-.55-.2-.19-.51-.6-.44-1.18,.13-1.06,.36-2.15,.7-3.24,.42-1.42,1.02-2.81,1.79-4.14,.72,1.25,1.29,2.55,1.71,3.88-.31,1.07-.54,2.16-.68,3.25-.08,.65,.04,1.28,.32,1.85Zm2.02-.51c-.28-.32-.41-.7-.36-1.09,.32-2.6,1.16-5.08,2.49-7.39,1.33,2.31,2.17,4.79,2.49,7.39,.05,.39-.08,.77-.36,1.09-.36,.41-.91,.64-1.51,.64h-1.24c-.6,0-1.15-.23-1.51-.64Z"/><path d="M47,44h-4c-.55,0-1,.45-1,1v15c0,.55,.45,1,1,1h18c.55,0,1-.45,1-1v-9c0-.55-.45-1-1-1h-1.5l-2.7-3.6c-.26-.34-.71-.49-1.12-.35-.41,.14-.68,.52-.68,.95v3h-.5l-2.7-3.6c-.26-.34-.71-.49-1.12-.35-.41,.14-.68,.52-.68,.95v3h-2v-5c0-.55-.45-1-1-1Zm4,8c.55,0,1-.45,1-1v-1l1.2,1.6c.19,.25,.49,.4,.8,.4h2c.55,0,1-.45,1-1v-1l1.2,1.6c.19,.25,.49,.4,.8,.4h1v7h-16v-13h2v5c0,.55,.45,1,1,1h4Z"/><path d="M52,43h4v-2h-4c-1.65,0-3,1.35-3,3h2c0-.55,.45-1,1-1Z"/><rect x="49" y="55" width="9" height="2"/><path d="M42,19h18c.35,0,.67-.18,.85-.47,.18-.29,.2-.66,.04-.97l-6-12c-.34-.68-1.45-.68-1.79,0l-2.11,4.21-2.11-4.21c-.34-.68-1.45-.68-1.79,0l-6,12c-.16,.31-.14,.68,.04,.97,.18,.29,.5,.47,.85,.47Zm12-10.76l4.38,8.76h-3.76l-2.5-5,1.88-3.76Zm-6,0l4.38,8.76h-8.76l4.38-8.76Z"/></svg>