<svg xmlns="http://www.w3.org/2000/svg" xmlns:xlink="http://www.w3.org/1999/xlink" version="1.1" x="0px" y="0px" viewBox="0 0 48 60" enable-background="new 0 0 48 48" xml:space="preserve"><g><path d="M44,26.762H16.857c-0.45-1.737-2.038-3-3.857-3H9v-5c0-0.552-0.448-1-1-1H4c-0.552,0-1,0.448-1,1v25c0,0.552,0.448,1,1,1h4   c0.552,0,1-0.448,1-1v-2h30v2c0,0.552,0.448,1,1,1h4c0.552,0,1-0.448,1-1v-16C45,27.21,44.552,26.762,44,26.762z M7,42.762H5v-23h2   V42.762z M9,25.762h4c0.727,0,1.381,0.396,1.731,1H9V25.762z M43,42.762h-2v-1h2V42.762z M43,39.762H9v-7h34V39.762z M43,30.762H9   v-2h34V30.762z"/><path d="M30.497,7.935C30.38,7.569,30.07,7.309,29.69,7.253l-3.312-0.481l-1.481-3.001c-0.326-0.658-1.467-0.658-1.793,0   l-1.481,3.001L18.31,7.253c-0.38,0.056-0.689,0.316-0.807,0.682C17.385,8.3,17.482,8.693,17.757,8.96l2.396,2.336l-0.567,3.297   c-0.063,0.373,0.093,0.758,0.396,0.977c0.175,0.128,0.384,0.193,0.593,0.193c0.159,0,0.318-0.038,0.462-0.115L24,14.09l2.96,1.557   c0.329,0.176,0.761,0.144,1.055-0.075c0.307-0.221,0.463-0.605,0.399-0.979l-0.567-3.297l2.396-2.336   C30.518,8.693,30.615,8.3,30.497,7.935z M26.075,10.229c-0.235,0.229-0.344,0.561-0.289,0.887l0.313,1.817l-1.639-0.86   C24.318,12,24.159,11.961,24,11.961S23.682,12,23.535,12.075L21.9,12.934l0.313-1.819c0.055-0.324-0.054-0.655-0.289-0.885   l-1.321-1.288l1.832-0.266c0.324-0.051,0.604-0.255,0.747-0.546L24,6.474l0.817,1.656c0.144,0.291,0.423,0.495,0.753,0.547   l1.826,0.265L26.075,10.229z"/><path d="M5.653,11.296l-0.567,3.297c-0.063,0.373,0.093,0.758,0.396,0.977c0.175,0.128,0.384,0.193,0.593,0.193   c0.159,0,0.318-0.038,0.462-0.115L9.5,14.09l2.96,1.557c0.329,0.176,0.761,0.144,1.055-0.075c0.307-0.221,0.463-0.605,0.399-0.979   l-0.567-3.297l2.396-2.336c0.274-0.267,0.372-0.66,0.254-1.025C15.88,7.569,15.57,7.309,15.19,7.253l-3.312-0.481l-1.481-3.001   c-0.326-0.658-1.467-0.658-1.793,0L7.122,6.771L3.81,7.253C3.43,7.309,3.12,7.569,3.003,7.935C2.885,8.3,2.982,8.693,3.257,8.96   L5.653,11.296z M7.93,8.677l0.006-0.001C8.26,8.625,8.539,8.421,8.683,8.13L9.5,6.474l0.817,1.656   c0.144,0.291,0.423,0.495,0.753,0.547l1.826,0.265l-1.321,1.288c-0.235,0.229-0.344,0.561-0.289,0.887l0.313,1.817l-1.639-0.86   C9.818,12,9.659,11.961,9.5,11.961S9.182,12,9.035,12.075L7.4,12.934l0.313-1.819c0.055-0.324-0.054-0.655-0.289-0.885L6.104,8.941   L7.93,8.677z"/><path d="M44.997,7.935C44.88,7.569,44.57,7.309,44.19,7.253l-3.312-0.481l-1.481-3.001c-0.326-0.658-1.467-0.658-1.793,0   l-1.481,3.001L32.81,7.253c-0.38,0.056-0.689,0.316-0.807,0.682C31.885,8.3,31.982,8.693,32.257,8.96l2.396,2.336l-0.567,3.297   c-0.063,0.373,0.093,0.758,0.396,0.976c0.174,0.129,0.384,0.194,0.593,0.194c0.16,0,0.319-0.038,0.463-0.115L38.5,14.09l2.96,1.557   c0.329,0.176,0.761,0.144,1.055-0.075c0.307-0.221,0.463-0.605,0.399-0.979l-0.567-3.297l2.396-2.336   C45.018,8.693,45.115,8.3,44.997,7.935z M40.575,10.229c-0.235,0.229-0.344,0.561-0.289,0.887l0.313,1.817l-1.639-0.86   C38.818,12,38.659,11.961,38.5,11.961S38.182,12,38.035,12.075L36.4,12.934l0.313-1.819c0.055-0.324-0.054-0.655-0.289-0.885   l-1.321-1.288l1.832-0.266c0.324-0.051,0.604-0.255,0.747-0.546L38.5,6.474l0.817,1.656c0.144,0.291,0.423,0.495,0.753,0.547   l1.826,0.265L40.575,10.229z"/></g></svg>