<svg xmlns="http://www.w3.org/2000/svg" xmlns:xlink="http://www.w3.org/1999/xlink" xmlns:serif="http://www.serif.com/" viewBox="0 0 24 30" version="1.1" xml:space="preserve" style="" x="0px" y="0px" fill-rule="evenodd" clip-rule="evenodd" stroke-linejoin="round" stroke-miterlimit="2"><g><path d="M9.174,19.771c0,-0.378 0.132,-0.738 0.355,-1.005c0.267,-0.321 0.636,-0.487 1.014,-0.487l9.905,-0c0.378,-0 0.747,0.166 1.014,0.487c0.223,0.267 0.355,0.627 0.355,1.005l-0,0.743c-0,0.575 -0.198,1.124 -0.537,1.531c-0.383,0.46 -0.909,0.705 -1.451,0.705l-8.667,-0c-0.542,0 -1.068,-0.245 -1.451,-0.705c-0.339,-0.407 -0.537,-0.956 -0.537,-1.531l0,-0.743Zm1.5,0.008l0,0.735c0,0.213 0.063,0.42 0.189,0.571c0.081,0.097 0.184,0.165 0.299,0.165l8.667,-0c0.115,0 0.218,-0.068 0.299,-0.165c0.126,-0.151 0.189,-0.358 0.189,-0.571l-0,-0.735l-9.643,-0Z"/><path d="M9.603,16.35l-0,-0.55c-0,-1.078 0.442,-2.112 1.234,-2.874c0.781,-0.752 1.84,-1.176 2.945,-1.176l3.428,0c1.105,-0 2.163,0.424 2.945,1.176c0.791,0.762 1.234,1.796 1.234,2.874l-0,0.55c-0,0.348 -0.142,0.683 -0.398,0.929c-0.245,0.236 -0.577,0.371 -0.924,0.371l-9.143,-0c-0.347,0 -0.678,-0.135 -0.924,-0.371c-0.256,-0.246 -0.397,-0.581 -0.397,-0.929Zm1.5,-0.2l8.786,-0l-0,-0.35c-0,-0.673 -0.28,-1.317 -0.775,-1.793c-0.504,-0.486 -1.19,-0.757 -1.904,-0.757l-3.428,0c-0.714,-0 -1.4,0.271 -1.905,0.757c-0.494,0.476 -0.774,1.12 -0.774,1.793l-0,0.35Z"/><path d="M7.5,21.25c0.414,0 0.75,0.336 0.75,0.75c-0,0.414 -0.336,0.75 -0.75,0.75l-2.237,-0c-1.283,0 -2.386,-1.045 -2.502,-2.452l-1.001,-12.121c-0.061,-0.741 0.168,-1.475 0.624,-2.024c0.481,-0.58 1.165,-0.903 1.878,-0.903l8.476,0c0.713,0 1.397,0.323 1.878,0.903c0.456,0.549 0.685,1.283 0.624,2.024l-0.155,1.885c-0.035,0.412 -0.397,0.72 -0.81,0.685c-0.412,-0.034 -0.719,-0.396 -0.685,-0.809l0.155,-1.885c0.029,-0.344 -0.071,-0.687 -0.283,-0.942c-0.187,-0.225 -0.447,-0.361 -0.724,-0.361l-8.476,0c-0.277,0 -0.537,0.136 -0.724,0.361c-0.212,0.255 -0.312,0.598 -0.283,0.942l1.001,12.122c0.049,0.591 0.468,1.075 1.007,1.075l2.237,-0Z"/><path d="M8.75,6c0,0.414 -0.336,0.75 -0.75,0.75c-0.414,0 -0.75,-0.336 -0.75,-0.75l-0,-2.323c-0,-0.102 -0.062,-0.194 -0.157,-0.232l-1.872,-0.749c-0.384,-0.153 -0.571,-0.59 -0.417,-0.975c0.153,-0.384 0.59,-0.571 0.975,-0.417l1.871,0.748c0.664,0.266 1.1,0.909 1.1,1.625l-0,2.323Z"/><path d="M21.5,16.15c0.414,-0 0.75,0.336 0.75,0.75c0,0.414 -0.336,0.75 -0.75,0.75l-12,-0c-0.414,-0 -0.75,-0.336 -0.75,-0.75c0,-0.414 0.336,-0.75 0.75,-0.75l12,-0Z"/></g></svg>