<svg xmlns="http://www.w3.org/2000/svg" version="1.1" viewBox="-5.0 -10.0 110.0 135.0">
 <path d="m96 72.684c0.55469 0 1-0.44922 1-1v-12.141c0-0.55078-0.44531-1-1-1h-22.145c-0.51953-1.6641-1.8711-6.1797-2.9766-11.285 1.3281-0.48047 2.5352-1.2852 3.4688-2.3594 1.2148 0.96875 2.7383 1.5117 4.3359 1.5117 3.8477 0 6.9805-3.1367 6.9805-6.9883 0-0.80469-0.13672-1.5977-0.40234-2.3438 3.4414-1.0742 5.9023-4.3125 5.9023-7.9961 0-4.2695-3.207-7.8008-7.3359-8.3164 0.33203-0.79297 0.50781-1.6562 0.50781-2.5352 0-3.6484-2.9688-6.6211-6.6211-6.6211-0.91016 0-1.793 0.18359-2.6094 0.53516-0.98438-4.0547-4.6641-7.0469-8.9609-7.0469-4.4531 0-8.1836 3.168-9.043 7.3672-1.5742-1.1836-3.4883-1.8359-5.4883-1.8359-5.0273 0-9.1211 4.0977-9.1211 9.1289 0 3.1094 1.5625 5.9492 4.0938 7.6133-1.4805 1.375-2.3555 3.3281-2.3555 5.4062 0 3.6797 2.7695 6.7891 6.3398 7.3125 0.53125 3.6055 3.6094 6.3164 7.3594 6.3164 1.4336 0 2.832-0.41797 4.0312-1.1953 0.054687 0.058593 0.11719 0.11328 0.17578 0.16797-1.1289 5.8672-2.7578 11.301-3.3359 13.16h-21.156c-0.55469 0-1 0.44922-1 1v7.7383c-1.9453 0.13281-3.5508 0.88281-4.6602 1.7617-1.7539-1.9102-4.7695-3.3906-8.3828-4.1211v-8.1094h11.688c0.39063 0 0.74609-0.22656 0.91016-0.58203 0.16406-0.35547 0.10547-0.77344-0.15234-1.0703l-8.0938-9.3906h5.8398c0.38672 0 0.73438-0.22266 0.90234-0.57031 0.16406-0.34766 0.11719-0.76172-0.125-1.0586l-7.4102-9.1719h4.6133c0.38281 0 0.73437-0.21875 0.89844-0.56641 0.16797-0.34766 0.12109-0.75781-0.11719-1.0586l-6.7383-8.4609h3.1094c0.39062 0 0.74219-0.22656 0.90625-0.57812 0.16406-0.35156 0.10938-0.76953-0.14062-1.0664l-9.2734-11.016c-0.37891-0.44922-1.1484-0.44922-1.5273 0l-9.2734 11.016c-0.25 0.29688-0.30469 0.71484-0.14063 1.0664 0.16406 0.35156 0.51953 0.57812 0.90625 0.57812h3.1055l-6.7383 8.4609c-0.23828 0.30078-0.28516 0.71094-0.11719 1.0586 0.16406 0.34766 0.51563 0.56641 0.89844 0.56641h4.6211l-7.4102 9.1719c-0.24219 0.30078-0.28906 0.71094-0.125 1.0586 0.16406 0.34766 0.51562 0.57031 0.90234 0.57031h5.832l-8.1094 9.3906c-0.25391 0.29688-0.3125 0.71484-0.15234 1.0703 0.16406 0.35547 0.51953 0.58203 0.91016 0.58203h11.691v7.7188c-7.4062 0.71875-12.691 4.2422-12.691 8.5859 0 0.20703 0.011719 0.41016 0.039062 0.60938v14.191 0.003907c-0.015624 0.37109-0.03125 1.5742-0.039062 5.9844 0 0.26562 0.10547 0.51953 0.29297 0.70703s0.44141 0.29297 0.70703 0.29297h92c0.55469 0 1-0.44922 1-1v-2.75c0-1.4336-1.3203-2.6641-3.5234-3.2891-0.55078-0.16406-1.1602-0.26953-1.7969-0.34766v-1.3438h0.98828c1.1562 0 2.2422-0.44922 3.0586-1.2617 0.82031-0.82031 1.2734-1.9102 1.2734-3.0664 0-2.3867-1.9414-4.3281-4.3281-4.3281h-2.1094v-4.8281h5.4414zm-34.531-29.594c-0.98828 0.85156-2.2461 1.3203-3.5391 1.3203-2.9648 0-5.3555-2.3125-5.4375-5.2695-0.015626-0.53125-0.44531-0.95703-0.97656-0.97266-2.9141-0.066407-5.2812-2.4844-5.2812-5.3906 0-1.9375 1.0391-3.7266 2.7109-4.668 0.33203-0.1875 0.52734-0.54688 0.50781-0.92969-0.019531-0.38281-0.25781-0.71484-0.60938-0.86328-2.6406-1.1133-4.3477-3.6875-4.3477-6.5586 0-3.9336 3.1953-7.1289 7.1211-7.1289 2.1406 0 4.1562 0.96094 5.5391 2.6367 0.28125 0.33984 0.75 0.45703 1.1523 0.28906 0.40625-0.16797 0.65625-0.58203 0.61328-1.0195-0.007813-0.070312-0.003906-0.13672-0.003906-0.21484 0-3.9805 3.2422-7.2188 7.2305-7.2188 3.7734 0 6.9375 2.9453 7.2031 6.7109 0.023438 0.36719 0.25 0.6875 0.58203 0.83984 0.33203 0.15234 0.72266 0.10938 1.0156-0.11328 0.80469-0.60547 1.7617-0.92969 2.7695-0.92969 2.5469 0 4.6211 2.0742 4.6211 4.6211 0 1.0508-0.35938 2.0703-1.0117 2.8633-0.25781 0.3125-0.30078 0.74609-0.10938 1.1016 0.1875 0.35547 0.57422 0.55859 0.97656 0.52734 0.19141-0.019531 0.39063-0.027344 0.60156-0.027344 3.5195 0 6.3789 2.8633 6.3789 6.3789 0 3.1445-2.3555 5.8555-5.4727 6.3086-0.33203 0.046876-0.61328 0.25781-0.75781 0.55859-0.14453 0.30078-0.12891 0.65625 0.042969 0.94141 0.44922 0.75781 0.6875 1.6328 0.6875 2.5273 0 2.75-2.2344 4.9883-4.9805 4.9883-1.4336 0-2.7812-0.60547-3.707-1.668-0.20703-0.23828-0.50391-0.36719-0.82812-0.33984-0.3125 0.023437-0.59766 0.19141-0.76953 0.45703-0.69141 1.0859-1.7188 1.9375-2.8945 2.4258l-0.12109-0.64453c-0.023438-0.12891-0.050781-0.25391-0.070312-0.39453-0.24219-1.8555 0.066406-3.7188 0.89844-5.4062 0.23047-0.47656 0.49609-0.92969 0.82031-1.3789l4.3711-6.0664c0.57031-0.82812 0.58203-1.8633 0.10156-2.6914-0.12109-0.20703-0.26172-0.40625-0.44531-0.57812-0.011719-0.011719-0.023437-0.015625-0.035156-0.027343-0.078125-0.082032-0.16016-0.15625-0.23438-0.20313-0.082031-0.0625-0.17188-0.11328-0.26172-0.15625-0.10547-0.0625-0.20703-0.10156-0.3125-0.14453-0.20312-0.074219-0.39453-0.11719-0.53125-0.13281-0.41016-0.054688-0.85156-0.015625-1.2305 0.11719-0.15625 0.054688-0.30078 0.12109-0.42969 0.19922-0.12891 0.074219-0.24219 0.16016-0.33594 0.24609-0.011719 0.007812-0.019532 0.019531-0.03125 0.027343-0.007813 0.007813-0.015626 0.011719-0.019532 0.015626-0.003906 0.003906-0.007812 0.011718-0.011718 0.015624-0.054688 0.046876-0.10938 0.097657-0.15625 0.14844l-0.003907 0.003906c-0.007812 0.007813-0.011719 0.011719-0.019531 0.019532-0.082031 0.078124-0.15234 0.17187-0.21484 0.26953-0.09375 0.11328-1.918 2.3711-3.3516 4.0352v-11.945c0-0.73828-0.32031-1.4375-0.88281-1.918-0.56641-0.48438-1.3125-0.69531-2.1016-0.57031-0.16016 0.03125-0.30859 0.066407-0.54297 0.16797l-0.046875 0.027344c-0.078125 0.03125-0.14062 0.0625-0.20312 0.09375-0.035156 0.019531-0.070312 0.039062-0.10547 0.0625-0.042969 0.027344-0.09375 0.066406-0.14453 0.10547-0.03125 0.023438-0.050781 0.039063-0.054688 0.042969-0.078124 0.054688-0.14844 0.11719-0.20703 0.19141-0.003906 0.007812-0.011719 0.011718-0.019531 0.015624l-0.12891 0.12891c-0.046875 0.046875-0.097656 0.11719-0.14453 0.1875-0.007812 0.007812-0.007812 0.015625-0.011718 0.023437-0.003906 0.003906-0.007813 0.007813-0.007813 0.011719-0.082031 0.12109-0.15234 0.24609-0.22266 0.38281-0.003906 0.007812-0.007813 0.015624-0.011719 0.023437-0.003906 0.011719-0.015625 0.023437-0.019531 0.035156s-0.003906 0.023438-0.011719 0.03125v0.003907c-0.066406 0.17578-0.12109 0.35547-0.14062 0.44922-0.007812 0.023438-0.003906 0.035156-0.011719 0.054688-0.003906 0.03125-0.023437 0.058594-0.027343 0.089844-0.011719 0.058593-0.015625 0.11328-0.019531 0.16016-0.011719 0.089844-0.011719 0.16016-0.011719 0.19922v11.938c-1.4609-1.6875-3.3281-3.9961-3.3516-4.0234l-0.003906 0.003906c-0.28516-0.34766-0.85156-0.76172-0.85938-0.76562-0.035156-0.027344-0.10547-0.066406-0.14453-0.085937-0.039063-0.019531-0.10547-0.050781-0.17188-0.074219-0.003907 0-0.003907-0.003906-0.007813-0.003906-0.28906-0.11719-0.56641-0.14844-0.77734-0.16016-0.0625-0.003907-0.16016-0.003907-0.22266 0.003906-0.074218 0.003906-0.14844 0.007812-0.23047 0.019531-0.066407 0.003906-0.13281 0.019531-0.20313 0.042969-0.34766 0.082031-0.70312 0.25391-1.0625 0.50391-0.03125 0.023438-0.0625 0.046875-0.089843 0.070312-0.28516 0.25391-0.48828 0.5625-0.62891 0.89844-0.26953 0.64062-0.27734 1.3789 0.019532 2.0312 0.066406 0.14062 0.14453 0.28125 0.23438 0.41016l4.3398 6.0273c0.32422 0.45703 0.60547 0.91797 0.84375 1.3945 0.13672 0.28516 0.25781 0.57812 0.36328 0.87109 0.03125 0.082031 0.058594 0.16797 0.085937 0.25 0.078125 0.23828 0.15234 0.48047 0.21094 0.72266 0.015625 0.066407 0.035156 0.13281 0.050781 0.19922 0.070312 0.30078 0.12109 0.60547 0.16016 0.91016 0.007813 0.074219 0.015625 0.14453 0.023438 0.21875 0.027344 0.24609 0.042968 0.49219 0.046875 0.73828 0 0.050781 0.003906 0.097656 0.003906 0.14844-0.058594-0.019531-0.12109-0.03125-0.18359-0.039063-0.28125-0.03125-0.55469 0.054688-0.76953 0.23438zm2.7344 2.1328c0.003906-0.011718 0.003906-0.023437 0.007813-0.039062l0.019531-0.10547c0.003906-0.019531 0.007812-0.035156 0.007812-0.054687 0.003907-0.011719 0.003907-0.019532 0.007813-0.03125 0.43359-2.3398 0.089844-4.8359-0.98047-7.0391-0.28906-0.57422-0.62891-1.1367-1.0117-1.6758l-4.3359-6.0234c-0.050781-0.070312-0.070313-0.14844-0.082031-0.23047-0.019532-0.15234 0.019531-0.30859 0.12891-0.42578 0.082031-0.054687 0.14844-0.089844 0.20312-0.11328 0.054687-0.023437 0.09375-0.035156 0.11719-0.042969 0.007813-0.003906 0.019532-0.003906 0.027344-0.007812 0.019531 0 0.039062-0.003906 0.058594-0.003906 0.046875 0.003906 0.089844 0.015624 0.13281 0.023437 0.14453 0.11719 0.33203 0.28516 0.40625 0.35547 0.32031 0.39453 3.2656 4.0273 4.5781 5.3906 0.027344 0.03125 0.046875 0.042969 0.078125 0.070312 0.023438 0.03125 0.050782 0.058594 0.074219 0.085938 0.30078 0.30078 0.92188 0.92188 1.6602 0.48047 0.30078-0.17969 0.48438-0.50781 0.48438-0.85938v-14.344l0.007813-0.054687c0.015625-0.070313 0.035156-0.12891 0.03125-0.12891 0.019531-0.042969 0.039062-0.085938 0.066406-0.125 0.015625-0.019531 0.027344-0.039063 0.042969-0.0625l0.042968-0.042969c0.042969-0.023438 0.082032-0.046875 0.12891-0.089844l0.046875-0.027344c0.039062-0.015624 0.074218-0.019531 0.070312-0.019531 0.22656-0.035156 0.37891 0.0625 0.44922 0.12109s0.18359 0.1875 0.18359 0.39844v14.371c0 0.35156 0.18359 0.67969 0.48438 0.85938 0.73438 0.4375 1.3594-0.18359 1.7148-0.54297 0.03125-0.023437 0.0625-0.050781 0.089843-0.078124l0.35156-0.36328c1.4648-1.6016 4.1562-4.9336 4.3125-5.1328 0.019531-0.023438 0.035156-0.046875 0.054687-0.070313 0.035157-0.03125 0.066407-0.0625 0.09375-0.097656 0.042969-0.035156 0.097657-0.066406 0.16406-0.09375 0.054687-0.015625 0.12109-0.03125 0.17969-0.03125l0.13281 0.015625s0.039062 0.011719 0.066406 0.023438c0.027344 0.019531 0.058594 0.03125 0.085938 0.050781l0.0625 0.050781c0.097656 0.09375 0.16016 0.21094 0.17578 0.33203 0.019531 0.12109-0.007813 0.24609-0.078125 0.35156l-4.3594 6.0547c-0.39062 0.54688-0.71875 1.0977-0.99219 1.668-0.62891 1.2695-1.0117 2.6328-1.1367 4.0234-0.011718 0.13672-0.015624 0.26953-0.023437 0.40625-0.007813 0.14453-0.019531 0.28516-0.023437 0.42969-0.007813 0.55859 0.023437 1.1211 0.097656 1.6836 0.023437 0.18359 0.058594 0.35938 0.089844 0.51953l0.33203 1.7578c1.0391 5.0117 2.3672 9.5938 3.0273 11.758h-10.867c0.73047-2.3828 2.2656-7.6953 3.3125-13.316zm-49.926 0.19922c0.25391-0.29688 0.3125-0.71484 0.15234-1.0703-0.16406-0.35547-0.51953-0.58203-0.91016-0.58203l-5.918-0.003906 7.4102-9.1719c0.24219-0.30078 0.28906-0.71094 0.125-1.0586-0.16406-0.34766-0.51562-0.57031-0.90234-0.57031h-4.6406l6.7383-8.4609c0.23828-0.30078 0.28516-0.71094 0.11719-1.0586-0.16406-0.34766-0.51562-0.56641-0.89844-0.56641h-3.0312l7.125-8.4609 7.125 8.4609h-3.0352c-0.38281 0-0.73438 0.21875-0.89844 0.56641-0.16797 0.34766-0.12109 0.75781 0.11719 1.0586l6.7383 8.4609h-4.6328c-0.38672 0-0.73438 0.22266-0.90234 0.57031-0.16406 0.34766-0.11719 0.76172 0.125 1.0586l7.4102 9.1719h-5.9297c-0.39062 0-0.74609 0.22656-0.91016 0.58203-0.16406 0.35547-0.10547 0.77344 0.15234 1.0703l8.0938 9.3906h-26.914l8.0938-9.3906zm24.363 15.121h56.359v10.141h-56.359zm9.2383 16.969v-4.8281h37.879v4.8281zm-2.7891-4.8281h0.78906v4.8281h-0.78906zm-24.242-8.1641c-0.35938-0.03125-0.71875-0.066406-1.0859-0.085937-0.03125-0.003906-0.0625 0-0.09375-0.003906-0.43359-0.019532-0.86719-0.039063-1.3086-0.039063-0.22266 0-0.44531 0.003906-0.67188 0.007813v-7.5898h3.9102v7.7734c-0.066406-0.007812-0.13281-0.011719-0.19922-0.019531-0.18359-0.019531-0.36719-0.03125-0.55078-0.050781zm-4.1055 1.9219c1.3086-0.070312 2.6484-0.046875 3.9414 0.070313 0.12109 0.011719 0.24609 0.015625 0.36719 0.027343 0.035157 0.003907 0.070313 0.011719 0.10547 0.015626 0.43359 0.046874 0.85938 0.10547 1.2773 0.17578 4.0234 0.66406 7.2383 2.2852 8.5977 4.3359 0.17188 0.25781 0.45312 0.42578 0.76562 0.44531 0.32422 0.019531 0.61328-0.10547 0.82031-0.33594 0.71875-0.81641 2.1484-1.7227 4.0195-1.8906v2.3984c0 0.55078 0.44531 1 1 1h5.4492v4.8281h-2.1211c-0.28906 0-0.57422 0.027343-0.85547 0.085937-0.83594 0.16406-1.5977 0.57422-2.1953 1.1836v0.003906l-0.003906 0.003906c-0.14062 0.14063-0.25781 0.29688-0.375 0.45313-0.054687 0.070312-0.11719 0.12891-0.16797 0.20312-0.10547 0.15625-0.18359 0.32813-0.26563 0.49609-0.042968 0.085938-0.097656 0.16016-0.13281 0.24609-0.074219 0.17969-0.12109 0.36719-0.17188 0.55859-0.023437 0.085937-0.058594 0.16406-0.074219 0.25-0.054687 0.27734-0.085937 0.5625-0.085937 0.85547 0 0.26953 0.03125 0.53125 0.078125 0.78906 0.007812 0.042969 0.015625 0.085937 0.023437 0.12891 0.054688 0.24219 0.12891 0.47656 0.21875 0.70312 0.019531 0.042969 0.035157 0.085938 0.058594 0.12891 0.10156 0.22656 0.21484 0.44531 0.35156 0.64844 0.011718 0.019531 0.027343 0.035156 0.039062 0.050781 0.13672 0.19531 0.28516 0.37891 0.45312 0.54688 0.027344 0.027344 0.050781 0.054688 0.074219 0.078125 0.13281 0.12891 0.26953 0.25391 0.41797 0.36719-0.050781 0.007812-0.097656 0.019531-0.14453 0.027343-0.097656 0.015626-0.19141 0.039063-0.28516 0.058594-0.19922 0.039063-0.39844 0.085938-0.58984 0.13672-0.09375 0.023437-0.1875 0.050781-0.28125 0.074219-0.21484 0.0625-0.42188 0.12891-0.625 0.20312-0.058593 0.019531-0.11719 0.039062-0.17188 0.058593-0.25391 0.097657-0.49609 0.20313-0.73047 0.31641-0.058594 0.027343-0.11328 0.0625-0.17188 0.09375-0.17187 0.089843-0.33984 0.18359-0.5 0.28125-0.070312 0.042969-0.13672 0.089843-0.20312 0.13281-0.14453 0.097657-0.28516 0.19922-0.41797 0.30469-0.054688 0.042969-0.11328 0.085937-0.16406 0.13281-0.17578 0.15234-0.34375 0.30859-0.49219 0.47266-1.3672-1.5273-3.9805-2.4766-6.9609-2.4766-1.3867 0-2.7148 0.21094-3.8945 0.60938-1.6172-2.3164-5.2461-3.8164-9.4141-3.8164-0.38672 0-0.76563 0.015625-1.1406 0.042968-0.11328 0.007813-0.22656 0.019532-0.34375 0.03125-0.26172 0.023438-0.52344 0.050782-0.77734 0.089844-0.12109 0.015625-0.23828 0.035156-0.35938 0.054688-0.26562 0.042968-0.52734 0.09375-0.78906 0.15234-0.085937 0.019531-0.17578 0.035156-0.26172 0.054687-0.34766 0.082031-0.6875 0.17578-1.0156 0.28125-0.011719 0.003906-0.019532 0.007813-0.027344 0.011719-0.31641 0.10156-0.625 0.21484-0.92188 0.33984-0.0625 0.027343-0.125 0.054687-0.1875 0.082031-0.25391 0.10938-0.49609 0.22266-0.73438 0.34375-0.050782 0.027343-0.10156 0.050781-0.15234 0.078125-0.57422 0.30859-1.0938 0.65234-1.5508 1.0352v-10.848c0-0.058594-0.003907-0.11719-0.015625-0.17578-0.019532-0.11328-0.023438-0.23437-0.023438-0.35547 0-3.3242 5.1641-6.2578 11.742-6.6719zm-11.715 21.621c0.34375-2.293 4.0547-4.1562 8.2695-4.1562 3.7578 0 7.1484 1.4609 8.0703 3.4766 0.23047 0.5 0.8125 0.71875 1.3164 0.49609 1.1055-0.49219 2.4961-0.76172 3.9219-0.76172 2.9531 0 5.1328 1.1094 5.7617 2.207 0.17969 0.3125 0.50781 0.50391 0.86719 0.50391h0.66016c0.35938 0 0.69141-0.19141 0.86719-0.50391 0.5-0.875 2.043-1.8398 4.3984-2.1211 0.33594-0.039063 0.6875-0.066406 1.0586-0.078125 0.085938-0.007812 0.16406-0.007812 0.24609-0.007812h0.003906c0.34375 0.003906 0.70703 0.023437 1.0703 0.054687 0.035157 0.003906 0.070313 0.007813 0.10938 0.011719 0.10156 0.011718 0.19922 0.03125 0.30469 0.046875v5.6797l-36.949-0.007812c0.003906-2.0625 0.015625-4.6211 0.027344-4.8438zm38.93-1.6992v-0.19141h3.0508v6.7305h-3.0508zm40.68-0.19141v1.4531c-0.070313-0.011719-0.14844-0.015625-0.21875-0.027344-0.32812-0.054687-0.66406-0.097656-1.0078-0.12891-0.13672-0.011719-0.26953-0.027344-0.41016-0.035156-0.37891-0.019532-0.76172-0.023438-1.1406-0.015625-0.13281 0.003906-0.26562 0.003906-0.39844 0.011719-0.41406 0.019531-0.82422 0.058593-1.2227 0.11328-0.089843 0.011719-0.17578 0.027343-0.26172 0.042969-0.42578 0.070312-0.84375 0.15234-1.2227 0.26562-0.39453 0.10547-0.76172 0.23438-1.1016 0.38672-0.35547-0.15625-0.71484-0.28125-1.0742-0.38281-2.0508-0.60156-4.8594-0.60156-6.8945-0.003907-0.49219 0.14063-0.94141 0.30859-1.3438 0.50391-0.23828-0.16016-0.5-0.30859-0.78516-0.4375-1.4414-0.70312-3.3867-1.0938-5.4805-1.0938s-4.0469 0.38672-5.4531 1.0742c-0.066406 0.03125-0.13281 0.0625-0.19531 0.09375-0.14062-0.050782-0.28516-0.09375-0.42969-0.13672-2-0.60547-4.7305-0.60156-6.6797-0.003907-0.10547 0.03125-0.21094 0.0625-0.3125 0.097657v-1.7852h35.629zm-35.629 3.9492c0.023438-0.011719 0.046876-0.027344 0.070313-0.039063 0.24609-0.11328 0.51562-0.21875 0.8125-0.30469 1.6016-0.49219 3.875-0.5 5.5508 0.007812 0.25391 0.070313 0.48828 0.15625 0.70312 0.24219 0.3125 0.125 0.66406 0.085937 0.94141-0.10547 0.10547-0.074219 0.22266-0.13281 0.37891-0.20312 1.1562-0.56641 2.8398-0.89062 4.6094-0.89062 1.7734 0 3.4453 0.32422 4.6172 0.89453 0.35938 0.16797 0.65625 0.35938 0.85938 0.55469 0.089844 0.089844 0.19531 0.15234 0.30859 0.19922 0.035156 0.015626 0.074219 0.019532 0.10938 0.027344 0.078125 0.023438 0.15625 0.042969 0.23438 0.046875 0.015625 0 0.027344 0.007813 0.039063 0.007813 0.050781 0 0.10156-0.015625 0.15234-0.023438 0.035157-0.003906 0.070313-0.007812 0.10156-0.015625 0.10156-0.027343 0.19922-0.066406 0.28906-0.125 0.37109-0.24219 0.86719-0.45312 1.4453-0.61719 1.6914-0.49609 4.0703-0.5 5.793 0.003906 0.39844 0.10938 0.79297 0.26172 1.168 0.45703 0.29297 0.14844 0.64062 0.14453 0.92969-0.011719 0.32812-0.17578 0.71484-0.32812 1.168-0.44922 0.36328-0.10547 0.76172-0.18359 1.1758-0.24609 0.046875-0.007812 0.085937-0.015625 0.13281-0.019531 0.38672-0.050781 0.78906-0.078125 1.1953-0.09375 0.078125-0.003907 0.15625-0.007813 0.23438-0.007813 0.38672-0.003906 0.76953 0.011719 1.1484 0.042969 0.09375 0.007813 0.18359 0.015625 0.27734 0.027344 0.375 0.039062 0.74219 0.097656 1.0859 0.17188 0.03125 0.007812 0.058594 0.015625 0.089844 0.023437v3.2266h-35.617v-2.7812zm43.906-0.33594c1.4375 0.40625 2.082 1.0469 2.082 1.3672v1.75h-3.3203v-3.3867c0.4375 0.066406 0.85156 0.15625 1.2383 0.26953zm-3.2383-1.3711v4.4883h-3.0391v-6.7305h3.0391zm5.3203-6.5703c0 0.62109-0.24219 1.2109-0.6875 1.6523-0.4375 0.4375-1.0195 0.67578-1.6445 0.67578h-51.695c-1.2852 0-2.3281-1.0469-2.3281-2.3281 0-0.625 0.24219-1.2031 0.69141-1.6484 0.43359-0.4375 1.0156-0.67969 1.6367-0.67969h51.699c1.2852 0 2.3281 1.0469 2.3281 2.3281zm-6.4414-4.3281h-0.80078v-4.8281h0.80078z"/></svg>