<svg xmlns="http://www.w3.org/2000/svg" data-name="Layer 1" viewBox="0 0 64 80" x="0px" y="0px"><path d="M30.24,40.73H13.84c-.55,0-.99,.44-1,.99,0,.15-.02,3.66,2.48,6.2,1.62,1.63,3.88,2.46,6.72,2.46s5.1-.83,6.71-2.46c2.48-2.52,2.49-5.99,2.49-6.2-.01-.55-.46-.99-1-.99Zm-2.92,5.79c-1.23,1.24-3.01,1.86-5.28,1.86s-4.05-.62-5.28-1.86c-1.21-1.21-1.66-2.79-1.82-3.79h14.2c-.17,1-.62,2.58-1.82,3.79Z"/><path d="M28.37,34.15h4.04c1.54,0,2.8-1.25,2.8-2.8,0-1.54-1.26-2.8-2.8-2.8h-4.04c-1.55,0-2.8,1.26-2.8,2.8,0,1.55,1.25,2.8,2.8,2.8Zm0-3.6h4.04c.44,0,.8,.36,.8,.8s-.36,.8-.8,.8h-4.04c-.45,0-.8-.36-.8-.8s.35-.8,.8-.8Z"/><path d="M18.51,31.35c0-1.54-1.26-2.8-2.8-2.8h-4.04c-1.55,0-2.81,1.26-2.81,2.8,0,1.55,1.26,2.8,2.81,2.8h4.04c1.54,0,2.8-1.25,2.8-2.8Zm-7.65,0c0-.44,.36-.8,.81-.8h4.04c.44,0,.8,.36,.8,.8s-.36,.8-.8,.8h-4.04c-.45,0-.81-.36-.81-.8Z"/><path d="M55.44,4.93c-.09-.22-.25-.4-.45-.51-.28-.14-6.9-3.56-20.57,2.01q-.01,.01-.02,.01c-8.7,3.56-12.78,7.75-14.54,10.18-13.06,.52-17.44,5.63-17.63,5.86-.15,.18-.23,.4-.23,.63v12.01c0,8.11,3.64,15.82,9.74,20.61,2.89,2.27,6.24,3.94,9.98,4.96,.02,.01,.04,.01,.06,.02,.08,.02,.16,.03,.25,.03h.02c.08,0,.17-.01,.25-.03,3.76-1.03,7.14-2.7,10.04-4.98,3.08-2.43,5.54-5.6,7.21-9.19,.04,.01,.08,.03,.11,.04,2.43,.69,4.96,1.05,7.55,1.05,1.2,0,2.41-.08,3.63-.23,.02,0,.03-.01,.05-.02,.09-.01,.18-.04,.27-.09,.03-.01,.06-.02,.09-.04,.02-.02,.05-.03,.08-.04,3.09-2.37,5.58-5.2,7.41-8.41,3.84-6.74,4.3-15.24,1.23-22.76l-4.53-11.11Zm-15.36,30.19c0,7.5-3.36,14.62-8.98,19.03-2.62,2.06-5.67,3.58-9.06,4.54-3.39-.96-6.44-2.48-9.07-4.54-5.62-4.41-8.97-11.53-8.97-19.03v-11.6c1.08-1.01,6.04-4.95,18.04-4.95s16.97,3.94,18.04,4.95v11.6Zm16.92,2.69c-1.65,2.9-3.9,5.46-6.67,7.63-3.46,.39-6.82,.14-10.01-.76,.57-1.5,1.01-3.06,1.3-4.66l5.57-2.28,7.59-3.09c.5-.21,.75-.78,.55-1.29-.06-.14-1.37-3.4-4.64-4.8-2.11-.91-4.52-.83-7.14,.24h-.01c-.52,.22-1.01,.46-1.46,.72v-6.41c0-.23-.09-.45-.23-.63-.2-.24-4.96-5.8-19.4-5.9,2.01-2.28,5.8-5.46,12.73-8.29,0,0,0-.01,.01-.01,11.11-4.53,17.19-2.75,18.55-2.22l4.38,10.74c2.84,6.95,2.42,14.8-1.12,21.01Zm-15.06-.08c.08-.87,.14-1.74,.14-2.61v-3.22c.62-.47,1.35-.89,2.21-1.24,2.11-.86,3.99-.95,5.59-.27,1.58,.67,2.59,1.96,3.12,2.82l-6.57,2.68-4.49,1.84Z"/><path d="M48.54,13.61l-3.74,1.53c-.69,.28-1.23,.82-1.52,1.5-.29,.69-.3,1.46-.02,2.15,.29,.69,.82,1.23,1.51,1.52,.35,.15,.72,.22,1.09,.22,.36,0,.71-.07,1.06-.21l3.74-1.52c1.43-.59,2.12-2.22,1.54-3.65-.59-1.43-2.22-2.12-3.66-1.54Zm1.36,3.34l-3.74,1.52c-.2,.08-.41,.08-.61,0-.2-.08-.35-.24-.43-.44s-.08-.41,0-.61,.24-.35,.44-.43l3.74-1.53c.1-.04,.2-.06,.3-.06,.32,0,.62,.19,.74,.5,.17,.41-.03,.88-.44,1.05Z"/></svg>