<svg xmlns="http://www.w3.org/2000/svg" viewBox="0 0 100 125" x="0px" y="0px"><title>Theme park</title><g data-name="Iconos"><path d="M47.65,52.67s0,0,0,.06,0,0,0,0a20.65,20.65,0,0,0,7.49,4.74L49.14,75.4a1.51,1.51,0,0,0,.94,1.9,1.62,1.62,0,0,0,.49.08,1.52,1.52,0,0,0,1.42-1l6.11-18a20.31,20.31,0,0,0,4.16.42,21.32,21.32,0,0,0,4.18-.42L71,71.09a1.5,1.5,0,0,0,2.83-1l-4.5-12.59a20.59,20.59,0,0,0,7.46-4.73l0,0s0,0,0-.06a20.57,20.57,0,0,0,0-29s0,0,0-.05l0,0a20.56,20.56,0,0,0-29.05,0l0,0s0,0,0,.05a20.56,20.56,0,0,0,0,29.05ZM48.8,26.81l9.83,9.84H44.72A17.45,17.45,0,0,1,48.8,26.81Zm31,9.84H65.88l9.83-9.84A17.45,17.45,0,0,1,79.79,36.65ZM75.71,49.49l-9.83-9.84H79.79A17.45,17.45,0,0,1,75.71,49.49Zm-11.95,6.2V41.77l9.83,9.84A17.53,17.53,0,0,1,63.76,55.69ZM50.92,51.61l9.84-9.84V55.69A17.53,17.53,0,0,1,50.92,51.61ZM63.76,34.53V20.61a17.46,17.46,0,0,1,9.83,4.08Zm-3,0-9.84-9.84a17.46,17.46,0,0,1,9.84-4.08Zm-2.13,5.12L48.8,49.49a17.45,17.45,0,0,1-4.08-9.84Z"/><path d="M89.45,64.52A1.5,1.5,0,1,0,91.13,62c-.22-.15-5.46-3.53-12,4.75a.71.71,0,0,0-.1.14c-.08.13-8.33,13.18-21.26,13.18a20.84,20.84,0,0,1-12-3.68,1.1,1.1,0,0,0-.25-.17c-4-2.75-7.2-6.74-10.12-11.21l-.08-.13-.05-.07L36,64a5.54,5.54,0,0,0,.43-6.26L34.82,55a1.5,1.5,0,0,0-2.06-.52L30.08,56,30,55.94l.84-1a5.53,5.53,0,0,0,.49-6.25l-1.6-2.76a1.49,1.49,0,0,0-2.05-.54l-2.25,1.31.4-.64a5.52,5.52,0,0,0-.27-6.26l-1.93-2.54a1.5,1.5,0,0,0-2.1-.29L19,38.9l.18-1.79a5.54,5.54,0,0,0-3.29-5.34L13,30.5a1.51,1.51,0,0,0-2,.77L9.31,35.1H9a1.5,1.5,0,1,0,0,3,9.17,9.17,0,0,1,2.18.28V85.59H9a1.5,1.5,0,1,0,0,3H90.29a1.5,1.5,0,0,0,0-3H89.16V64.39A1.44,1.44,0,0,1,89.45,64.52Zm-14,11.09v10H67.75V80.81A31.15,31.15,0,0,0,75.46,75.61ZM64.75,82v3.6h-7.7V83.08l.71,0A22.75,22.75,0,0,0,64.75,82Zm-10.7,3.6H46.34V80.25a23.15,23.15,0,0,0,7.71,2.57ZM43.34,78.35v7.24H35.63V70.53A38.39,38.39,0,0,0,43.34,78.35ZM24.93,53l2,3.56c1.79,3.2,3.65,6.51,5.69,9.67V85.59h-7.7ZM33,57.78l.87,1.45a2.52,2.52,0,0,1-.2,2.85l-.06.07c-.7-1.15-1.38-2.33-2.06-3.51Zm-5.09-9.06.85,1.46A2.51,2.51,0,0,1,28.53,53l-.09.11c-.67-1.2-1.35-2.39-2-3.54Zm-5.74-8.47,1,1.34a2.5,2.5,0,0,1,.12,2.85l-.09.15a40.21,40.21,0,0,0-2.51-3.24Zm-9-6.4,1.55.67a2.5,2.5,0,0,1,1.5,2.35l0,.38a13.65,13.65,0,0,0-3.75-1.71Zm1.09,5.73a15.41,15.41,0,0,1,2.13,1.58l.11.09c.33.3.66.62,1,1l.09.09A38.69,38.69,0,0,1,21.93,48V85.59H14.22Zm64.24,46v-13a34.2,34.2,0,0,0,3.06-4,12.56,12.56,0,0,1,4.64-3.94v21Z"/></g><g data-name="Puntos"><path d="M64.88,13.92a2.63,2.63,0,1,0-2.62,2.63A2.63,2.63,0,0,0,64.88,13.92Z"/><path d="M50.15,19.79a2.62,2.62,0,0,0,2.27-3.93h0a2.62,2.62,0,1,0-2.26,3.93Z"/><path d="M42.59,23.77a2.57,2.57,0,0,0-2-.27A2.61,2.61,0,0,0,39,24.72a2.58,2.58,0,0,0-.27,2A2.63,2.63,0,0,0,40,28.31a2.68,2.68,0,0,0,1.31.35,2.72,2.72,0,0,0,.69-.09,2.62,2.62,0,0,0,1.85-3.21A2.61,2.61,0,0,0,42.59,23.77Z"/><path d="M35.41,38.15A2.62,2.62,0,1,0,38,35.53,2.62,2.62,0,0,0,35.41,38.15Z"/><path d="M52.42,60.44a2.63,2.63,0,0,0-4.55-2.63h0a2.61,2.61,0,0,0-.26,2,2.63,2.63,0,0,0,1.22,1.59,2.58,2.58,0,0,0,1.31.35A2.63,2.63,0,0,0,52.42,60.44Z"/><path d="M59.63,62.37a2.63,2.63,0,1,0,2.63-2.62A2.63,2.63,0,0,0,59.63,62.37Z"/><path d="M73.06,56.86a2.61,2.61,0,0,0-1,3.58h0a2.62,2.62,0,0,0,2.27,1.31,2.62,2.62,0,0,0,2.53-1.94,2.62,2.62,0,0,0-3.84-3Z"/><path d="M89.1,38.15a2.62,2.62,0,1,0-2.62,2.62A2.62,2.62,0,0,0,89.1,38.15Z"/><path d="M83.91,23.5a2.62,2.62,0,1,0-1.35,5.07,2.59,2.59,0,0,0,.68.09,2.68,2.68,0,0,0,1.31-.35,2.62,2.62,0,0,0-.64-4.81Z"/><path d="M74.36,19.79a2.63,2.63,0,0,0,2.28-1.31h0a2.62,2.62,0,1,0-3.58,1A2.57,2.57,0,0,0,74.36,19.79Z"/><path d="M81.92,48a2.64,2.64,0,0,0-1,3.59h0a2.63,2.63,0,0,0,2.28,1.31,2.67,2.67,0,0,0,1.3-.35,2.63,2.63,0,0,0,1-3.59A2.64,2.64,0,0,0,81.92,48Z"/><path d="M40,48a2.63,2.63,0,0,0-1,3.58h0a2.63,2.63,0,0,0,2.28,1.31A2.62,2.62,0,0,0,43.55,49,2.64,2.64,0,0,0,40,48Z"/></g></svg>