<?xml version="1.0" encoding="UTF-8" standalone="no"?>
<svg
   version="1.1"
   viewBox="-5 -10 135 135"
   id="svg1"
   sodipodi:docname="noun-graduation-6929868.svg"
   width="135"
   height="135"
   inkscape:version="1.3 (0e150ed6c4, 2023-07-21)"
   xmlns:inkscape="http://www.inkscape.org/namespaces/inkscape"
   xmlns:sodipodi="http://sodipodi.sourceforge.net/DTD/sodipodi-0.dtd"
   xmlns="http://www.w3.org/2000/svg"
   xmlns:svg="http://www.w3.org/2000/svg">
  <defs
     id="defs1" />
  <sodipodi:namedview
     id="namedview1"
     pagecolor="#ffffff"
     bordercolor="#000000"
     borderopacity="0.25"
     inkscape:showpageshadow="2"
     inkscape:pageopacity="0.0"
     inkscape:pagecheckerboard="0"
     inkscape:deskcolor="#d1d1d1"
     inkscape:zoom="4.2111111"
     inkscape:cx="-27.07124"
     inkscape:cy="65.184697"
     inkscape:window-width="2560"
     inkscape:window-height="1351"
     inkscape:window-x="3831"
     inkscape:window-y="1115"
     inkscape:window-maximized="1"
     inkscape:current-layer="svg1" />
  <path
     d="m 98.6389,45.855198 c -0.70313,0.83984 -1.625,1.5039 -2.7031,1.886699 l -5.2266,1.8672 v 21.582 c 0,3.5508 -2.0078,6.7969 -5.1797,8.386701 l -21.875,10.938 c -2.6406,1.3203 -5.75,1.3203 -8.3906,0 l -21.875,-10.938 c -3.1719,-1.5898 -5.1797,-4.8359 -5.1797,-8.3867 v -21.523 l -5.3945,-1.9258 c -2.4883,-0.890621 -4.1484,-3.2422 -4.1484,-5.8867 0,-2.6406 1.6602,-4.9961 4.1484,-5.886701 l 33.406,-11.93 c 2.043,-0.726559 4.2695,-0.726559 6.3086,0 l 33.406,11.93 c 1.7148,0.60938 3.0312,1.921901 3.6875,3.5352 1.4844,0.44141 2.8516,1.2461 3.9648,2.3594 1.7578,1.757801 2.7461,4.1406 2.7461,6.628901 v 15.625 c 0,1.726599 -1.3984,3.125 -3.125,3.125 -1.7266,0 -3.125,-1.398401 -3.125,-3.125 v -15.625 c 0,-0.82812 -0.32812,-1.625 -0.91406,-2.210901 -0.16406,-0.160159 -0.34375,-0.30469 -0.53125,-0.42578 z m -12.473,-6.7383 -25.738,-9.1953 c -0.67969,-0.23828 -1.4258,-0.23828 -2.1016,0 l -33.41,11.934 33.41,11.93 c 0.67578,0.24609 1.4219,0.24609 2.1016,0 l 23.574,-8.418 h -15.168 c -1.7266,0 -3.125,-1.398401 -3.125,-3.125 0,-1.7266 1.3984,-3.125 3.125,-3.125 z m -51.707,12.785 v 19.289 c 0,1.1836 0.66797,2.2656 1.7266,2.793 l 21.875,10.938 c 0.87891,0.44141 1.918,0.44141 2.7969,0 l 21.875,-10.938 c 1.0586,-0.52734 1.7266,-1.6094 1.7266,-2.793 v -19.352 l -21.93,7.832 c -2.0391,0.73047 -4.2656,0.73047 -6.3086,0 z"
     fill-rule="evenodd"
     id="path1" />
</svg>
