<svg xmlns="http://www.w3.org/2000/svg" version="1.1" viewBox="-5.0 -10.0 110.0 135.0">
 <g>
  <path d="m56.801 34.34h-0.15625v-2.6914c-0.003906-1.7266-1.1133-3.2539-2.75-3.8008-12.012-4.0859-25.035-4.0859-37.047 0-1.6367 0.54688-2.7422 2.0742-2.7461 3.8008v2.6914h-0.16797c-2.1719 0.007812-3.9297 1.7695-3.9336 3.9414v6.6172c0 2.1758 1.7578 3.9375 3.9336 3.9414h0.16797v16.125c0.007813 1.9336 1.3711 3.5938 3.2656 3.9727v3.1797c0 1.7188 1.3945 3.1094 3.1133 3.1133h2.5078c1.7188-0.003907 3.1094-1.3945 3.1133-3.1133v-3.1016h18.543v3.1016c0 1.7188 1.3945 3.1094 3.1133 3.1133h2.5078-0.003906c1.7188-0.003907 3.1133-1.3945 3.1133-3.1133v-3.1797c1.8945-0.37891 3.2617-2.0391 3.2695-3.9727v-16.125h0.15625c2.1758 0 3.9375-1.7656 3.9414-3.9414v-6.6172c-0.003907-2.1719-1.7656-3.9375-3.9414-3.9414zm-26.977-6h11.094c1.293 0.027344 2.332 1.0859 2.332 2.3828 0 1.293-1.0391 2.3516-2.332 2.3789h-11.094c-1.2969-0.027343-2.332-1.0859-2.332-2.3789 0-1.2969 1.0352-2.3555 2.332-2.3828zm-7.8633 35.398v0.003907c-1.9453-0.003907-3.6992-1.1758-4.4453-2.9766-0.74219-1.7969-0.33203-3.8672 1.0469-5.2461 1.375-1.375 3.4453-1.7852 5.2422-1.043 1.8008 0.74219 2.9727 2.4961 2.9766 4.4453-0.003906 2.6602-2.1602 4.8125-4.8203 4.8164zm12.051-14.852c0 0.26172-0.10156 0.51172-0.28516 0.69531-0.18359 0.18359-0.43359 0.28516-0.69141 0.28125h-15.289c-0.25781 0-0.50781-0.10156-0.69141-0.28516-0.18359-0.18359-0.28516-0.42969-0.28516-0.69141v-13.57c0.003907-0.53906 0.4375-0.97266 0.97656-0.97656h15.289c0.25781 0 0.50781 0.10156 0.69141 0.28516 0.18359 0.18359 0.28516 0.43359 0.28516 0.69141zm1.7188 0-0.003907-13.57c0.003907-0.53906 0.4375-0.97266 0.97656-0.97656h15.297c0.53906 0.003906 0.97266 0.4375 0.97656 0.97656v13.57c0 0.26172-0.10156 0.50781-0.28516 0.69141s-0.43359 0.28516-0.69141 0.28516h-15.301c-0.25781 0-0.50391-0.10156-0.6875-0.28516-0.18359-0.18359-0.28516-0.43359-0.28516-0.69141zm13.051 14.852c-1.9453-0.003906-3.6992-1.1758-4.4453-2.9766-0.74609-1.7969-0.33203-3.8672 1.043-5.2422 1.3789-1.3789 3.4453-1.7891 5.2461-1.0469 1.8008 0.74219 2.9727 2.4961 2.9766 4.4453-0.003906 2.6602-2.1602 4.8164-4.8203 4.8203z"/>
  <path d="m89.023 24.77h-22.516c-0.26172 0-0.50781 0.10156-0.69141 0.28516-0.18359 0.18359-0.28516 0.43359-0.28516 0.69141v14.867c0 0.26172 0.10156 0.51172 0.28516 0.69531s0.42969 0.28516 0.69141 0.28125h8.1875l-0.003906 26.82h-0.38281 0.003906c-2.5469 0.003906-4.6094 2.0664-4.6133 4.6133v1.2305c0 0.25781 0.10156 0.50781 0.28516 0.69141 0.18359 0.18359 0.43359 0.28516 0.69141 0.28516h14.172c0.26172 0 0.51172-0.10156 0.69531-0.28516 0.17969-0.18359 0.28516-0.43359 0.28125-0.69141v-1.2305c0-2.543-2.0625-4.6094-4.6055-4.6133h-0.39062v-26.82h8.1992c0.26172 0 0.50781-0.10156 0.6875-0.28516 0.18359-0.18359 0.28516-0.42969 0.28516-0.69141v-14.867c0-0.25781-0.10156-0.50781-0.28516-0.69141-0.18359-0.18359-0.43359-0.28516-0.69141-0.28516z"/>
 </g></svg>