<svg xmlns="http://www.w3.org/2000/svg" xmlns:xlink="http://www.w3.org/1999/xlink" version="1.1" x="0px" y="0px" viewBox="0 0 468 585" style="enable-background:new 0 0 468 468;" xml:space="preserve">
<g><path d="M468,24.025v-24h-81.997C385.835,0.019,385.67,0,385.5,0c-34.738,0-63,28.262-63,63v367.5c0,20.678,16.822,37.5,37.5,37.5   s37.5-16.822,37.5-37.5V273.997H468v-24h-70.5v-25.994H468v-24h-70.5v-25.995H468v-24h-70.5v-25.994H468v-24h-70.5V74.02H468v-24   h-70.5V24.025H468z"/>
<g><path d="M249,342.986h-86c-6.627,0-12,5.373-12,12v84.988c0,15.439,12.561,28,28,28h54c15.439,0,28-12.561,28-28v-84.988    C261,348.359,255.627,342.986,249,342.986z"/>
<g><rect x="96" y="332.897" width="24" height="24"/><path d="M108,311.992c6.627,0,12-5.373,12-12V235c0-6.627-5.373-12-12-12H96.667v-60.992c0-4.453-2.466-8.54-6.406-10.616     l-49.333-25.996c-7.621-4.317-17.86,1.863-17.594,10.616V223H12c-6.627,0-12,5.373-12,12v204.975c0,15.439,12.561,28,28,28h64     c15.439,0,28-12.561,28-28v-61.991H96v61.991c0,2.206-1.794,4-4,4H28c-2.206,0-4-1.794-4-4V311.992H108z M24,247h72v40.992H24     V247z"/></g></g><g><path d="M210.029,216.821c-2.456,0-4.909-0.752-6.999-2.252c-3.307-2.374-80.973-58.894-80.973-125.172    c0-49.28,39.464-89.372,87.971-89.372S298,40.117,298,89.397c0,68.955-77.877,123.057-81.193,125.326    C214.762,216.123,212.395,216.821,210.029,216.821z M210.029,24.025c-35.274,0-63.971,29.326-63.971,65.372    c0,43.913,46.292,85.828,64.105,100.328C227.97,175.692,274,134.998,274,89.397C274,53.352,245.303,24.025,210.029,24.025z"/><path d="M210.029,44.881c-23.191,0-42.059,19.028-42.059,42.417s18.868,42.417,42.059,42.417c23.192,0,42.06-19.028,42.06-42.417    S233.221,44.881,210.029,44.881z"/></g></g></svg>