<svg xmlns="http://www.w3.org/2000/svg" version="1.1" viewBox="-5.0 -10.0 110.0 135.0">
 <g>
  <path d="m50.191 21.363-22.988 50.309c-0.17969 0.39844-0.1875 0.85156-0.019531 1.2539 0.16797 0.40234 0.5 0.71484 0.90625 0.86328l52.051 18.898c0.17188 0.0625 0.35156 0.09375 0.53125 0.09375 0.24609 0 0.49219-0.058594 0.71875-0.17578 0.38672-0.19922 0.67188-0.55469 0.78906-0.97656l14.641-53.34c0.21484-0.78516-0.20703-1.6055-0.97266-1.8828l-43.703-15.867c-0.76172-0.27734-1.6172 0.078126-1.9531 0.82031zm2.2422 2.6094 40.992 14.883-13.812 50.316-48.867-17.742z"/>
  <path d="m66.34 49.555c1.3633 0.49219 2.7578 0.73047 4.1289 0.73047 4.9609 0 9.625-3.0664 11.414-7.9922l0.83984-2.3125c0.29297-0.8125-0.125-1.707-0.9375-2-0.80859-0.29297-1.707 0.125-2 0.9375l-0.83984 2.3125c-1.6953 4.668-6.875 7.0859-11.539 5.3906-4.668-1.6953-7.0859-6.8711-5.3906-11.539l0.83984-2.3125c0.29297-0.8125-0.125-1.707-0.9375-2s-1.707 0.125-2 0.9375l-0.83984 2.3125c-2.2812 6.2891 0.97656 13.262 7.2617 15.543z"/>
  <path d="m17.305 84.965c0.10937 0.42188 0.39453 0.77734 0.78125 0.98047 0.22656 0.12109 0.47656 0.17969 0.73047 0.17969 0.17578 0 0.35156-0.03125 0.51953-0.089844l14.781-5.207c0.8125-0.28906 1.2422-1.1797 0.95312-1.9922-0.28906-0.8125-1.1797-1.2422-1.9922-0.95313l-13.184 4.6445-13.328-50.441 9.2812-3.2695 31.895-11.234 0.44531 0.91016c0.37891 0.77344 1.3164 1.0938 2.0938 0.71094 0.77344-0.38281 1.0938-1.3164 0.71094-2.0938l-1.0586-2.1523c-0.35156-0.71094-1.1758-1.0469-1.9219-0.78516l-9.1719 3.2305-0.40625-1.1523c-2.4766-7.0312-10.215-10.734-17.246-8.2578-3.4062 1.2031-6.1406 3.6562-7.6992 6.9141-1.5586 3.2578-1.7578 6.9258-0.55859 10.332l0.40625 1.1523-9.168 3.2305c-0.76562 0.26953-1.1992 1.0859-0.99219 1.875l14.129 53.477zm-1.4258-60.77c-0.92188-2.6172-0.77344-5.4375 0.42969-7.9453 1.1992-2.5039 3.3008-4.3906 5.9219-5.3125 5.4062-1.9062 11.352 0.94531 13.258 6.3477l0.40625 1.1523-19.609 6.9062-0.40625-1.1523z"/>
 </g></svg>