<svg xmlns="http://www.w3.org/2000/svg" version="1.1" viewBox="-5.0 -10.0 110.0 135.0">
 <path d="m86.055 37.988c-0.70313 0.83984-1.625 1.5039-2.7031 1.8867l-33.406 11.93c-2.0391 0.73047-4.2656 0.73047-6.3086 0l-33.406-11.93c-2.4883-0.89062-4.1484-3.2422-4.1484-5.8867 0-2.6406 1.6602-4.9961 4.1484-5.8867l33.406-11.93c2.043-0.72656 4.2695-0.72656 6.3086 0l33.406 11.93c1.7148 0.60938 3.0312 1.9219 3.6875 3.5352-0.85547-0.25391-1.7539-0.38672-2.6641-0.38672h-28.125c-1.7266 0-3.125 1.3984-3.125 3.125s1.3984 3.125 3.125 3.125h28.125c0.60156 0 1.1797 0.17188 1.6797 0.48828zm0.98437-6.3516c1.4844 0.44141 2.8516 1.2461 3.9648 2.3594 1.7578 1.7578 2.7461 4.1406 2.7461 6.6289v15.625c0 1.7266-1.3984 3.125-3.125 3.125s-3.125-1.3984-3.125-3.125v-15.625c0-0.82812-0.32812-1.625-0.91406-2.2109-0.16406-0.16016-0.34375-0.30469-0.53125-0.42578 0.91016-1.0977 1.4453-2.5039 1.4453-4 0-0.82422-0.16406-1.6211-0.46094-2.3516zm-8.9141 16.742v14.945c0 3.5508-2.0078 6.7969-5.1797 8.3867l-21.875 10.938c-2.6406 1.3203-5.75 1.3203-8.3906 0l-21.875-10.938c-3.1719-1.5898-5.1797-4.8359-5.1797-8.3867v-14.887l25.914 9.2539 5.25 0.91016 5.2578-0.91016z" fill-rule="evenodd"/></svg>