<svg xmlns="http://www.w3.org/2000/svg" version="1.1" viewBox="-5.0 -10.0 110.0 135.0">
 <g>
  <path d="m41.609 75.375 38 13.797 13.812-50.312-40.984-14.891-21.688 47.453 10.641 3.875c0.078125 0.015625 0.14062 0.046875 0.21875 0.078125zm17.469-41.359 0.84375-2.3125c0.29688-0.8125 1.1875-1.2344 2-0.9375s1.2344 1.1875 0.9375 2l-0.84375 2.3125c-1.6875 4.6719 0.71875 9.8438 5.3906 11.547 4.6719 1.6875 9.8438-0.73438 11.547-5.3906l0.82812-2.3125c0.29688-0.8125 1.2031-1.2344 2.0156-0.9375 0.79688 0.29688 1.2188 1.1875 0.92188 2l-0.82812 2.3125c-1.7969 4.9219-6.4688 7.9844-11.422 7.9844-1.375 0-2.7656-0.23438-4.125-0.71875-6.2969-2.2812-9.5469-9.2656-7.2656-15.547z"/>
  <path d="m3.1719 31.484 14.125 53.484c0.125 0.42188 0.40625 0.78125 0.78125 0.98438 0.23438 0.10938 0.48438 0.17188 0.73438 0.17188 0.17188 0 0.35938-0.03125 0.51562-0.078125l21.562-7.6094-4.625-1.6719-8.1719-2.9688c-0.42188-0.15625-0.75-0.46875-0.90625-0.875-0.17188-0.40625-0.17188-0.85938 0.015625-1.25l22.578-49.406 0.40625-0.90625c0.34375-0.73438 1.1875-1.0938 1.9531-0.8125l0.34375 0.125-2.5312-5.6719c-0.32812-0.73438-1.1719-1.0938-1.9375-0.82812l-9.1719 3.2344-0.40625-1.1562c-2.4844-7.0312-10.219-10.734-17.25-8.2656-3.4062 1.2031-6.1406 3.6562-7.7031 6.9219-1.5625 3.25-1.75 6.9219-0.54688 10.328l0.40625 1.1406-9.1719 3.2344c-0.76562 0.28125-1.2031 1.0938-1 1.875zm12.703-7.2812c-0.92188-2.625-0.76562-5.4531 0.4375-7.9531 1.1875-2.5 3.2969-4.3906 5.9219-5.3125 5.4062-1.9062 11.344 0.9375 13.25 6.3438l0.40625 1.1562-19.609 6.9062z"/>
 </g></svg>