<svg xmlns="http://www.w3.org/2000/svg" viewBox="0 0 100 125" x="0px" y="0px"><path d="M14.93,92.56c.58,1.52,1.72,2.73,3.21,3.39,.8,.36,1.64,.53,2.49,.53,.74,0,1.47-.14,2.18-.41l35.99-13.76c3.14-1.2,4.72-4.74,3.52-7.88l-10.66-27.88c-.58-1.52-1.72-2.73-3.21-3.39-1.49-.66-3.15-.71-4.67-.13L7.79,56.8c-1.52,.58-2.73,1.72-3.39,3.21-.67,1.49-.71,3.15-.13,4.67l10.66,27.88Zm-7.79-31.33c.34-.76,.95-1.34,1.72-1.63l35.99-13.76c.36-.14,.74-.21,1.11-.21,.43,0,.86,.09,1.26,.27,.76,.34,1.34,.95,1.63,1.73l8.29,21.67-14.05-8.82c-1.4-.88-3.09-1.05-4.64-.45-1.55,.59-2.69,1.84-3.15,3.43l-1.86,6.48-5.71-3.58c-1.4-.88-3.09-1.05-4.64-.45-1.55,.59-2.69,1.84-3.15,3.43l-4.58,15.95L7.08,63.61c-.3-.77-.27-1.62,.07-2.37Zm52.38,14.28c.61,1.6-.19,3.4-1.79,4.01l-35.99,13.76c-.77,.3-1.62,.27-2.37-.07-.76-.34-1.34-.95-1.63-1.73l-.24-.62,13.96-5.34s0,0,0,0l27.83-10.64,.24,.62Zm-26.33,6.14l4.99-17.37c.19-.68,.68-1.21,1.34-1.46,.26-.1,.53-.15,.8-.15,.41,0,.82,.11,1.18,.34l15.31,9.61-23.61,9.03Zm-3.51,1.34l-11.85,4.53,4.99-17.37c.19-.68,.68-1.21,1.34-1.46,.26-.1,.53-.15,.8-.15,.41,0,.82,.11,1.18,.34l6.44,4.04-2.89,10.06Z"/><path d="M29.42,64.06s.04,0,.06,0c1.24-.02,2.39-.51,3.26-1.4s1.33-2.05,1.31-3.29c-.02-1.24-.51-2.39-1.4-3.26-.89-.86-2.08-1.34-3.29-1.31-1.24,.02-2.39,.51-3.26,1.4s-1.33,2.05-1.31,3.29c.02,1.24,.51,2.39,1.4,3.26,.87,.85,2.02,1.31,3.23,1.31Zm0-6.26c.43,0,.83,.16,1.14,.46,.31,.3,.49,.71,.49,1.15,0,.44-.16,.85-.46,1.16s-.71,.49-1.15,.49c-.46,0-.85-.16-1.16-.46-.31-.3-.49-.71-.49-1.15,0-.44,.16-.85,.46-1.16s.71-.49,1.15-.49h.02Z"/><path d="M94.95,78.23c-.02-.09-.07-.16-.09-.25,0-.1-.02-.19-.04-.29l-4.3-17-1.72-6.8c-.11-.43-.4-.79-.79-.98-.4-.19-.86-.2-1.26-.03l-19.54,8.56c-.67,.29-1.03,1.03-.85,1.74l1.72,6.8s.02,.04,.03,.07c0,.03,0,.05,.01,.08l3.55,14.04c-1.24-.03-2.63,.35-4.01,1.15-3.26,1.87-5.23,5.22-4.59,7.79,.28,1.11,1.02,1.97,2.08,2.42,.56,.24,1.17,.35,1.83,.35,1.21,0,2.55-.39,3.88-1.16,3.26-1.87,5.23-5.22,4.59-7.79-.02-.09-.07-.16-.09-.25,0-.1-.02-.19-.04-.29l-4.02-15.91,16.75-7.34,3.12,12.33c-1.24-.03-2.63,.35-4.01,1.15-3.26,1.87-5.23,5.22-4.59,7.79,.28,1.11,1.02,1.97,2.08,2.42,.56,.24,1.18,.35,1.83,.35,1.21,0,2.55-.39,3.88-1.16,3.26-1.87,5.23-5.22,4.58-7.79Zm-9.13,5.83c-.2-.08-.29-.19-.34-.39-.24-.96,.85-3.12,3.17-4.45,.94-.54,1.79-.75,2.4-.75,.26,0,.48,.04,.65,.11,.2,.08,.29,.19,.34,.39,.24,.96-.85,3.12-3.17,4.45-1.34,.77-2.5,.88-3.05,.64Zm-15.27-16.53l-.97-3.85,16.75-7.34,.97,3.85-16.75,7.34Zm-4.23,25.23c-.2-.08-.29-.19-.34-.39-.24-.96,.85-3.12,3.17-4.45,.94-.54,1.79-.75,2.4-.75,.26,0,.48,.04,.65,.11,.2,.08,.29,.19,.34,.39,.24,.96-.85,3.12-3.17,4.45-1.34,.77-2.5,.88-3.05,.64Z"/><path d="M11.66,32.1c.78,.18,1.56,.27,2.31,.27,2.61,0,4.94-1.02,5.87-2.73,.05-.09,.07-.18,.11-.27,.05-.06,.1-.12,.14-.19l7.3-13.35,15.91,5.54-5.57,10.18c-.84-.77-2.01-1.36-3.42-1.69-3.46-.8-6.98,.26-8.19,2.46-.53,.96-.57,2.05-.12,3.06,.67,1.49,2.3,2.63,4.49,3.13,.78,.18,1.56,.27,2.31,.27,2.61,0,4.94-1.02,5.87-2.73,.05-.09,.07-.18,.11-.27,.05-.06,.1-.12,.14-.19l7.84-14.34,3.14-5.74c.21-.39,.24-.85,.08-1.26-.16-.41-.49-.73-.91-.88L30.32,6.84c-.69-.24-1.46,.05-1.81,.7l-3.14,5.74s-.02,.04-.03,.06c-.01,.02-.03,.04-.04,.06l-6.42,11.73c-.84-.77-2.01-1.36-3.42-1.69-3.46-.8-6.98,.26-8.19,2.46-.53,.96-.57,2.05-.12,3.06,.67,1.49,2.3,2.63,4.49,3.13Zm-1.74-4.76c.32-.58,1.62-1.16,3.27-1.16,.51,0,1.05,.06,1.61,.18,1.37,.32,2.21,.95,2.43,1.44,.08,.17,.05,.28-.01,.4-.42,.76-2.52,1.52-4.88,.98-1.37-.32-2.21-.95-2.43-1.44-.08-.17-.05-.28,.01-.39ZM46.44,15.63l-1.68,3.07-15.91-5.54,1.68-3.07,15.91,5.54Zm-15.26,19.96c-1.37-.32-2.21-.95-2.43-1.44-.08-.17-.05-.28,.01-.4,.32-.58,1.62-1.17,3.27-1.17,.51,0,1.05,.06,1.61,.18,1.37,.32,2.21,.95,2.43,1.44,.08,.17,.05,.28-.01,.4-.42,.76-2.53,1.52-4.88,.98Z"/><path d="M53.76,35.76l19.37,12.22c1.13,.71,2.41,1.08,3.71,1.08,.52,0,1.04-.06,1.55-.17,1.82-.41,3.36-1.51,4.36-3.08l12.22-19.37c2.05-3.25,1.08-7.57-2.18-9.62l-19.37-12.22c-1.58-.99-3.44-1.32-5.26-.9-1.82,.41-3.36,1.51-4.36,3.08l-12.22,19.37c-2.05,3.25-1.08,7.57,2.18,9.62Zm15.06-29.14c.29-.07,.59-.1,.88-.1,.74,0,1.47,.21,2.11,.61l19.37,12.22c1.85,1.17,2.41,3.63,1.24,5.48l-12.22,19.37c-.57,.9-1.45,1.52-2.48,1.75-1.04,.24-2.1,.05-3-.51l-19.37-12.22c-1.85-1.17-2.41-3.63-1.24-5.48l12.22-19.37c.57-.9,1.45-1.52,2.48-1.75Z"/><path d="M66.56,32.23l11.05,.96c.12,0,.23,.01,.35,.01,1.35,0,2.61-.69,3.35-1.85,.79-1.26,.82-2.84,.06-4.12l-5.62-9.56c-.71-1.2-1.96-1.93-3.35-1.95-1.37-.02-2.67,.67-3.41,1.85l-5.43,8.61c-.74,1.18-.82,2.63-.2,3.88,.62,1.25,1.82,2.07,3.21,2.19Zm4.96-13.07c.25-.4,.64-.45,.81-.45h.01c.16,0,.57,.05,.81,.47l5.62,9.56c.27,.46,.08,.85-.02,1-.09,.15-.38,.49-.9,.44l-11.05-.96c-.49-.04-.71-.38-.78-.53s-.21-.53,.05-.94l5.43-8.61Z"/></svg>