<svg xmlns="http://www.w3.org/2000/svg" version="1.1" viewBox="-5.0 -10.0 110.0 135.0">
 <path d="m94.031 30.812c-0.074219-0.27344-0.25391-0.50781-0.5-0.64844l-21.223-12.254v-2.9844c0-0.40625-0.23047-0.78125-0.59766-0.96094-0.76563-0.375-1.5508-0.69922-2.3555-0.98047v-0.63672c0-0.41016-0.23438-0.78125-0.60156-0.96094-3.2773-1.6016-6.9648-2.1719-10.57-1.6328l-7.6484-4.4141c-0.33203-0.19141-0.73828-0.19141-1.0703 0l-7.6484 4.4141c-3.6055-0.53906-7.293 0.03125-10.57 1.6328-0.36719 0.17969-0.60156 0.55078-0.60156 0.96094v0.63672c-0.80469 0.28125-1.5898 0.60547-2.3555 0.98047-0.36719 0.17969-0.59766 0.55469-0.59766 0.96094v2.9844l-21.223 12.25c-0.51172 0.29688-0.6875 0.95312-0.39453 1.4648l3.4102 5.9062c0.29688 0.51172 0.95312 0.6875 1.4648 0.39453l9.707-5.6016v5.3633h-3.5859c-0.58984 0-1.0664 0.47656-1.0703 1.0664v6.5273c0 0.59375 0.48047 1.0703 1.0703 1.0703h2.75v38.699l-2.75 0.003907c-0.58984 0-1.0664 0.47656-1.0703 1.0664v7.6133c0 0.58984 0.48047 1.0703 1.0703 1.0703h65.859c0.58984 0 1.0703-0.48047 1.0703-1.0703v-7.6133c0-0.59375-0.48047-1.0703-1.0703-1.0703h-2.75v-38.699h2.75v-0.003906c0.58984 0 1.0664-0.47656 1.0703-1.0664v-6.5273c0-0.58984-0.48047-1.0703-1.0703-1.0703h-3.5859v-5.3633l9.707 5.6016c0.51172 0.29297 1.168 0.11719 1.4648-0.39453l3.4102-5.9062c0.14062-0.24609 0.17578-0.53516 0.10547-0.80859zm-23.863-15.199v24.699c-3.7305-1.707-7.8008-2.543-11.898-2.4492 3.2461-0.53516 6.582-0.046875 9.5391 1.3984 0.33203 0.16406 0.72266 0.14453 1.0352-0.050781 0.31641-0.19922 0.50391-0.53906 0.50781-0.91016v-23.031c0.27734 0.10938 0.54688 0.21875 0.81641 0.33984zm-2.957-2.5781v23.633c-5.3477-2.0156-11.332-1.3828-16.141 1.707v-23.328c2.2617-1.7578 4.9531-2.875 7.793-3.2266 2.8438-0.35547 5.7266 0.0625 8.3477 1.2109zm-17.211-5.5352 5.1484 2.9727c-1.8516 0.61328-3.5898 1.5234-5.1484 2.6953-1.5586-1.1719-3.2969-2.082-5.1484-2.6914zm-1.0703 7.543v23.332c-4.8086-3.0938-10.793-3.7266-16.141-1.707v-23.637c2.6211-1.1484 5.5039-1.5664 8.3477-1.2109 2.8398 0.35156 5.5312 1.4688 7.793 3.2266zm-19.102 0.5625c0.26953-0.12109 0.53906-0.23047 0.8125-0.33984l0.003906 23.035c0 0.36719 0.19141 0.71094 0.50391 0.90625 0.3125 0.19531 0.70312 0.21875 1.0352 0.054688 2.9609-1.4453 6.293-1.9336 9.543-1.3984-4.1016-0.09375-8.168 0.74219-11.898 2.4492zm-19.023 19.93-2.3398-4.0508 19.223-11.102v5.3984zm11.996-4.4492 4.8906-2.8242v9.4258l-4.8906-0.003906v-6.6016zm-0.83594 15.27h4.4453v38.699h-4.4453zm11.031 0v38.699h-4.4453v-38.699zm31.871 0v38.699h-3.4453v-27.953c0-0.28516-0.11328-0.55859-0.31641-0.75781-0.19922-0.20312-0.47266-0.31641-0.75781-0.31641h-20.699c-0.28516 0-0.55469 0.11328-0.75391 0.31641-0.20312 0.19922-0.31641 0.47266-0.31641 0.75781v27.949h-3.4414v-38.699zm2.1406 38.699v-38.699l4.4414-0.003907v38.699zm-26.285 0v-26.883h8.207v26.879zm10.348-26.883h8.207v26.879h-8.207zm30.789 34.492h-63.719v-5.4727h63.719zm-3.8203-7.6133h-4.4453v-38.699h4.4453zm3.8203-40.84h-63.719v-4.3867h9.5508v2.2109c0 0.37891 0.19531 0.72656 0.51953 0.91797 0.32422 0.19531 0.72656 0.20312 1.0586 0.023437 6.2656-3.3711 13.676-3.9141 20.363-1.4883l0.015626 0.003907v0.003906c0.050781 0.015625 0.10156 0.027344 0.15625 0.039062h0.027343c0.054688 0.007813 0.10938 0.015625 0.16406 0.015625h0.003906c0.054688 0 0.10938-0.007812 0.16406-0.015625h0.027344c0.050782-0.011718 0.10156-0.023437 0.15234-0.039062l0.015625-0.003906v-0.003907c6.6914-2.4258 14.098-1.8867 20.367 1.4883 0.33203 0.17969 0.73047 0.17188 1.0547-0.023437 0.32422-0.19141 0.52344-0.53906 0.52344-0.91797v-2.2109h9.5469zm-4.6602-13.102v6.5742h-4.8906v-9.4219l4.8906 2.8242zm11.992 4.4219-16.883-9.7461v-5.3984l19.223 11.102zm-54.738-16.652c-0.054687-0.28125 0.003906-0.57031 0.16406-0.80469 0.15625-0.23828 0.40234-0.39844 0.68359-0.45312 3.8633-0.75 7.8711-0.25781 11.438 1.4102 0.26172 0.11719 0.46875 0.33203 0.57031 0.60156 0.10156 0.27344 0.089844 0.57031-0.035156 0.83203-0.12109 0.26172-0.34375 0.46094-0.61719 0.55469-0.27344 0.097657-0.57031 0.078125-0.82812-0.050781-3.1562-1.4766-6.6992-1.9102-10.117-1.2461-0.58203 0.11328-1.1445-0.26562-1.2578-0.84375zm18.301 1.5781v-0.003906c-0.12109-0.25391-0.13672-0.55078-0.039062-0.81641 0.097656-0.26953 0.29297-0.48438 0.55078-0.60547 3.5664-1.668 7.5703-2.1602 11.434-1.4102 0.55859 0.13281 0.91406 0.68359 0.80078 1.2461-0.10938 0.56641-0.64453 0.94141-1.2148 0.85156-3.418-0.66406-6.957-0.22656-10.113 1.2461-0.53516 0.25391-1.1719 0.023437-1.4258-0.51172zm-18.301 5.8828v-0.003906c-0.054687-0.27734 0.003906-0.56641 0.16016-0.80469 0.16016-0.23438 0.40625-0.39844 0.68359-0.45312 3.8672-0.75 7.8711-0.25781 11.438 1.4102 0.26562 0.11719 0.46875 0.33594 0.57031 0.60547 0.10156 0.26953 0.089843 0.57031-0.035157 0.83203-0.12109 0.25781-0.34375 0.46094-0.61719 0.55469-0.26953 0.09375-0.57031 0.074219-0.82812-0.054688-3.1562-1.4727-6.6953-1.9102-10.113-1.2461-0.58203 0.11328-1.1445-0.26172-1.2578-0.84375zm31.094 0v-0.003906c-0.11328 0.58203-0.67578 0.95703-1.2578 0.84375-3.418-0.66406-6.957-0.22656-10.113 1.2461-0.25781 0.12891-0.55859 0.14844-0.82812 0.054688-0.27344-0.09375-0.49609-0.29688-0.61719-0.55469-0.125-0.26172-0.13672-0.5625-0.035157-0.83203 0.10156-0.26953 0.30469-0.48828 0.57031-0.60547 3.5664-1.6641 7.5703-2.1602 11.434-1.4102 0.28125 0.054687 0.52734 0.21875 0.68359 0.45312 0.16016 0.23828 0.21875 0.52734 0.16406 0.80469z"/></svg>