<svg xmlns="http://www.w3.org/2000/svg" version="1.1" viewBox="-5.0 -10.0 110.0 135.0">
 <g>
  <path d="m59.301 15.109c-2.3789 0-4.7383 0.30859-7.0117 0.92188-2.9688-2.4688-6.7812-3.9492-10.93-3.9492-9.4414 0-17.121 7.6797-17.121 17.121 0 6.0391 3.1484 11.352 7.8906 14.398 0.14844 3.1992 0.85938 6.3008 2.0586 9.1914l-2.5586 2.5586c-1.3086 1.3086-2.0312 3.0508-2.0312 4.9102 0 1.2617 0.33984 2.4688 0.96875 3.5312l-15.199 14c-1.1797 1.0898-1.8516 2.5703-1.8789 4.1797-0.03125 1.6094 0.57031 3.1211 1.7109 4.25 1.1094 1.1094 2.5703 1.7109 4.1289 1.7109h0.12109c1.6094-0.03125 3.0898-0.69922 4.1797-1.8789l14-15.199c1.0781 0.64062 2.3008 0.96875 3.5312 0.96875 1.7812 0 3.5508-0.67969 4.9102-2.0312l2.4883-2.4883c3.3516 1.4414 6.9883 2.2109 10.738 2.2109 15 0 27.199-12.199 27.199-27.199 0.003906-15.008-12.195-27.207-27.195-27.207zm-34.301 14.09c0-9.0195 7.3398-16.359 16.359-16.359s16.359 7.3398 16.359 16.359-7.3398 16.359-16.359 16.359-16.359-7.3398-16.359-16.359zm31.34-8.2773c0.96875-0.12891 1.9609-0.21875 2.9609-0.21875 11.91 0 21.602 9.6914 21.602 21.602 0 11.91-9.6914 21.602-21.602 21.602-10.469 0-19.512-7.6719-21.27-17.922 1.0781 0.21094 2.1914 0.32812 3.3281 0.32812 9.4414 0 17.121-7.6797 17.121-17.121 0-2.9922-0.78125-5.8125-2.1406-8.2695zm-33.25 64.609c-0.94922 1.0312-2.2383 1.6094-3.6406 1.6406-1.3984 0.019531-2.7109-0.5-3.6992-1.4883-0.98828-0.98828-1.5195-2.3008-1.4883-3.6992s0.60938-2.6914 1.6406-3.6406l15.109-13.922c0.19922 0.26172 0.39844 0.51172 0.64062 0.73828l4.6211 4.6211c0.23047 0.23047 0.48828 0.44141 0.73828 0.62891zm22.449-16.281c-2.4102 2.4102-6.3281 2.4102-8.7383 0l-4.6211-4.6211c-1.1719-1.1719-1.8086-2.7188-1.8086-4.3711 0-1.6484 0.64062-3.1992 1.8086-4.3711l2.3516-2.3516c1.4102 3.1016 3.3984 5.9414 5.9219 8.3711 2.1914 2.1094 4.6914 3.8086 7.3789 5.0703zm13.762-0.5c-14.02 0-25.469-10.789-26.371-24.68 1.3281 0.76172 2.7812 1.3398 4.3008 1.7188 0.80859 5.1719 3.4219 9.9102 7.3906 13.371 4.0703 3.5508 9.2812 5.5 14.691 5.5 12.328 0 22.359-10.031 22.359-22.352 0-12.328-10.031-22.359-22.359-22.359-1.1484 0-2.2812 0.089843-3.3906 0.26953-0.82031-1.3203-1.8086-2.5195-2.9492-3.5703 2.0586-0.51172 4.1914-0.78125 6.3398-0.78125 14.578 0 26.441 11.859 26.441 26.441-0.003906 14.582-11.875 26.441-26.453 26.441z"/>
  <path d="m44.969 21.219c0.75 0.75 1.0703 1.5898 0.98047 2.5586-0.30859 3.3984-5.5781 7.0508-5.6289 7.0781-0.10156 0.070312-0.16016 0.19141-0.16016 0.30859v3.6211c0 0.21094 0.17188 0.37891 0.37891 0.37891 0.21094 0 0.37891-0.17187 0.37891-0.37891v-3.4219c0.94141-0.67969 5.4688-4.0898 5.7891-7.5195 0.10938-1.1914-0.28906-2.25-1.1992-3.1602-1.1289-1.1289-2.4219-1.6719-3.8086-1.6016-3.0391 0.16016-5.5 3.1602-5.6016 3.2891-0.12891 0.16016-0.10938 0.39844 0.058594 0.53125 0.16016 0.12891 0.39844 0.10938 0.53125-0.058594 0.019531-0.03125 2.3594-2.8711 5.0586-3.0117 1.1641-0.050781 2.2539 0.41797 3.2227 1.3867z"/>
  <path d="m42.16 38.109c0-0.73828-0.60156-1.3516-1.3516-1.3516-0.73828 0-1.3516 0.60156-1.3516 1.3516 0 0.73828 0.60156 1.3516 1.3516 1.3516s1.3516-0.60938 1.3516-1.3516zm-1.3516 0.58984c-0.32812 0-0.58984-0.26953-0.58984-0.58984 0-0.32812 0.26953-0.58984 0.58984-0.58984 0.32812 0 0.58984 0.26953 0.58984 0.58984 0.011718 0.33203-0.25781 0.58984-0.58984 0.58984z"/>
 </g></svg>