<?xml version="1.0" encoding="UTF-8" standalone="no"?>
<svg
   viewBox="0 0 125 125"
   x="0px"
   y="0px"
   version="1.1"
   id="svg6"
   sodipodi:docname="noun-entertainment-6137672.svg"
   width="125"
   height="125"
   inkscape:version="1.3 (0e150ed6c4, 2023-07-21)"
   xmlns:inkscape="http://www.inkscape.org/namespaces/inkscape"
   xmlns:sodipodi="http://sodipodi.sourceforge.net/DTD/sodipodi-0.dtd"
   xmlns="http://www.w3.org/2000/svg"
   xmlns:svg="http://www.w3.org/2000/svg">
  <defs
     id="defs6" />
  <sodipodi:namedview
     id="namedview6"
     pagecolor="#ffffff"
     bordercolor="#000000"
     borderopacity="0.25"
     inkscape:showpageshadow="2"
     inkscape:pageopacity="0.0"
     inkscape:pagecheckerboard="0"
     inkscape:deskcolor="#d1d1d1"
     inkscape:zoom="9.096"
     inkscape:cx="50.021988"
     inkscape:cy="62.5"
     inkscape:window-width="2560"
     inkscape:window-height="1351"
     inkscape:window-x="3831"
     inkscape:window-y="1115"
     inkscape:window-maximized="1"
     inkscape:current-layer="svg6" />
  <path
     d="m 26.924124,106 c 0.58,1.52 1.72,2.73 3.21,3.39 0.8,0.36 1.64,0.53 2.49,0.53 0.74,0 1.47,-0.14 2.18,-0.41 l 35.99,-13.76 c 3.14,-1.2 4.72,-4.74 3.52,-7.88 l -10.66,-27.88 c -0.58,-1.52 -1.72,-2.73 -3.21,-3.39 -1.49,-0.66 -3.15,-0.71 -4.67,-0.13 l -35.99,13.77 c -1.52,0.58 -2.73,1.72 -3.39,3.21 -0.67,1.49 -0.71,3.15 -0.13,4.67 z m -7.79,-31.33 c 0.34,-0.76 0.95,-1.34 1.72,-1.63 l 35.99,-13.76 c 0.36,-0.14 0.74,-0.21 1.11,-0.21 0.43,0 0.86,0.09 1.26,0.27 0.76,0.34 1.34,0.95 1.63,1.73 l 8.29,21.67 -14.05,-8.82 c -1.4,-0.88 -3.09,-1.05 -4.64,-0.45 -1.55,0.59 -2.69,1.84 -3.15,3.43 l -1.86,6.48 -5.71,-3.58 c -1.4,-0.88 -3.09,-1.05 -4.64,-0.45 -1.55,0.59 -2.69,1.84 -3.15,3.43 l -4.58,15.95 -8.28,-21.68 c -0.3,-0.77 -0.27,-1.62 0.07,-2.37 z m 52.38,14.28 c 0.61,1.6 -0.19,3.4 -1.79,4.01 l -35.99,13.76 c -0.77,0.3 -1.62,0.27 -2.37,-0.07 -0.76,-0.34 -1.34,-0.95 -1.63,-1.73 l -0.24,-0.62 13.96,-5.34 c 0,0 0,0 0,0 l 27.83,-10.64 0.24,0.62 z m -26.33,6.14 4.99,-17.37 c 0.19,-0.68 0.68,-1.21 1.34,-1.46 0.26,-0.1 0.53,-0.15 0.8,-0.15 0.41,0 0.82,0.11 1.18,0.34 l 15.31,9.61 -23.61,9.03 z m -3.51,1.34 -11.85,4.53 4.99,-17.37 c 0.19,-0.68 0.68,-1.21 1.34,-1.46 0.26,-0.1 0.53,-0.15 0.8,-0.15 0.41,0 0.82,0.11 1.18,0.34 l 6.44,4.04 -2.89,10.06 z"
     id="path1" />
  <path
     d="m 41.414124,77.5 c 0,0 0.04,0 0.06,0 1.24,-0.02 2.39,-0.51 3.26,-1.4 0.87,-0.89 1.33,-2.05 1.31,-3.29 -0.02,-1.24 -0.51,-2.39 -1.4,-3.26 -0.89,-0.86 -2.08,-1.34 -3.29,-1.31 -1.24,0.02 -2.39,0.51 -3.26,1.4 -0.87,0.89 -1.33,2.05 -1.31,3.29 0.02,1.24 0.51,2.39 1.4,3.26 0.87,0.85 2.02,1.31 3.23,1.31 z m 0,-6.26 c 0.43,0 0.83,0.16 1.14,0.46 0.31,0.3 0.49,0.71 0.49,1.15 0,0.44 -0.16,0.85 -0.46,1.16 -0.3,0.31 -0.71,0.49 -1.15,0.49 -0.46,0 -0.85,-0.16 -1.16,-0.46 -0.31,-0.3 -0.49,-0.71 -0.49,-1.15 0,-0.44 0.16,-0.85 0.46,-1.16 0.3,-0.31 0.71,-0.49 1.15,-0.49 z"
     id="path2" />
  <path
     d="m 106.94412,91.67 c -0.02,-0.09 -0.07,-0.16 -0.09,-0.25 0,-0.1 -0.02,-0.19 -0.04,-0.29 l -4.3,-17 -1.72,-6.8 c -0.11,-0.43 -0.4,-0.79 -0.79,-0.98 -0.399996,-0.19 -0.859996,-0.2 -1.259996,-0.03 l -19.54,8.56 c -0.67,0.29 -1.03,1.03 -0.85,1.74 l 1.72,6.8 c 0,0 0.02,0.04 0.03,0.07 0,0.03 0,0.05 0.01,0.08 l 3.55,14.04 c -1.24,-0.03 -2.63,0.35 -4.01,1.15 -3.26,1.87 -5.23,5.22 -4.59,7.79 0.28,1.11 1.02,1.97 2.08,2.42 0.56,0.24 1.17,0.35 1.83,0.35 1.21,0 2.55,-0.39 3.88,-1.16 3.26,-1.87 5.23,-5.22 4.59,-7.79 -0.02,-0.09 -0.07,-0.16 -0.09,-0.25 0,-0.1 -0.02,-0.19 -0.04,-0.29 l -4.02,-15.91 16.749996,-7.34 3.12,12.33 c -1.24,-0.03 -2.63,0.35 -4.009996,1.15 -3.26,1.87 -5.23,5.22 -4.59,7.79 0.28,1.11 1.02,1.97 2.08,2.42 0.56,0.24 1.18,0.35 1.83,0.35 1.21,0 2.549996,-0.39 3.879996,-1.16 3.26,-1.87 5.23,-5.22 4.58,-7.79 z m -9.129996,5.83 c -0.2,-0.08 -0.29,-0.19 -0.34,-0.39 -0.24,-0.96 0.85,-3.12 3.169996,-4.45 0.94,-0.54 1.79,-0.75 2.4,-0.75 0.26,0 0.48,0.04 0.65,0.11 0.2,0.08 0.29,0.19 0.34,0.39 0.24,0.96 -0.85,3.12 -3.17,4.45 -1.339996,0.77 -2.499996,0.88 -3.049996,0.64 z m -15.27,-16.53 -0.97,-3.85 16.75,-7.34 0.97,3.85 z m -4.23,25.23 c -0.2,-0.08 -0.29,-0.19 -0.34,-0.39 -0.24,-0.96 0.85,-3.12 3.17,-4.45 0.94,-0.54 1.79,-0.75 2.4,-0.75 0.26,0 0.48,0.04 0.65,0.11 0.2,0.08 0.29,0.19 0.34,0.39 0.24,0.96 -0.85,3.12 -3.17,4.45 -1.34,0.77 -2.5,0.88 -3.05,0.64 z"
     id="path3" />
  <path
     d="m 23.654124,45.54 c 0.78,0.18 1.56,0.27 2.31,0.27 2.61,0 4.94,-1.02 5.87,-2.73 0.05,-0.09 0.07,-0.18 0.11,-0.27 0.05,-0.06 0.1,-0.12 0.14,-0.19 l 7.3,-13.35 15.91,5.54 -5.57,10.18 c -0.84,-0.77 -2.01,-1.36 -3.42,-1.69 -3.46,-0.8 -6.98,0.26 -8.19,2.46 -0.53,0.96 -0.57,2.05 -0.12,3.06 0.67,1.49 2.3,2.63 4.49,3.13 0.78,0.18 1.56,0.27 2.31,0.27 2.61,0 4.94,-1.02 5.87,-2.73 0.05,-0.09 0.07,-0.18 0.11,-0.27 0.05,-0.06 0.1,-0.12 0.14,-0.19 l 7.84,-14.34 3.14,-5.74 c 0.21,-0.39 0.24,-0.85 0.08,-1.26 -0.16,-0.41 -0.49,-0.73 -0.91,-0.88 l -18.75,-6.53 c -0.69,-0.24 -1.46,0.05 -1.81,0.7 l -3.14,5.74 c 0,0 -0.02,0.04 -0.03,0.06 -0.01,0.02 -0.03,0.04 -0.04,0.06 l -6.42,11.73 c -0.84,-0.77 -2.01,-1.36 -3.42,-1.69 -3.46,-0.8 -6.98,0.26 -8.19,2.46 -0.53,0.96 -0.57,2.05 -0.12,3.06 0.67,1.49 2.3,2.63 4.49,3.13 z m -1.74,-4.76 c 0.32,-0.58 1.62,-1.16 3.27,-1.16 0.51,0 1.05,0.06 1.61,0.18 1.37,0.32 2.21,0.95 2.43,1.44 0.08,0.17 0.05,0.28 -0.01,0.4 -0.42,0.76 -2.52,1.52 -4.88,0.98 -1.37,-0.32 -2.21,-0.95 -2.43,-1.44 -0.08,-0.17 -0.05,-0.28 0.01,-0.39 z m 36.52,-11.71 -1.68,3.07 -15.91,-5.54 1.68,-3.07 z m -15.26,19.96 c -1.37,-0.32 -2.21,-0.95 -2.43,-1.44 -0.08,-0.17 -0.05,-0.28 0.01,-0.4 0.32,-0.58 1.62,-1.17 3.27,-1.17 0.51,0 1.05,0.06 1.61,0.18 1.37,0.32 2.21,0.95 2.43,1.44 0.08,0.17 0.05,0.28 -0.01,0.4 -0.42,0.76 -2.53,1.52 -4.88,0.98 z"
     id="path4" />
  <path
     d="m 65.754124,49.2 19.37,12.22 c 1.13,0.71 2.41,1.08 3.71,1.08 0.52,0 1.04,-0.06 1.55,-0.17 1.82,-0.41 3.36,-1.51 4.36,-3.08 L 106.96412,39.88 c 2.05,-3.25 1.08,-7.57 -2.18,-9.62 L 85.414124,18.04 c -1.58,-0.99 -3.44,-1.32 -5.26,-0.9 -1.82,0.41 -3.36,1.51 -4.36,3.08 l -12.22,19.37 c -2.05,3.25 -1.08,7.57 2.18,9.62 z m 15.06,-29.14 c 0.29,-0.07 0.59,-0.1 0.88,-0.1 0.74,0 1.47,0.21 2.11,0.61 l 19.369996,12.22 c 1.85,1.17 2.41,3.63 1.24,5.48 L 92.194124,57.64 c -0.57,0.9 -1.45,1.52 -2.48,1.75 -1.04,0.24 -2.1,0.05 -3,-0.51 l -19.37,-12.22 c -1.85,-1.17 -2.41,-3.63 -1.24,-5.48 l 12.22,-19.37 c 0.57,-0.9 1.45,-1.52 2.48,-1.75 z"
     id="path5" />
  <path
     d="m 78.554124,45.67 11.05,0.96 c 0.12,0 0.23,0.01 0.35,0.01 1.35,0 2.61,-0.69 3.35,-1.85 0.79,-1.26 0.82,-2.84 0.06,-4.12 l -5.62,-9.56 c -0.71,-1.2 -1.96,-1.93 -3.35,-1.95 -1.37,-0.02 -2.67,0.67 -3.41,1.85 l -5.43,8.61 c -0.74,1.18 -0.82,2.63 -0.2,3.88 0.62,1.25 1.82,2.07 3.21,2.19 z m 4.96,-13.07 c 0.25,-0.4 0.64,-0.45 0.81,-0.45 h 0.01 c 0.16,0 0.57,0.05 0.81,0.47 l 5.62,9.56 c 0.27,0.46 0.08,0.85 -0.02,1 -0.09,0.15 -0.38,0.49 -0.9,0.44 l -11.05,-0.96 c -0.49,-0.04 -0.71,-0.38 -0.78,-0.53 -0.07,-0.15 -0.21,-0.53 0.05,-0.94 l 5.43,-8.61 z"
     id="path6" />
</svg>
