<svg xmlns="http://www.w3.org/2000/svg" version="1.1" viewBox="-5.0 -10.0 110.0 135.0">
 <path d="m12.5 71.875c-3.4453 0-6.25 2.8047-6.25 6.25s2.8047 6.25 6.25 6.25 6.25-2.8047 6.25-6.25-2.8047-6.25-6.25-6.25zm0 9.375c-1.7227 0-3.125-1.4023-3.125-3.125s1.4023-3.125 3.125-3.125 3.125 1.4023 3.125 3.125-1.4023 3.125-3.125 3.125zm75-9.375c-3.4453 0-6.25 2.8047-6.25 6.25s2.8047 6.25 6.25 6.25 6.25-2.8047 6.25-6.25-2.8047-6.25-6.25-6.25zm0 9.375c-1.7227 0-3.125-1.4023-3.125-3.125s1.4023-3.125 3.125-3.125 3.125 1.4023 3.125 3.125-1.4023 3.125-3.125 3.125zm7.8125-68.75h3.125c0.86328 0 1.5625-0.69922 1.5625-1.5625v-9.375c0-0.86328-0.69922-1.5625-1.5625-1.5625h-96.875c-0.86328 0-1.5625 0.69922-1.5625 1.5625v9.375c0 0.86328 0.69922 1.5625 1.5625 1.5625h3.125v53.125h-3.125c-0.86328 0-1.5625 0.69922-1.5625 1.5625v31.25c0 0.86328 0.69922 1.5625 1.5625 1.5625h96.875c0.86328 0 1.5625-0.69922 1.5625-1.5625v-31.25c0-0.86328-0.69922-1.5625-1.5625-1.5625h-3.125zm-70.312 56.25h50v6.25h-50zm26.562-3.125v-10.637l5.2344-1.9648c0.80859-0.30469 1.2188-1.2031 0.91406-2.0117-0.30469-0.80859-1.2031-1.2148-2.0117-0.91406l-12.5 4.6875c-0.80859 0.30469-1.2188 1.2031-0.91406 2.0117 0.23438 0.62891 0.83203 1.0156 1.4648 1.0156 0.18359 0 0.36719-0.03125 0.54688-0.10156l4.1406-1.5508v9.4648h-28.125v-43.75h9.375v3.3477c-2.6875 0.69922-4.6875 3.125-4.6875 6.0273 0 3.4453 2.8047 6.25 6.25 6.25s6.25-2.8047 6.25-6.25c0-2.9023-2-5.3281-4.6875-6.0273v-3.3477h15.625v3.3477c-2.6875 0.69922-4.6875 3.125-4.6875 6.0273 0 3.4453 2.8047 6.25 6.25 6.25s6.25-2.8047 6.25-6.25c0-2.9023-2-5.3281-4.6875-6.0273v-3.3477h15.625v3.3477c-2.6875 0.69922-4.6875 3.125-4.6875 6.0273 0 3.4453 2.8047 6.25 6.25 6.25s6.25-2.8047 6.25-6.25c0-2.9023-2-5.3281-4.6875-6.0273v-3.3477h9.375v43.75zm31.25-32.812 8.332 6.25-8.332 6.25zm1.043-3.125 8.332-6.25v12.5zm-1.043-3.125v-12.5l8.332 6.25zm-3.125-7.8125h-59.375v-6.25h59.375zm-10.938 9.375c1.7227 0 3.125 1.4023 3.125 3.125s-1.4023 3.125-3.125 3.125-3.125-1.4023-3.125-3.125 1.4023-3.125 3.125-3.125zm-18.75 0c1.7227 0 3.125 1.4023 3.125 3.125s-1.4023 3.125-3.125 3.125-3.125-1.4023-3.125-3.125 1.4023-3.125 3.125-3.125zm-18.75 0c1.7227 0 3.125 1.4023 3.125 3.125s-1.4023 3.125-3.125 3.125-3.125-1.4023-3.125-3.125 1.4023-3.125 3.125-3.125zm-14.062 17.188-8.332-6.25 8.332-6.25zm0-25v6.25l-8.332-6.25 8.332-6.25zm-1.043 9.375-8.332 6.25v-12.5zm0 18.75-8.332 6.25v-12.5zm1.043 3.125v12.5l-8.332-6.25zm65.625 0 8.332 6.25-8.332 6.25zm1.043-3.125 8.332-6.25v12.5zm8.332-31.25-6.25-4.6875h6.25zm-89.062-14.062h93.75v6.25h-93.75zm10.938 9.375-6.25 4.6875v-4.6875zm-6.25 48.438 6.25 4.6875h-6.25zm-4.6875 7.8125h18.75v28.125h-18.75zm21.875 9.375h50v18.75h-50zm71.875 18.75h-18.75v-28.125h18.75zm-10.938-31.25 6.25-4.6875v4.6875zm-71.875 25c0 0.86328-0.69922 1.5625-1.5625 1.5625s-1.5625-0.69922-1.5625-1.5625 0.69922-1.5625 1.5625-1.5625 1.5625 0.69922 1.5625 1.5625zm75 0c0 0.86328-0.69922 1.5625-1.5625 1.5625s-1.5625-0.69922-1.5625-1.5625 0.69922-1.5625 1.5625-1.5625 1.5625 0.69922 1.5625 1.5625z"/></svg>