<svg xmlns="http://www.w3.org/2000/svg" version="1.1" viewBox="-5.0 -10.0 110.0 135.0">
 <g>
  <path d="m95.312 26.562h-7.4453l-25.367-12.684v1.7461c0 3.4453-2.8047 6.25-6.25 6.25h-12.5c-3.4453 0-6.25-2.8047-6.25-6.25v-1.7461l-25.367 12.684h-7.4453c-0.86328 0-1.5625 0.69922-1.5625 1.5625v6.25c0 0.86328 0.69922 1.5625 1.5625 1.5625h90.625c0.86328 0 1.5625-0.69922 1.5625-1.5625v-6.25c0-0.86328-0.69922-1.5625-1.5625-1.5625z"/>
  <path d="m4.6875 90.625h90.625c0.86328 0 1.5625 0.86328 1.5625 1.5625v6.25c0 0.86328-0.69922 1.5625-1.5625 1.5625h-90.625c-0.86328 0-1.5625-0.86328-1.5625-1.5625v-6.25c0-0.86328 0.69922-1.5625 1.5625-1.5625z"/>
  <path d="m43.75 18.75h12.5c1.7266 0 3.125-1.3984 3.125-3.125v-12.5c0-1.7266-1.3984-3.125-3.125-3.125h-12.5c-1.7266 0-3.125 1.3984-3.125 3.125v12.5c0 1.7266 1.3984 3.125 3.125 3.125zm1.5625-12.5c0-0.63281 0.38281-1.2031 0.96484-1.4453 0.58594-0.24219 1.2578-0.10938 1.7031 0.33594l2.0195 2.0195 2.0195-2.0195c0.44531-0.44531 1.1172-0.57812 1.7031-0.33594 0.58594 0.24219 0.96484 0.8125 0.96484 1.4453v6.25c0 0.86328-0.69922 1.5625-1.5625 1.5625s-1.5625-0.69922-1.5625-1.5625v-2.4766l-0.45703 0.45703c-0.60938 0.60938-1.6016 0.60938-2.2109 0l-0.45703-0.45703v2.4766c0 0.86328-0.69922 1.5625-1.5625 1.5625s-1.5625-0.69922-1.5625-1.5625z"/>
  <path d="m9.375 81.25c-0.71875 0-1.3438 0.48828-1.5156 1.1836l-1.2656 5.0664h18.062l-1.2656-5.0664c-0.17188-0.69531-0.79688-1.1836-1.5156-1.1836h-1.5625v-35.938h1.5625c0.71875 0 1.3438-0.48828 1.5156-1.1836l1.2656-5.0664h-18.062l1.2656 5.0664c0.17188 0.69531 0.79688 1.1836 1.5156 1.1836h1.5625v35.938z"/>
  <path d="m32.812 81.25c-0.71875 0-1.3438 0.48828-1.5156 1.1836l-1.2656 5.0664h18.062l-1.2656-5.0664c-0.17188-0.69531-0.79688-1.1836-1.5156-1.1836h-1.5625v-35.938h1.5625c0.71875 0 1.3438-0.48828 1.5156-1.1836l1.2656-5.0664h-18.062l1.2656 5.0664c0.17188 0.69531 0.79688 1.1836 1.5156 1.1836h1.5625v35.938z"/>
  <path d="m54.688 81.25c-0.71875 0-1.3438 0.48828-1.5156 1.1836l-1.2656 5.0664h18.062l-1.2656-5.0664c-0.17188-0.69531-0.79688-1.1836-1.5156-1.1836h-1.5625v-35.938h1.5625c0.71875 0 1.3438-0.48828 1.5156-1.1836l1.2656-5.0664h-18.062l1.2656 5.0664c0.17188 0.69531 0.79688 1.1836 1.5156 1.1836h1.5625v35.938z"/>
  <path d="m78.125 81.25c-0.71875 0-1.3438 0.48828-1.5156 1.1836l-1.2656 5.0664h18.062l-1.2656-5.0664c-0.17188-0.69531-0.79688-1.1836-1.5156-1.1836h-1.5625v-35.938h1.5625c0.71875 0 1.3438-0.48828 1.5156-1.1836l1.2656-5.0664h-18.062l1.2656 5.0664c0.17188 0.69531 0.79688 1.1836 1.5156 1.1836h1.5625v35.938z"/>
 </g></svg>